<?xml version="1.0" encoding="UTF-8" standalone="no"?>
<!DOCTYPE svg PUBLIC "-//W3C//DTD SVG 1.1//EN"
 "http://www.w3.org/Graphics/SVG/1.1/DTD/svg11.dtd">
<!-- Generated by graphviz version 2.43.0 (0)
 -->
<!-- Title: %3 Pages: 1 -->
<svg width="1038pt" height="678pt"
 viewBox="0.00 0.00 1038.00 678.00" xmlns="http://www.w3.org/2000/svg" xmlns:xlink="http://www.w3.org/1999/xlink">
<g id="graph0" class="graph" transform="scale(1 1) rotate(0) translate(4 674)">
<title>%3</title>
<polygon fill="white" stroke="transparent" points="-4,4 -4,-674 1034,-674 1034,4 -4,4"/>
<!-- N0_0 -->
<g id="node1" class="node">
<title>N0_0</title>
<polygon fill="none" stroke="black" points="101,-101 65,-101 65,-65 101,-65 101,-101"/>
</g>
<!-- N0_1 -->
<g id="node2" class="node">
<title>N0_1</title>
<polygon fill="none" stroke="black" points="173,-101 137,-101 137,-65 173,-65 173,-101"/>
</g>
<!-- N0_1&#45;&#45;N0_0 -->
<g id="edge106" class="edge">
<title>N0_1&#45;&#45;N0_0</title>
<path fill="none" stroke="black" stroke-width="5" d="M136.83,-83C126,-83 112.29,-83 101.41,-83"/>
</g>
<!-- N0_2 -->
<g id="node3" class="node">
<title>N0_2</title>
<polygon fill="none" stroke="black" points="245,-101 209,-101 209,-65 245,-65 245,-101"/>
</g>
<!-- N0_3 -->
<g id="node4" class="node">
<title>N0_3</title>
<polygon fill="none" stroke="black" points="317,-101 281,-101 281,-65 317,-65 317,-101"/>
</g>
<!-- N0_3&#45;&#45;N0_2 -->
<g id="edge2" class="edge">
<title>N0_3&#45;&#45;N0_2</title>
<path fill="none" stroke="black" stroke-width="5" d="M280.83,-83C270,-83 256.29,-83 245.41,-83"/>
</g>
<!-- N1_3 -->
<g id="node17" class="node">
<title>N1_3</title>
<polygon fill="none" stroke="black" points="317,-173 281,-173 281,-137 317,-137 317,-173"/>
</g>
<!-- N0_3&#45;&#45;N1_3 -->
<g id="edge100" class="edge">
<title>N0_3&#45;&#45;N1_3</title>
<path fill="none" stroke="black" stroke-width="5" d="M299,-101.17C299,-112 299,-125.71 299,-136.59"/>
</g>
<!-- A10 -->
<g id="node125" class="node">
<title>A10</title>
<ellipse fill="none" stroke="black" cx="299" cy="-11" rx="11" ry="11"/>
<text text-anchor="middle" x="299" y="-7.3" font-family="Times,serif" font-size="14.00">10</text>
</g>
<!-- N0_3&#45;&#45;A10 -->
<g id="edge102" class="edge">
<title>N0_3&#45;&#45;A10</title>
<path fill="none" stroke="black" stroke-width="2" d="M299,-64.83C299,-51.5 299,-33.81 299,-22.41"/>
</g>
<!-- N0_4 -->
<g id="node5" class="node">
<title>N0_4</title>
<polygon fill="none" stroke="black" points="389,-101 353,-101 353,-65 389,-65 389,-101"/>
</g>
<!-- N0_5 -->
<g id="node6" class="node">
<title>N0_5</title>
<polygon fill="none" stroke="black" points="461,-101 425,-101 425,-65 461,-65 461,-101"/>
</g>
<!-- N0_5&#45;&#45;N0_4 -->
<g id="edge88" class="edge">
<title>N0_5&#45;&#45;N0_4</title>
<path fill="none" stroke="black" stroke-width="5" d="M424.83,-83C414,-83 400.29,-83 389.41,-83"/>
</g>
<!-- A7 -->
<g id="node119" class="node">
<title>A7</title>
<ellipse fill="none" stroke="black" cx="443" cy="-11" rx="11" ry="11"/>
<text text-anchor="middle" x="443" y="-7.3" font-family="Times,serif" font-size="14.00">7</text>
</g>
<!-- N0_5&#45;&#45;A7 -->
<g id="edge86" class="edge">
<title>N0_5&#45;&#45;A7</title>
<path fill="none" stroke="black" stroke-width="2" d="M443,-64.83C443,-51.5 443,-33.81 443,-22.41"/>
</g>
<!-- N0_6 -->
<g id="node7" class="node">
<title>N0_6</title>
<polygon fill="none" stroke="black" points="533,-101 497,-101 497,-65 533,-65 533,-101"/>
</g>
<!-- N0_7 -->
<g id="node8" class="node">
<title>N0_7</title>
<polygon fill="none" stroke="black" points="605,-101 569,-101 569,-65 605,-65 605,-101"/>
</g>
<!-- N0_7&#45;&#45;N0_6 -->
<g id="edge93" class="edge">
<title>N0_7&#45;&#45;N0_6</title>
<path fill="none" stroke="black" stroke-width="5" d="M568.83,-83C558,-83 544.29,-83 533.41,-83"/>
</g>
<!-- N0_8 -->
<g id="node9" class="node">
<title>N0_8</title>
<polygon fill="none" stroke="black" points="677,-101 641,-101 641,-65 677,-65 677,-101"/>
</g>
<!-- N0_9 -->
<g id="node10" class="node">
<title>N0_9</title>
<polygon fill="none" stroke="black" points="749,-101 713,-101 713,-65 749,-65 749,-101"/>
</g>
<!-- N0_10 -->
<g id="node11" class="node">
<title>N0_10</title>
<polygon fill="none" stroke="black" points="821,-101 785,-101 785,-65 821,-65 821,-101"/>
</g>
<!-- N1_10 -->
<g id="node24" class="node">
<title>N1_10</title>
<polygon fill="none" stroke="black" points="821,-173 785,-173 785,-137 821,-137 821,-173"/>
</g>
<!-- N0_10&#45;&#45;N1_10 -->
<g id="edge58" class="edge">
<title>N0_10&#45;&#45;N1_10</title>
<path fill="none" stroke="black" stroke-width="5" d="M803,-101.17C803,-112 803,-125.71 803,-136.59"/>
</g>
<!-- N0_11 -->
<g id="node12" class="node">
<title>N0_11</title>
<polygon fill="none" stroke="black" points="893,-101 857,-101 857,-65 893,-65 893,-101"/>
</g>
<!-- N0_11&#45;&#45;N0_10 -->
<g id="edge59" class="edge">
<title>N0_11&#45;&#45;N0_10</title>
<path fill="none" stroke="black" stroke-width="5" d="M856.83,-83C846,-83 832.29,-83 821.41,-83"/>
</g>
<!-- N0_12 -->
<g id="node13" class="node">
<title>N0_12</title>
<polygon fill="none" stroke="black" points="965,-101 929,-101 929,-65 965,-65 965,-101"/>
</g>
<!-- N0_12&#45;&#45;N0_11 -->
<g id="edge60" class="edge">
<title>N0_12&#45;&#45;N0_11</title>
<path fill="none" stroke="black" stroke-width="5" d="M928.83,-83C918,-83 904.29,-83 893.41,-83"/>
</g>
<!-- N1_0 -->
<g id="node14" class="node">
<title>N1_0</title>
<polygon fill="none" stroke="black" points="101,-173 65,-173 65,-137 101,-137 101,-173"/>
</g>
<!-- N1_0&#45;&#45;N0_0 -->
<g id="edge105" class="edge">
<title>N1_0&#45;&#45;N0_0</title>
<path fill="none" stroke="black" stroke-width="5" d="M83,-136.83C83,-126 83,-112.29 83,-101.41"/>
</g>
<!-- N1_1 -->
<g id="node15" class="node">
<title>N1_1</title>
<polygon fill="none" stroke="black" points="173,-173 137,-173 137,-137 173,-137 173,-173"/>
</g>
<!-- N1_0&#45;&#45;N1_1 -->
<g id="edge17" class="edge">
<title>N1_0&#45;&#45;N1_1</title>
<path fill="none" stroke="black" stroke-width="5" d="M101.17,-155C112,-155 125.71,-155 136.59,-155"/>
</g>
<!-- N2_0 -->
<g id="node27" class="node">
<title>N2_0</title>
<polygon fill="none" stroke="black" points="101,-245 65,-245 65,-209 101,-209 101,-245"/>
</g>
<!-- N1_0&#45;&#45;N2_0 -->
<g id="edge35" class="edge">
<title>N1_0&#45;&#45;N2_0</title>
<path fill="none" stroke="black" stroke-width="5" d="M83,-173.17C83,-184 83,-197.71 83,-208.59"/>
</g>
<!-- A4 -->
<g id="node113" class="node">
<title>A4</title>
<ellipse fill="none" stroke="black" cx="11" cy="-155" rx="11" ry="11"/>
<text text-anchor="middle" x="11" y="-151.3" font-family="Times,serif" font-size="14.00">4</text>
</g>
<!-- N1_0&#45;&#45;A4 -->
<g id="edge36" class="edge">
<title>N1_0&#45;&#45;A4</title>
<path fill="none" stroke="black" stroke-width="2" d="M64.83,-155C51.5,-155 33.81,-155 22.41,-155"/>
</g>
<!-- N1_2 -->
<g id="node16" class="node">
<title>N1_2</title>
<polygon fill="none" stroke="black" points="245,-173 209,-173 209,-137 245,-137 245,-173"/>
</g>
<!-- N1_4 -->
<g id="node18" class="node">
<title>N1_4</title>
<polygon fill="none" stroke="black" points="389,-173 353,-173 353,-137 389,-137 389,-173"/>
</g>
<!-- N1_4&#45;&#45;N1_3 -->
<g id="edge99" class="edge">
<title>N1_4&#45;&#45;N1_3</title>
<path fill="none" stroke="black" stroke-width="5" d="M352.83,-155C342,-155 328.29,-155 317.41,-155"/>
</g>
<!-- N2_4 -->
<g id="node31" class="node">
<title>N2_4</title>
<polygon fill="none" stroke="black" points="389,-245 353,-245 353,-209 389,-209 389,-245"/>
</g>
<!-- N1_4&#45;&#45;N2_4 -->
<g id="edge98" class="edge">
<title>N1_4&#45;&#45;N2_4</title>
<path fill="none" stroke="black" stroke-width="5" d="M371,-173.17C371,-184 371,-197.71 371,-208.59"/>
</g>
<!-- N1_5 -->
<g id="node19" class="node">
<title>N1_5</title>
<polygon fill="none" stroke="black" points="461,-173 425,-173 425,-137 461,-137 461,-173"/>
</g>
<!-- N2_5 -->
<g id="node32" class="node">
<title>N2_5</title>
<polygon fill="none" stroke="black" points="461,-245 425,-245 425,-209 461,-209 461,-245"/>
</g>
<!-- N1_5&#45;&#45;N2_5 -->
<g id="edge29" class="edge">
<title>N1_5&#45;&#45;N2_5</title>
<path fill="none" stroke="black" stroke-width="5" d="M443,-173.17C443,-184 443,-197.71 443,-208.59"/>
</g>
<!-- N1_6 -->
<g id="node20" class="node">
<title>N1_6</title>
<polygon fill="none" stroke="black" points="533,-173 497,-173 497,-137 533,-137 533,-173"/>
</g>
<!-- N1_6&#45;&#45;N1_5 -->
<g id="edge18" class="edge">
<title>N1_6&#45;&#45;N1_5</title>
<path fill="none" stroke="black" stroke-width="5" d="M496.83,-155C486,-155 472.29,-155 461.41,-155"/>
</g>
<!-- N1_7 -->
<g id="node21" class="node">
<title>N1_7</title>
<polygon fill="none" stroke="black" points="605,-173 569,-173 569,-137 605,-137 605,-173"/>
</g>
<!-- N1_7&#45;&#45;N1_6 -->
<g id="edge15" class="edge">
<title>N1_7&#45;&#45;N1_6</title>
<path fill="none" stroke="black" stroke-width="5" d="M568.83,-155C558,-155 544.29,-155 533.41,-155"/>
</g>
<!-- N2_7 -->
<g id="node34" class="node">
<title>N2_7</title>
<polygon fill="none" stroke="black" points="605,-245 569,-245 569,-209 605,-209 605,-245"/>
</g>
<!-- N1_7&#45;&#45;N2_7 -->
<g id="edge84" class="edge">
<title>N1_7&#45;&#45;N2_7</title>
<path fill="none" stroke="black" stroke-width="5" d="M587,-173.17C587,-184 587,-197.71 587,-208.59"/>
</g>
<!-- N1_8 -->
<g id="node22" class="node">
<title>N1_8</title>
<polygon fill="none" stroke="black" points="677,-173 641,-173 641,-137 677,-137 677,-173"/>
</g>
<!-- N1_9 -->
<g id="node23" class="node">
<title>N1_9</title>
<polygon fill="none" stroke="black" points="749,-173 713,-173 713,-137 749,-137 749,-173"/>
</g>
<!-- N1_8&#45;&#45;N1_9 -->
<g id="edge28" class="edge">
<title>N1_8&#45;&#45;N1_9</title>
<path fill="none" stroke="black" stroke-width="5" d="M677.17,-155C688,-155 701.71,-155 712.59,-155"/>
</g>
<!-- N1_11 -->
<g id="node25" class="node">
<title>N1_11</title>
<polygon fill="none" stroke="black" points="893,-173 857,-173 857,-137 893,-137 893,-173"/>
</g>
<!-- N1_11&#45;&#45;N1_10 -->
<g id="edge39" class="edge">
<title>N1_11&#45;&#45;N1_10</title>
<path fill="none" stroke="black" stroke-width="5" d="M856.83,-155C846,-155 832.29,-155 821.41,-155"/>
</g>
<!-- N1_12 -->
<g id="node26" class="node">
<title>N1_12</title>
<polygon fill="none" stroke="black" points="965,-173 929,-173 929,-137 965,-137 965,-173"/>
</g>
<!-- N1_12&#45;&#45;N1_11 -->
<g id="edge38" class="edge">
<title>N1_12&#45;&#45;N1_11</title>
<path fill="none" stroke="black" stroke-width="5" d="M928.83,-155C918,-155 904.29,-155 893.41,-155"/>
</g>
<!-- N3_0 -->
<g id="node40" class="node">
<title>N3_0</title>
<polygon fill="none" stroke="black" points="101,-317 65,-317 65,-281 101,-281 101,-317"/>
</g>
<!-- N2_0&#45;&#45;N3_0 -->
<g id="edge33" class="edge">
<title>N2_0&#45;&#45;N3_0</title>
<path fill="none" stroke="black" stroke-width="5" d="M83,-245.17C83,-256 83,-269.71 83,-280.59"/>
</g>
<!-- N2_1 -->
<g id="node28" class="node">
<title>N2_1</title>
<polygon fill="none" stroke="black" points="173,-245 137,-245 137,-209 173,-209 173,-245"/>
</g>
<!-- N2_1&#45;&#45;N2_0 -->
<g id="edge34" class="edge">
<title>N2_1&#45;&#45;N2_0</title>
<path fill="none" stroke="black" stroke-width="5" d="M136.83,-227C126,-227 112.29,-227 101.41,-227"/>
</g>
<!-- N3_1 -->
<g id="node41" class="node">
<title>N3_1</title>
<polygon fill="none" stroke="black" points="173,-317 137,-317 137,-281 173,-281 173,-317"/>
</g>
<!-- N2_1&#45;&#45;N3_1 -->
<g id="edge78" class="edge">
<title>N2_1&#45;&#45;N3_1</title>
<path fill="none" stroke="black" stroke-width="5" d="M155,-245.17C155,-256 155,-269.71 155,-280.59"/>
</g>
<!-- N2_2 -->
<g id="node29" class="node">
<title>N2_2</title>
<polygon fill="none" stroke="black" points="245,-245 209,-245 209,-209 245,-209 245,-245"/>
</g>
<!-- N2_2&#45;&#45;N1_2 -->
<g id="edge16" class="edge">
<title>N2_2&#45;&#45;N1_2</title>
<path fill="none" stroke="black" stroke-width="5" d="M227,-208.83C227,-198 227,-184.29 227,-173.41"/>
</g>
<!-- N3_2 -->
<g id="node42" class="node">
<title>N3_2</title>
<polygon fill="none" stroke="black" points="245,-317 209,-317 209,-281 245,-281 245,-317"/>
</g>
<!-- N2_2&#45;&#45;N3_2 -->
<g id="edge80" class="edge">
<title>N2_2&#45;&#45;N3_2</title>
<path fill="none" stroke="black" stroke-width="5" d="M227,-245.17C227,-256 227,-269.71 227,-280.59"/>
</g>
<!-- N2_3 -->
<g id="node30" class="node">
<title>N2_3</title>
<polygon fill="none" stroke="black" points="317,-245 281,-245 281,-209 317,-209 317,-245"/>
</g>
<!-- N2_3&#45;&#45;N2_2 -->
<g id="edge81" class="edge">
<title>N2_3&#45;&#45;N2_2</title>
<path fill="none" stroke="black" stroke-width="5" d="M280.83,-227C270,-227 256.29,-227 245.41,-227"/>
</g>
<!-- N3_3 -->
<g id="node43" class="node">
<title>N3_3</title>
<polygon fill="none" stroke="black" points="317,-317 281,-317 281,-281 317,-281 317,-317"/>
</g>
<!-- N2_3&#45;&#45;N3_3 -->
<g id="edge82" class="edge">
<title>N2_3&#45;&#45;N3_3</title>
<path fill="none" stroke="black" stroke-width="5" d="M299,-245.17C299,-256 299,-269.71 299,-280.59"/>
</g>
<!-- N2_6 -->
<g id="node33" class="node">
<title>N2_6</title>
<polygon fill="none" stroke="black" points="533,-245 497,-245 497,-209 533,-209 533,-245"/>
</g>
<!-- N2_7&#45;&#45;N2_6 -->
<g id="edge83" class="edge">
<title>N2_7&#45;&#45;N2_6</title>
<path fill="none" stroke="black" stroke-width="5" d="M568.83,-227C558,-227 544.29,-227 533.41,-227"/>
</g>
<!-- N2_8 -->
<g id="node35" class="node">
<title>N2_8</title>
<polygon fill="none" stroke="black" points="677,-245 641,-245 641,-209 677,-209 677,-245"/>
</g>
<!-- N3_8 -->
<g id="node48" class="node">
<title>N3_8</title>
<polygon fill="none" stroke="black" points="677,-317 641,-317 641,-281 677,-281 677,-317"/>
</g>
<!-- N2_8&#45;&#45;N3_8 -->
<g id="edge114" class="edge">
<title>N2_8&#45;&#45;N3_8</title>
<path fill="none" stroke="black" stroke-width="5" d="M659,-245.17C659,-256 659,-269.71 659,-280.59"/>
</g>
<!-- N2_9 -->
<g id="node36" class="node">
<title>N2_9</title>
<polygon fill="none" stroke="black" points="749,-245 713,-245 713,-209 749,-209 749,-245"/>
</g>
<!-- N2_9&#45;&#45;N1_9 -->
<g id="edge25" class="edge">
<title>N2_9&#45;&#45;N1_9</title>
<path fill="none" stroke="black" stroke-width="5" d="M731,-208.83C731,-198 731,-184.29 731,-173.41"/>
</g>
<!-- N2_9&#45;&#45;N2_8 -->
<g id="edge113" class="edge">
<title>N2_9&#45;&#45;N2_8</title>
<path fill="none" stroke="black" stroke-width="5" d="M712.83,-227C702,-227 688.29,-227 677.41,-227"/>
</g>
<!-- N3_9 -->
<g id="node49" class="node">
<title>N3_9</title>
<polygon fill="none" stroke="black" points="749,-317 713,-317 713,-281 749,-281 749,-317"/>
</g>
<!-- N2_9&#45;&#45;N3_9 -->
<g id="edge112" class="edge">
<title>N2_9&#45;&#45;N3_9</title>
<path fill="none" stroke="black" stroke-width="5" d="M731,-245.17C731,-256 731,-269.71 731,-280.59"/>
</g>
<!-- N2_10 -->
<g id="node37" class="node">
<title>N2_10</title>
<polygon fill="none" stroke="black" points="821,-245 785,-245 785,-209 821,-209 821,-245"/>
</g>
<!-- N2_10&#45;&#45;N1_10 -->
<g id="edge40" class="edge">
<title>N2_10&#45;&#45;N1_10</title>
<path fill="none" stroke="black" stroke-width="5" d="M803,-208.83C803,-198 803,-184.29 803,-173.41"/>
</g>
<!-- N3_10 -->
<g id="node50" class="node">
<title>N3_10</title>
<polygon fill="none" stroke="black" points="821,-317 785,-317 785,-281 821,-281 821,-317"/>
</g>
<!-- N2_10&#45;&#45;N3_10 -->
<g id="edge8" class="edge">
<title>N2_10&#45;&#45;N3_10</title>
<path fill="none" stroke="black" stroke-width="5" d="M803,-245.17C803,-256 803,-269.71 803,-280.59"/>
</g>
<!-- N2_11 -->
<g id="node38" class="node">
<title>N2_11</title>
<polygon fill="none" stroke="black" points="893,-245 857,-245 857,-209 893,-209 893,-245"/>
</g>
<!-- N2_11&#45;&#45;N2_10 -->
<g id="edge41" class="edge">
<title>N2_11&#45;&#45;N2_10</title>
<path fill="none" stroke="black" stroke-width="5" d="M856.83,-227C846,-227 832.29,-227 821.41,-227"/>
</g>
<!-- N2_12 -->
<g id="node39" class="node">
<title>N2_12</title>
<polygon fill="none" stroke="black" points="965,-245 929,-245 929,-209 965,-209 965,-245"/>
</g>
<!-- N2_11&#45;&#45;N2_12 -->
<g id="edge63" class="edge">
<title>N2_11&#45;&#45;N2_12</title>
<path fill="none" stroke="black" stroke-width="5" d="M893.17,-227C904,-227 917.71,-227 928.59,-227"/>
</g>
<!-- N3_11 -->
<g id="node51" class="node">
<title>N3_11</title>
<polygon fill="none" stroke="black" points="893,-317 857,-317 857,-281 893,-281 893,-317"/>
</g>
<!-- N2_11&#45;&#45;N3_11 -->
<g id="edge42" class="edge">
<title>N2_11&#45;&#45;N3_11</title>
<path fill="none" stroke="black" stroke-width="5" d="M875,-245.17C875,-256 875,-269.71 875,-280.59"/>
</g>
<!-- N3_2&#45;&#45;N3_1 -->
<g id="edge79" class="edge">
<title>N3_2&#45;&#45;N3_1</title>
<path fill="none" stroke="black" stroke-width="5" d="M208.83,-299C198,-299 184.29,-299 173.41,-299"/>
</g>
<!-- N3_4 -->
<g id="node44" class="node">
<title>N3_4</title>
<polygon fill="none" stroke="black" points="389,-317 353,-317 353,-281 389,-281 389,-317"/>
</g>
<!-- N3_4&#45;&#45;N2_4 -->
<g id="edge97" class="edge">
<title>N3_4&#45;&#45;N2_4</title>
<path fill="none" stroke="black" stroke-width="5" d="M371,-280.83C371,-270 371,-256.29 371,-245.41"/>
</g>
<!-- N3_4&#45;&#45;N3_3 -->
<g id="edge96" class="edge">
<title>N3_4&#45;&#45;N3_3</title>
<path fill="none" stroke="black" stroke-width="5" d="M352.83,-299C342,-299 328.29,-299 317.41,-299"/>
</g>
<!-- N4_4 -->
<g id="node57" class="node">
<title>N4_4</title>
<polygon fill="none" stroke="black" points="389,-389 353,-389 353,-353 389,-353 389,-389"/>
</g>
<!-- N3_4&#45;&#45;N4_4 -->
<g id="edge10" class="edge">
<title>N3_4&#45;&#45;N4_4</title>
<path fill="none" stroke="black" stroke-width="5" d="M371,-317.17C371,-328 371,-341.71 371,-352.59"/>
</g>
<!-- N3_5 -->
<g id="node45" class="node">
<title>N3_5</title>
<polygon fill="none" stroke="black" points="461,-317 425,-317 425,-281 461,-281 461,-317"/>
</g>
<!-- N4_5 -->
<g id="node58" class="node">
<title>N4_5</title>
<polygon fill="none" stroke="black" points="461,-389 425,-389 425,-353 461,-353 461,-389"/>
</g>
<!-- N3_5&#45;&#45;N4_5 -->
<g id="edge30" class="edge">
<title>N3_5&#45;&#45;N4_5</title>
<path fill="none" stroke="black" stroke-width="5" d="M443,-317.17C443,-328 443,-341.71 443,-352.59"/>
</g>
<!-- N3_6 -->
<g id="node46" class="node">
<title>N3_6</title>
<polygon fill="none" stroke="black" points="533,-317 497,-317 497,-281 533,-281 533,-317"/>
</g>
<!-- N3_6&#45;&#45;N2_6 -->
<g id="edge77" class="edge">
<title>N3_6&#45;&#45;N2_6</title>
<path fill="none" stroke="black" stroke-width="5" d="M515,-280.83C515,-270 515,-256.29 515,-245.41"/>
</g>
<!-- N4_6 -->
<g id="node59" class="node">
<title>N4_6</title>
<polygon fill="none" stroke="black" points="533,-389 497,-389 497,-353 533,-353 533,-389"/>
</g>
<!-- N3_6&#45;&#45;N4_6 -->
<g id="edge76" class="edge">
<title>N3_6&#45;&#45;N4_6</title>
<path fill="none" stroke="black" stroke-width="5" d="M515,-317.17C515,-328 515,-341.71 515,-352.59"/>
</g>
<!-- N3_7 -->
<g id="node47" class="node">
<title>N3_7</title>
<polygon fill="none" stroke="black" points="605,-317 569,-317 569,-281 605,-281 605,-317"/>
</g>
<!-- N4_11 -->
<g id="node64" class="node">
<title>N4_11</title>
<polygon fill="none" stroke="black" points="893,-389 857,-389 857,-353 893,-353 893,-389"/>
</g>
<!-- N3_11&#45;&#45;N4_11 -->
<g id="edge43" class="edge">
<title>N3_11&#45;&#45;N4_11</title>
<path fill="none" stroke="black" stroke-width="5" d="M875,-317.17C875,-328 875,-341.71 875,-352.59"/>
</g>
<!-- N3_12 -->
<g id="node52" class="node">
<title>N3_12</title>
<polygon fill="none" stroke="black" points="965,-317 929,-317 929,-281 965,-281 965,-317"/>
</g>
<!-- N3_12&#45;&#45;N2_12 -->
<g id="edge64" class="edge">
<title>N3_12&#45;&#45;N2_12</title>
<path fill="none" stroke="black" stroke-width="5" d="M947,-280.83C947,-270 947,-256.29 947,-245.41"/>
</g>
<!-- N4_0 -->
<g id="node53" class="node">
<title>N4_0</title>
<polygon fill="none" stroke="black" points="101,-389 65,-389 65,-353 101,-353 101,-389"/>
</g>
<!-- N4_0&#45;&#45;N3_0 -->
<g id="edge32" class="edge">
<title>N4_0&#45;&#45;N3_0</title>
<path fill="none" stroke="black" stroke-width="5" d="M83,-352.83C83,-342 83,-328.29 83,-317.41"/>
</g>
<!-- N4_1 -->
<g id="node54" class="node">
<title>N4_1</title>
<polygon fill="none" stroke="black" points="173,-389 137,-389 137,-353 173,-353 173,-389"/>
</g>
<!-- N4_1&#45;&#45;N4_0 -->
<g id="edge9" class="edge">
<title>N4_1&#45;&#45;N4_0</title>
<path fill="none" stroke="black" stroke-width="5" d="M136.83,-371C126,-371 112.29,-371 101.41,-371"/>
</g>
<!-- N5_1 -->
<g id="node67" class="node">
<title>N5_1</title>
<polygon fill="none" stroke="black" points="173,-461 137,-461 137,-425 173,-425 173,-461"/>
</g>
<!-- N4_1&#45;&#45;N5_1 -->
<g id="edge22" class="edge">
<title>N4_1&#45;&#45;N5_1</title>
<path fill="none" stroke="black" stroke-width="5" d="M155,-389.17C155,-400 155,-413.71 155,-424.59"/>
</g>
<!-- N4_2 -->
<g id="node55" class="node">
<title>N4_2</title>
<polygon fill="none" stroke="black" points="245,-389 209,-389 209,-353 245,-353 245,-389"/>
</g>
<!-- N4_3 -->
<g id="node56" class="node">
<title>N4_3</title>
<polygon fill="none" stroke="black" points="317,-389 281,-389 281,-353 317,-353 317,-389"/>
</g>
<!-- N4_3&#45;&#45;N4_2 -->
<g id="edge13" class="edge">
<title>N4_3&#45;&#45;N4_2</title>
<path fill="none" stroke="black" stroke-width="5" d="M280.83,-371C270,-371 256.29,-371 245.41,-371"/>
</g>
<!-- N4_6&#45;&#45;N4_5 -->
<g id="edge21" class="edge">
<title>N4_6&#45;&#45;N4_5</title>
<path fill="none" stroke="black" stroke-width="5" d="M496.83,-371C486,-371 472.29,-371 461.41,-371"/>
</g>
<!-- N5_6 -->
<g id="node72" class="node">
<title>N5_6</title>
<polygon fill="none" stroke="black" points="533,-461 497,-461 497,-425 533,-425 533,-461"/>
</g>
<!-- N4_6&#45;&#45;N5_6 -->
<g id="edge69" class="edge">
<title>N4_6&#45;&#45;N5_6</title>
<path fill="none" stroke="black" stroke-width="5" d="M515,-389.17C515,-400 515,-413.71 515,-424.59"/>
</g>
<!-- N4_7 -->
<g id="node60" class="node">
<title>N4_7</title>
<polygon fill="none" stroke="black" points="605,-389 569,-389 569,-353 605,-353 605,-389"/>
</g>
<!-- N4_7&#45;&#45;N3_7 -->
<g id="edge101" class="edge">
<title>N4_7&#45;&#45;N3_7</title>
<path fill="none" stroke="black" stroke-width="5" d="M587,-352.83C587,-342 587,-328.29 587,-317.41"/>
</g>
<!-- N4_7&#45;&#45;N4_6 -->
<g id="edge68" class="edge">
<title>N4_7&#45;&#45;N4_6</title>
<path fill="none" stroke="black" stroke-width="5" d="M568.83,-371C558,-371 544.29,-371 533.41,-371"/>
</g>
<!-- N5_7 -->
<g id="node73" class="node">
<title>N5_7</title>
<polygon fill="none" stroke="black" points="605,-461 569,-461 569,-425 605,-425 605,-461"/>
</g>
<!-- N4_7&#45;&#45;N5_7 -->
<g id="edge67" class="edge">
<title>N4_7&#45;&#45;N5_7</title>
<path fill="none" stroke="black" stroke-width="5" d="M587,-389.17C587,-400 587,-413.71 587,-424.59"/>
</g>
<!-- N4_8 -->
<g id="node61" class="node">
<title>N4_8</title>
<polygon fill="none" stroke="black" points="677,-389 641,-389 641,-353 677,-353 677,-389"/>
</g>
<!-- N4_8&#45;&#45;N3_8 -->
<g id="edge1" class="edge">
<title>N4_8&#45;&#45;N3_8</title>
<path fill="none" stroke="black" stroke-width="5" d="M659,-352.83C659,-342 659,-328.29 659,-317.41"/>
</g>
<!-- N4_9 -->
<g id="node62" class="node">
<title>N4_9</title>
<polygon fill="none" stroke="black" points="749,-389 713,-389 713,-353 749,-353 749,-389"/>
</g>
<!-- N4_9&#45;&#45;N3_9 -->
<g id="edge57" class="edge">
<title>N4_9&#45;&#45;N3_9</title>
<path fill="none" stroke="black" stroke-width="5" d="M731,-352.83C731,-342 731,-328.29 731,-317.41"/>
</g>
<!-- N5_9 -->
<g id="node75" class="node">
<title>N5_9</title>
<polygon fill="none" stroke="black" points="749,-461 713,-461 713,-425 749,-425 749,-461"/>
</g>
<!-- N4_9&#45;&#45;N5_9 -->
<g id="edge56" class="edge">
<title>N4_9&#45;&#45;N5_9</title>
<path fill="none" stroke="black" stroke-width="5" d="M731,-389.17C731,-400 731,-413.71 731,-424.59"/>
</g>
<!-- N4_10 -->
<g id="node63" class="node">
<title>N4_10</title>
<polygon fill="none" stroke="black" points="821,-389 785,-389 785,-353 821,-353 821,-389"/>
</g>
<!-- N4_12 -->
<g id="node65" class="node">
<title>N4_12</title>
<polygon fill="none" stroke="black" points="965,-389 929,-389 929,-353 965,-353 965,-389"/>
</g>
<!-- N4_12&#45;&#45;N4_11 -->
<g id="edge44" class="edge">
<title>N4_12&#45;&#45;N4_11</title>
<path fill="none" stroke="black" stroke-width="5" d="M928.83,-371C918,-371 904.29,-371 893.41,-371"/>
</g>
<!-- N5_0 -->
<g id="node66" class="node">
<title>N5_0</title>
<polygon fill="none" stroke="black" points="101,-461 65,-461 65,-425 101,-425 101,-461"/>
</g>
<!-- N6_0 -->
<g id="node79" class="node">
<title>N6_0</title>
<polygon fill="none" stroke="black" points="101,-533 65,-533 65,-497 101,-497 101,-533"/>
</g>
<!-- N5_0&#45;&#45;N6_0 -->
<g id="edge24" class="edge">
<title>N5_0&#45;&#45;N6_0</title>
<path fill="none" stroke="black" stroke-width="5" d="M83,-461.17C83,-472 83,-485.71 83,-496.59"/>
</g>
<!-- N5_2 -->
<g id="node68" class="node">
<title>N5_2</title>
<polygon fill="none" stroke="black" points="245,-461 209,-461 209,-425 245,-425 245,-461"/>
</g>
<!-- N6_2 -->
<g id="node81" class="node">
<title>N6_2</title>
<polygon fill="none" stroke="black" points="245,-533 209,-533 209,-497 245,-497 245,-533"/>
</g>
<!-- N5_2&#45;&#45;N6_2 -->
<g id="edge110" class="edge">
<title>N5_2&#45;&#45;N6_2</title>
<path fill="none" stroke="black" stroke-width="5" d="M227,-461.17C227,-472 227,-485.71 227,-496.59"/>
</g>
<!-- N5_3 -->
<g id="node69" class="node">
<title>N5_3</title>
<polygon fill="none" stroke="black" points="317,-461 281,-461 281,-425 317,-425 317,-461"/>
</g>
<!-- N5_3&#45;&#45;N4_3 -->
<g id="edge12" class="edge">
<title>N5_3&#45;&#45;N4_3</title>
<path fill="none" stroke="black" stroke-width="5" d="M299,-424.83C299,-414 299,-400.29 299,-389.41"/>
</g>
<!-- N5_3&#45;&#45;N5_2 -->
<g id="edge75" class="edge">
<title>N5_3&#45;&#45;N5_2</title>
<path fill="none" stroke="black" stroke-width="5" d="M280.83,-443C270,-443 256.29,-443 245.41,-443"/>
</g>
<!-- N5_4 -->
<g id="node70" class="node">
<title>N5_4</title>
<polygon fill="none" stroke="black" points="389,-461 353,-461 353,-425 389,-425 389,-461"/>
</g>
<!-- N5_4&#45;&#45;N5_3 -->
<g id="edge74" class="edge">
<title>N5_4&#45;&#45;N5_3</title>
<path fill="none" stroke="black" stroke-width="5" d="M352.83,-443C342,-443 328.29,-443 317.41,-443"/>
</g>
<!-- N6_4 -->
<g id="node83" class="node">
<title>N6_4</title>
<polygon fill="none" stroke="black" points="389,-533 353,-533 353,-497 389,-497 389,-533"/>
</g>
<!-- N5_4&#45;&#45;N6_4 -->
<g id="edge73" class="edge">
<title>N5_4&#45;&#45;N6_4</title>
<path fill="none" stroke="black" stroke-width="5" d="M371,-461.17C371,-472 371,-485.71 371,-496.59"/>
</g>
<!-- N5_5 -->
<g id="node71" class="node">
<title>N5_5</title>
<polygon fill="none" stroke="black" points="461,-461 425,-461 425,-425 461,-425 461,-461"/>
</g>
<!-- N5_6&#45;&#45;N5_5 -->
<g id="edge70" class="edge">
<title>N5_6&#45;&#45;N5_5</title>
<path fill="none" stroke="black" stroke-width="5" d="M496.83,-443C486,-443 472.29,-443 461.41,-443"/>
</g>
<!-- N5_8 -->
<g id="node74" class="node">
<title>N5_8</title>
<polygon fill="none" stroke="black" points="677,-461 641,-461 641,-425 677,-425 677,-461"/>
</g>
<!-- N5_8&#45;&#45;N5_7 -->
<g id="edge66" class="edge">
<title>N5_8&#45;&#45;N5_7</title>
<path fill="none" stroke="black" stroke-width="5" d="M640.83,-443C630,-443 616.29,-443 605.41,-443"/>
</g>
<!-- N5_9&#45;&#45;N5_8 -->
<g id="edge65" class="edge">
<title>N5_9&#45;&#45;N5_8</title>
<path fill="none" stroke="black" stroke-width="5" d="M712.83,-443C702,-443 688.29,-443 677.41,-443"/>
</g>
<!-- N6_9 -->
<g id="node88" class="node">
<title>N6_9</title>
<polygon fill="none" stroke="black" points="749,-533 713,-533 713,-497 749,-497 749,-533"/>
</g>
<!-- N5_9&#45;&#45;N6_9 -->
<g id="edge107" class="edge">
<title>N5_9&#45;&#45;N6_9</title>
<path fill="none" stroke="black" stroke-width="5" d="M731,-461.17C731,-472 731,-485.71 731,-496.59"/>
</g>
<!-- N5_10 -->
<g id="node76" class="node">
<title>N5_10</title>
<polygon fill="none" stroke="black" points="821,-461 785,-461 785,-425 821,-425 821,-461"/>
</g>
<!-- N5_10&#45;&#45;N4_10 -->
<g id="edge31" class="edge">
<title>N5_10&#45;&#45;N4_10</title>
<path fill="none" stroke="black" stroke-width="5" d="M803,-424.83C803,-414 803,-400.29 803,-389.41"/>
</g>
<!-- N5_10&#45;&#45;N5_9 -->
<g id="edge55" class="edge">
<title>N5_10&#45;&#45;N5_9</title>
<path fill="none" stroke="black" stroke-width="5" d="M784.83,-443C774,-443 760.29,-443 749.41,-443"/>
</g>
<!-- N5_11 -->
<g id="node77" class="node">
<title>N5_11</title>
<polygon fill="none" stroke="black" points="893,-461 857,-461 857,-425 893,-425 893,-461"/>
</g>
<!-- N5_11&#45;&#45;N5_10 -->
<g id="edge54" class="edge">
<title>N5_11&#45;&#45;N5_10</title>
<path fill="none" stroke="black" stroke-width="5" d="M856.83,-443C846,-443 832.29,-443 821.41,-443"/>
</g>
<!-- N5_12 -->
<g id="node78" class="node">
<title>N5_12</title>
<polygon fill="none" stroke="black" points="965,-461 929,-461 929,-425 965,-425 965,-461"/>
</g>
<!-- N5_12&#45;&#45;N4_12 -->
<g id="edge45" class="edge">
<title>N5_12&#45;&#45;N4_12</title>
<path fill="none" stroke="black" stroke-width="5" d="M947,-424.83C947,-414 947,-400.29 947,-389.41"/>
</g>
<!-- N5_12&#45;&#45;N5_11 -->
<g id="edge53" class="edge">
<title>N5_12&#45;&#45;N5_11</title>
<path fill="none" stroke="black" stroke-width="5" d="M928.83,-443C918,-443 904.29,-443 893.41,-443"/>
</g>
<!-- N6_12 -->
<g id="node91" class="node">
<title>N6_12</title>
<polygon fill="none" stroke="black" points="965,-533 929,-533 929,-497 965,-497 965,-533"/>
</g>
<!-- N5_12&#45;&#45;N6_12 -->
<g id="edge46" class="edge">
<title>N5_12&#45;&#45;N6_12</title>
<path fill="none" stroke="black" stroke-width="5" d="M947,-461.17C947,-472 947,-485.71 947,-496.59"/>
</g>
<!-- N6_1 -->
<g id="node80" class="node">
<title>N6_1</title>
<polygon fill="none" stroke="black" points="173,-533 137,-533 137,-497 173,-497 173,-533"/>
</g>
<!-- N6_2&#45;&#45;N6_1 -->
<g id="edge111" class="edge">
<title>N6_2&#45;&#45;N6_1</title>
<path fill="none" stroke="black" stroke-width="5" d="M208.83,-515C198,-515 184.29,-515 173.41,-515"/>
</g>
<!-- N6_3 -->
<g id="node82" class="node">
<title>N6_3</title>
<polygon fill="none" stroke="black" points="317,-533 281,-533 281,-497 317,-497 317,-533"/>
</g>
<!-- N6_4&#45;&#45;N6_3 -->
<g id="edge23" class="edge">
<title>N6_4&#45;&#45;N6_3</title>
<path fill="none" stroke="black" stroke-width="5" d="M352.83,-515C342,-515 328.29,-515 317.41,-515"/>
</g>
<!-- N6_5 -->
<g id="node84" class="node">
<title>N6_5</title>
<polygon fill="none" stroke="black" points="461,-533 425,-533 425,-497 461,-497 461,-533"/>
</g>
<!-- N6_5&#45;&#45;N5_5 -->
<g id="edge71" class="edge">
<title>N6_5&#45;&#45;N5_5</title>
<path fill="none" stroke="black" stroke-width="5" d="M443,-496.83C443,-486 443,-472.29 443,-461.41"/>
</g>
<!-- N6_5&#45;&#45;N6_4 -->
<g id="edge72" class="edge">
<title>N6_5&#45;&#45;N6_4</title>
<path fill="none" stroke="black" stroke-width="5" d="M424.83,-515C414,-515 400.29,-515 389.41,-515"/>
</g>
<!-- N7_5 -->
<g id="node97" class="node">
<title>N7_5</title>
<polygon fill="none" stroke="black" points="461,-605 425,-605 425,-569 461,-569 461,-605"/>
</g>
<!-- N6_5&#45;&#45;N7_5 -->
<g id="edge85" class="edge">
<title>N6_5&#45;&#45;N7_5</title>
<path fill="none" stroke="black" stroke-width="5" d="M443,-533.17C443,-544 443,-557.71 443,-568.59"/>
</g>
<!-- N6_6 -->
<g id="node85" class="node">
<title>N6_6</title>
<polygon fill="none" stroke="black" points="533,-533 497,-533 497,-497 533,-497 533,-533"/>
</g>
<!-- N6_6&#45;&#45;N6_5 -->
<g id="edge89" class="edge">
<title>N6_6&#45;&#45;N6_5</title>
<path fill="none" stroke="black" stroke-width="5" d="M496.83,-515C486,-515 472.29,-515 461.41,-515"/>
</g>
<!-- N7_6 -->
<g id="node98" class="node">
<title>N7_6</title>
<polygon fill="none" stroke="black" points="533,-605 497,-605 497,-569 533,-569 533,-605"/>
</g>
<!-- N6_6&#45;&#45;N7_6 -->
<g id="edge90" class="edge">
<title>N6_6&#45;&#45;N7_6</title>
<path fill="none" stroke="black" stroke-width="5" d="M515,-533.17C515,-544 515,-557.71 515,-568.59"/>
</g>
<!-- N6_7 -->
<g id="node86" class="node">
<title>N6_7</title>
<polygon fill="none" stroke="black" points="605,-533 569,-533 569,-497 605,-497 605,-533"/>
</g>
<!-- N6_8 -->
<g id="node87" class="node">
<title>N6_8</title>
<polygon fill="none" stroke="black" points="677,-533 641,-533 641,-497 677,-497 677,-533"/>
</g>
<!-- N6_7&#45;&#45;N6_8 -->
<g id="edge109" class="edge">
<title>N6_7&#45;&#45;N6_8</title>
<path fill="none" stroke="black" stroke-width="5" d="M605.17,-515C616,-515 629.71,-515 640.59,-515"/>
</g>
<!-- N6_9&#45;&#45;N6_8 -->
<g id="edge108" class="edge">
<title>N6_9&#45;&#45;N6_8</title>
<path fill="none" stroke="black" stroke-width="5" d="M712.83,-515C702,-515 688.29,-515 677.41,-515"/>
</g>
<!-- N6_10 -->
<g id="node89" class="node">
<title>N6_10</title>
<polygon fill="none" stroke="black" points="821,-533 785,-533 785,-497 821,-497 821,-533"/>
</g>
<!-- N6_10&#45;&#45;N6_9 -->
<g id="edge11" class="edge">
<title>N6_10&#45;&#45;N6_9</title>
<path fill="none" stroke="black" stroke-width="5" d="M784.83,-515C774,-515 760.29,-515 749.41,-515"/>
</g>
<!-- N6_11 -->
<g id="node90" class="node">
<title>N6_11</title>
<polygon fill="none" stroke="black" points="893,-533 857,-533 857,-497 893,-497 893,-533"/>
</g>
<!-- N6_12&#45;&#45;N6_11 -->
<g id="edge14" class="edge">
<title>N6_12&#45;&#45;N6_11</title>
<path fill="none" stroke="black" stroke-width="5" d="M928.83,-515C918,-515 904.29,-515 893.41,-515"/>
</g>
<!-- A5 -->
<g id="node115" class="node">
<title>A5</title>
<ellipse fill="none" stroke="black" cx="1019" cy="-515" rx="11" ry="11"/>
<text text-anchor="middle" x="1019" y="-511.3" font-family="Times,serif" font-size="14.00">5</text>
</g>
<!-- N6_12&#45;&#45;A5 -->
<g id="edge47" class="edge">
<title>N6_12&#45;&#45;A5</title>
<path fill="none" stroke="black" stroke-width="2" d="M965.17,-515C978.5,-515 996.19,-515 1007.59,-515"/>
</g>
<!-- N7_0 -->
<g id="node92" class="node">
<title>N7_0</title>
<polygon fill="none" stroke="black" points="101,-605 65,-605 65,-569 101,-569 101,-605"/>
</g>
<!-- N7_0&#45;&#45;N6_0 -->
<g id="edge49" class="edge">
<title>N7_0&#45;&#45;N6_0</title>
<path fill="none" stroke="black" stroke-width="5" d="M83,-568.83C83,-558 83,-544.29 83,-533.41"/>
</g>
<!-- A6 -->
<g id="node117" class="node">
<title>A6</title>
<ellipse fill="none" stroke="black" cx="11" cy="-587" rx="11" ry="11"/>
<text text-anchor="middle" x="11" y="-583.3" font-family="Times,serif" font-size="14.00">6</text>
</g>
<!-- N7_0&#45;&#45;A6 -->
<g id="edge50" class="edge">
<title>N7_0&#45;&#45;A6</title>
<path fill="none" stroke="black" stroke-width="2" d="M64.83,-587C51.5,-587 33.81,-587 22.41,-587"/>
</g>
<!-- N7_1 -->
<g id="node93" class="node">
<title>N7_1</title>
<polygon fill="none" stroke="black" points="173,-605 137,-605 137,-569 173,-569 173,-605"/>
</g>
<!-- A1 -->
<g id="node107" class="node">
<title>A1</title>
<ellipse fill="none" stroke="black" cx="155" cy="-659" rx="11" ry="11"/>
<text text-anchor="middle" x="155" y="-655.3" font-family="Times,serif" font-size="14.00">1</text>
</g>
<!-- N7_1&#45;&#45;A1 -->
<g id="edge6" class="edge">
<title>N7_1&#45;&#45;A1</title>
<path fill="none" stroke="black" stroke-width="2" d="M155,-605.17C155,-618.5 155,-636.19 155,-647.59"/>
</g>
<!-- N7_2 -->
<g id="node94" class="node">
<title>N7_2</title>
<polygon fill="none" stroke="black" points="245,-605 209,-605 209,-569 245,-569 245,-605"/>
</g>
<!-- A0 -->
<g id="node105" class="node">
<title>A0</title>
<ellipse fill="none" stroke="black" cx="227" cy="-659" rx="11" ry="11"/>
<text text-anchor="middle" x="227" y="-655.3" font-family="Times,serif" font-size="14.00">0</text>
</g>
<!-- N7_2&#45;&#45;A0 -->
<g id="edge3" class="edge">
<title>N7_2&#45;&#45;A0</title>
<path fill="none" stroke="black" stroke-width="2" d="M227,-605.17C227,-618.5 227,-636.19 227,-647.59"/>
</g>
<!-- N7_3 -->
<g id="node95" class="node">
<title>N7_3</title>
<polygon fill="none" stroke="black" points="317,-605 281,-605 281,-569 317,-569 317,-605"/>
</g>
<!-- N7_4 -->
<g id="node96" class="node">
<title>N7_4</title>
<polygon fill="none" stroke="black" points="389,-605 353,-605 353,-569 389,-569 389,-605"/>
</g>
<!-- N7_4&#45;&#45;N7_3 -->
<g id="edge104" class="edge">
<title>N7_4&#45;&#45;N7_3</title>
<path fill="none" stroke="black" stroke-width="5" d="M352.83,-587C342,-587 328.29,-587 317.41,-587"/>
</g>
<!-- A8 -->
<g id="node121" class="node">
<title>A8</title>
<ellipse fill="none" stroke="black" cx="515" cy="-659" rx="11" ry="11"/>
<text text-anchor="middle" x="515" y="-655.3" font-family="Times,serif" font-size="14.00">8</text>
</g>
<!-- N7_6&#45;&#45;A8 -->
<g id="edge91" class="edge">
<title>N7_6&#45;&#45;A8</title>
<path fill="none" stroke="black" stroke-width="2" d="M515,-605.17C515,-618.5 515,-636.19 515,-647.59"/>
</g>
<!-- N7_7 -->
<g id="node99" class="node">
<title>N7_7</title>
<polygon fill="none" stroke="black" points="605,-605 569,-605 569,-569 605,-569 605,-605"/>
</g>
<!-- A9 -->
<g id="node123" class="node">
<title>A9</title>
<ellipse fill="none" stroke="black" cx="587" cy="-659" rx="11" ry="11"/>
<text text-anchor="middle" x="587" y="-655.3" font-family="Times,serif" font-size="14.00">9</text>
</g>
<!-- N7_7&#45;&#45;A9 -->
<g id="edge94" class="edge">
<title>N7_7&#45;&#45;A9</title>
<path fill="none" stroke="black" stroke-width="2" d="M587,-605.17C587,-618.5 587,-636.19 587,-647.59"/>
</g>
<!-- N7_8 -->
<g id="node100" class="node">
<title>N7_8</title>
<polygon fill="none" stroke="black" points="677,-605 641,-605 641,-569 677,-569 677,-605"/>
</g>
<!-- N7_8&#45;&#45;N6_8 -->
<g id="edge5" class="edge">
<title>N7_8&#45;&#45;N6_8</title>
<path fill="none" stroke="black" stroke-width="5" d="M659,-568.83C659,-558 659,-544.29 659,-533.41"/>
</g>
<!-- A3 -->
<g id="node111" class="node">
<title>A3</title>
<ellipse fill="none" stroke="black" cx="659" cy="-659" rx="11" ry="11"/>
<text text-anchor="middle" x="659" y="-655.3" font-family="Times,serif" font-size="14.00">3</text>
</g>
<!-- N7_8&#45;&#45;A3 -->
<g id="edge26" class="edge">
<title>N7_8&#45;&#45;A3</title>
<path fill="none" stroke="black" stroke-width="2" d="M659,-605.17C659,-618.5 659,-636.19 659,-647.59"/>
</g>
<!-- N7_9 -->
<g id="node101" class="node">
<title>N7_9</title>
<polygon fill="none" stroke="black" points="749,-605 713,-605 713,-569 749,-569 749,-605"/>
</g>
<!-- A2 -->
<g id="node109" class="node">
<title>A2</title>
<ellipse fill="none" stroke="black" cx="731" cy="-659" rx="11" ry="11"/>
<text text-anchor="middle" x="731" y="-655.3" font-family="Times,serif" font-size="14.00">2</text>
</g>
<!-- N7_9&#45;&#45;A2 -->
<g id="edge19" class="edge">
<title>N7_9&#45;&#45;A2</title>
<path fill="none" stroke="black" stroke-width="2" d="M731,-605.17C731,-618.5 731,-636.19 731,-647.59"/>
</g>
<!-- N7_10 -->
<g id="node102" class="node">
<title>N7_10</title>
<polygon fill="none" stroke="black" points="821,-605 785,-605 785,-569 821,-569 821,-605"/>
</g>
<!-- N7_10&#45;&#45;N7_9 -->
<g id="edge62" class="edge">
<title>N7_10&#45;&#45;N7_9</title>
<path fill="none" stroke="black" stroke-width="5" d="M784.83,-587C774,-587 760.29,-587 749.41,-587"/>
</g>
<!-- N7_11 -->
<g id="node103" class="node">
<title>N7_11</title>
<polygon fill="none" stroke="black" points="893,-605 857,-605 857,-569 893,-569 893,-605"/>
</g>
<!-- N7_10&#45;&#45;N7_11 -->
<g id="edge61" class="edge">
<title>N7_10&#45;&#45;N7_11</title>
<path fill="none" stroke="black" stroke-width="5" d="M821.17,-587C832,-587 845.71,-587 856.59,-587"/>
</g>
<!-- N7_12 -->
<g id="node104" class="node">
<title>N7_12</title>
<polygon fill="none" stroke="black" points="965,-605 929,-605 929,-569 965,-569 965,-605"/>
</g>
<!-- N7_12&#45;&#45;N7_11 -->
<g id="edge52" class="edge">
<title>N7_12&#45;&#45;N7_11</title>
<path fill="none" stroke="black" stroke-width="5" d="M928.83,-587C918,-587 904.29,-587 893.41,-587"/>
</g>
<!-- B0 -->
<g id="node106" class="node">
<title>B0</title>
<ellipse fill="none" stroke="black" cx="227" cy="-11" rx="11" ry="11"/>
<text text-anchor="middle" x="227" y="-7.3" font-family="Times,serif" font-size="14.00">0</text>
</g>
<!-- B0&#45;&#45;N0_2 -->
<g id="edge4" class="edge">
<title>B0&#45;&#45;N0_2</title>
<path fill="none" stroke="black" stroke-width="2" d="M227,-22.25C227,-33.64 227,-51.44 227,-64.83"/>
</g>
<!-- B1 -->
<g id="node108" class="node">
<title>B1</title>
<ellipse fill="none" stroke="black" cx="155" cy="-11" rx="11" ry="11"/>
<text text-anchor="middle" x="155" y="-7.3" font-family="Times,serif" font-size="14.00">1</text>
</g>
<!-- B1&#45;&#45;N0_1 -->
<g id="edge7" class="edge">
<title>B1&#45;&#45;N0_1</title>
<path fill="none" stroke="black" stroke-width="2" d="M155,-22.25C155,-33.64 155,-51.44 155,-64.83"/>
</g>
<!-- B2 -->
<g id="node110" class="node">
<title>B2</title>
<ellipse fill="none" stroke="black" cx="731" cy="-11" rx="11" ry="11"/>
<text text-anchor="middle" x="731" y="-7.3" font-family="Times,serif" font-size="14.00">2</text>
</g>
<!-- B2&#45;&#45;N0_9 -->
<g id="edge20" class="edge">
<title>B2&#45;&#45;N0_9</title>
<path fill="none" stroke="black" stroke-width="2" d="M731,-22.25C731,-33.64 731,-51.44 731,-64.83"/>
</g>
<!-- B3 -->
<g id="node112" class="node">
<title>B3</title>
<ellipse fill="none" stroke="black" cx="659" cy="-11" rx="11" ry="11"/>
<text text-anchor="middle" x="659" y="-7.3" font-family="Times,serif" font-size="14.00">3</text>
</g>
<!-- B3&#45;&#45;N0_8 -->
<g id="edge27" class="edge">
<title>B3&#45;&#45;N0_8</title>
<path fill="none" stroke="black" stroke-width="2" d="M659,-22.25C659,-33.64 659,-51.44 659,-64.83"/>
</g>
<!-- B4 -->
<g id="node114" class="node">
<title>B4</title>
<ellipse fill="none" stroke="black" cx="1019" cy="-155" rx="11" ry="11"/>
<text text-anchor="middle" x="1019" y="-151.3" font-family="Times,serif" font-size="14.00">4</text>
</g>
<!-- B4&#45;&#45;N1_12 -->
<g id="edge37" class="edge">
<title>B4&#45;&#45;N1_12</title>
<path fill="none" stroke="black" stroke-width="2" d="M1007.75,-155C996.36,-155 978.56,-155 965.17,-155"/>
</g>
<!-- B5 -->
<g id="node116" class="node">
<title>B5</title>
<ellipse fill="none" stroke="black" cx="11" cy="-515" rx="11" ry="11"/>
<text text-anchor="middle" x="11" y="-511.3" font-family="Times,serif" font-size="14.00">5</text>
</g>
<!-- B5&#45;&#45;N6_0 -->
<g id="edge48" class="edge">
<title>B5&#45;&#45;N6_0</title>
<path fill="none" stroke="black" stroke-width="2" d="M22.25,-515C33.64,-515 51.44,-515 64.83,-515"/>
</g>
<!-- B6 -->
<g id="node118" class="node">
<title>B6</title>
<ellipse fill="none" stroke="black" cx="1019" cy="-587" rx="11" ry="11"/>
<text text-anchor="middle" x="1019" y="-583.3" font-family="Times,serif" font-size="14.00">6</text>
</g>
<!-- B6&#45;&#45;N7_12 -->
<g id="edge51" class="edge">
<title>B6&#45;&#45;N7_12</title>
<path fill="none" stroke="black" stroke-width="2" d="M1007.75,-587C996.36,-587 978.56,-587 965.17,-587"/>
</g>
<!-- B7 -->
<g id="node120" class="node">
<title>B7</title>
<ellipse fill="none" stroke="black" cx="443" cy="-659" rx="11" ry="11"/>
<text text-anchor="middle" x="443" y="-655.3" font-family="Times,serif" font-size="14.00">7</text>
</g>
<!-- B7&#45;&#45;N7_5 -->
<g id="edge87" class="edge">
<title>B7&#45;&#45;N7_5</title>
<path fill="none" stroke="black" stroke-width="2" d="M443,-647.75C443,-636.36 443,-618.56 443,-605.17"/>
</g>
<!-- B8 -->
<g id="node122" class="node">
<title>B8</title>
<ellipse fill="none" stroke="black" cx="515" cy="-11" rx="11" ry="11"/>
<text text-anchor="middle" x="515" y="-7.3" font-family="Times,serif" font-size="14.00">8</text>
</g>
<!-- B8&#45;&#45;N0_6 -->
<g id="edge92" class="edge">
<title>B8&#45;&#45;N0_6</title>
<path fill="none" stroke="black" stroke-width="2" d="M515,-22.25C515,-33.64 515,-51.44 515,-64.83"/>
</g>
<!-- B9 -->
<g id="node124" class="node">
<title>B9</title>
<ellipse fill="none" stroke="black" cx="587" cy="-11" rx="11" ry="11"/>
<text text-anchor="middle" x="587" y="-7.3" font-family="Times,serif" font-size="14.00">9</text>
</g>
<!-- B9&#45;&#45;N0_7 -->
<g id="edge95" class="edge">
<title>B9&#45;&#45;N0_7</title>
<path fill="none" stroke="black" stroke-width="2" d="M587,-22.25C587,-33.64 587,-51.44 587,-64.83"/>
</g>
<!-- B10 -->
<g id="node126" class="node">
<title>B10</title>
<ellipse fill="none" stroke="black" cx="299" cy="-659" rx="11" ry="11"/>
<text text-anchor="middle" x="299" y="-655.3" font-family="Times,serif" font-size="14.00">10</text>
</g>
<!-- B10&#45;&#45;N7_3 -->
<g id="edge103" class="edge">
<title>B10&#45;&#45;N7_3</title>
<path fill="none" stroke="black" stroke-width="2" d="M299,-647.75C299,-636.36 299,-618.56 299,-605.17"/>
</g>
</g>
</svg>
