<?xml version="1.0" encoding="UTF-8" standalone="no"?>
<!DOCTYPE svg PUBLIC "-//W3C//DTD SVG 1.1//EN"
 "http://www.w3.org/Graphics/SVG/1.1/DTD/svg11.dtd">
<!-- Generated by graphviz version 2.43.0 (0)
 -->
<!-- Title: %3 Pages: 1 -->
<svg width="908pt" height="548pt"
 viewBox="0.00 0.00 908.00 548.00" xmlns="http://www.w3.org/2000/svg" xmlns:xlink="http://www.w3.org/1999/xlink">
<g id="graph0" class="graph" transform="scale(1 1) rotate(0) translate(4 544)">
<title>%3</title>
<polygon fill="white" stroke="transparent" points="-4,4 -4,-544 904,-544 904,4 -4,4"/>
<!-- N0_0 -->
<g id="node1" class="node">
<title>N0_0</title>
<polygon fill="none" stroke="black" points="36,-36 0,-36 0,0 36,0 36,-36"/>
</g>
<!-- N0_1 -->
<g id="node2" class="node">
<title>N0_1</title>
<polygon fill="none" stroke="black" points="108,-36 72,-36 72,0 108,0 108,-36"/>
</g>
<!-- N0_0&#45;&#45;N0_1 -->
<g id="edge43" class="edge">
<title>N0_0&#45;&#45;N0_1</title>
<path fill="none" stroke="black" stroke-width="5" d="M36.17,-18C47,-18 60.71,-18 71.59,-18"/>
</g>
<!-- N1_0 -->
<g id="node14" class="node">
<title>N1_0</title>
<polygon fill="none" stroke="black" points="36,-108 0,-108 0,-72 36,-72 36,-108"/>
</g>
<!-- N0_0&#45;&#45;N1_0 -->
<g id="edge26" class="edge">
<title>N0_0&#45;&#45;N1_0</title>
<path fill="none" stroke="black" stroke-width="5" d="M18,-36.17C18,-47 18,-60.71 18,-71.59"/>
</g>
<!-- N0_2 -->
<g id="node3" class="node">
<title>N0_2</title>
<polygon fill="none" stroke="black" points="180,-36 144,-36 144,0 180,0 180,-36"/>
</g>
<!-- N0_3 -->
<g id="node4" class="node">
<title>N0_3</title>
<polygon fill="none" stroke="black" points="252,-36 216,-36 216,0 252,0 252,-36"/>
</g>
<!-- N0_3&#45;&#45;N0_2 -->
<g id="edge38" class="edge">
<title>N0_3&#45;&#45;N0_2</title>
<path fill="none" stroke="black" stroke-width="5" d="M215.83,-18C205,-18 191.29,-18 180.41,-18"/>
</g>
<!-- N0_4 -->
<g id="node5" class="node">
<title>N0_4</title>
<polygon fill="none" stroke="black" points="324,-36 288,-36 288,0 324,0 324,-36"/>
</g>
<!-- N1_4 -->
<g id="node18" class="node">
<title>N1_4</title>
<polygon fill="none" stroke="black" points="324,-108 288,-108 288,-72 324,-72 324,-108"/>
</g>
<!-- N0_4&#45;&#45;N1_4 -->
<g id="edge47" class="edge">
<title>N0_4&#45;&#45;N1_4</title>
<path fill="none" stroke="black" stroke-width="5" d="M306,-36.17C306,-47 306,-60.71 306,-71.59"/>
</g>
<!-- N0_5 -->
<g id="node6" class="node">
<title>N0_5</title>
<polygon fill="none" stroke="black" points="396,-36 360,-36 360,0 396,0 396,-36"/>
</g>
<!-- N0_6 -->
<g id="node7" class="node">
<title>N0_6</title>
<polygon fill="none" stroke="black" points="468,-36 432,-36 432,0 468,0 468,-36"/>
</g>
<!-- N0_6&#45;&#45;N0_5 -->
<g id="edge32" class="edge">
<title>N0_6&#45;&#45;N0_5</title>
<path fill="none" stroke="black" stroke-width="5" d="M431.83,-18C421,-18 407.29,-18 396.41,-18"/>
</g>
<!-- N1_6 -->
<g id="node20" class="node">
<title>N1_6</title>
<polygon fill="none" stroke="black" points="468,-108 432,-108 432,-72 468,-72 468,-108"/>
</g>
<!-- N0_6&#45;&#45;N1_6 -->
<g id="edge31" class="edge">
<title>N0_6&#45;&#45;N1_6</title>
<path fill="none" stroke="black" stroke-width="5" d="M450,-36.17C450,-47 450,-60.71 450,-71.59"/>
</g>
<!-- N0_7 -->
<g id="node8" class="node">
<title>N0_7</title>
<polygon fill="none" stroke="black" points="540,-36 504,-36 504,0 540,0 540,-36"/>
</g>
<!-- N1_7 -->
<g id="node21" class="node">
<title>N1_7</title>
<polygon fill="none" stroke="black" points="540,-108 504,-108 504,-72 540,-72 540,-108"/>
</g>
<!-- N0_7&#45;&#45;N1_7 -->
<g id="edge52" class="edge">
<title>N0_7&#45;&#45;N1_7</title>
<path fill="none" stroke="black" stroke-width="5" d="M522,-36.17C522,-47 522,-60.71 522,-71.59"/>
</g>
<!-- N0_8 -->
<g id="node9" class="node">
<title>N0_8</title>
<polygon fill="none" stroke="black" points="612,-36 576,-36 576,0 612,0 612,-36"/>
</g>
<!-- N0_8&#45;&#45;N0_7 -->
<g id="edge54" class="edge">
<title>N0_8&#45;&#45;N0_7</title>
<path fill="none" stroke="black" stroke-width="5" d="M575.83,-18C565,-18 551.29,-18 540.41,-18"/>
</g>
<!-- N0_9 -->
<g id="node10" class="node">
<title>N0_9</title>
<polygon fill="none" stroke="black" points="684,-36 648,-36 648,0 684,0 684,-36"/>
</g>
<!-- N0_8&#45;&#45;N0_9 -->
<g id="edge55" class="edge">
<title>N0_8&#45;&#45;N0_9</title>
<path fill="none" stroke="black" stroke-width="5" d="M612.17,-18C623,-18 636.71,-18 647.59,-18"/>
</g>
<!-- N0_10 -->
<g id="node11" class="node">
<title>N0_10</title>
<polygon fill="none" stroke="black" points="756,-36 720,-36 720,0 756,0 756,-36"/>
</g>
<!-- N0_11 -->
<g id="node12" class="node">
<title>N0_11</title>
<polygon fill="none" stroke="black" points="828,-36 792,-36 792,0 828,0 828,-36"/>
</g>
<!-- N0_12 -->
<g id="node13" class="node">
<title>N0_12</title>
<polygon fill="none" stroke="black" points="900,-36 864,-36 864,0 900,0 900,-36"/>
</g>
<!-- N1_12 -->
<g id="node26" class="node">
<title>N1_12</title>
<polygon fill="none" stroke="black" points="900,-108 864,-108 864,-72 900,-72 900,-108"/>
</g>
<!-- N0_12&#45;&#45;N1_12 -->
<g id="edge29" class="edge">
<title>N0_12&#45;&#45;N1_12</title>
<path fill="none" stroke="black" stroke-width="5" d="M882,-36.17C882,-47 882,-60.71 882,-71.59"/>
</g>
<!-- N2_0 -->
<g id="node27" class="node">
<title>N2_0</title>
<polygon fill="none" stroke="black" points="36,-180 0,-180 0,-144 36,-144 36,-180"/>
</g>
<!-- N1_0&#45;&#45;N2_0 -->
<g id="edge28" class="edge">
<title>N1_0&#45;&#45;N2_0</title>
<path fill="none" stroke="black" stroke-width="5" d="M18,-108.17C18,-119 18,-132.71 18,-143.59"/>
</g>
<!-- N1_1 -->
<g id="node15" class="node">
<title>N1_1</title>
<polygon fill="none" stroke="black" points="108,-108 72,-108 72,-72 108,-72 108,-108"/>
</g>
<!-- N1_1&#45;&#45;N1_0 -->
<g id="edge25" class="edge">
<title>N1_1&#45;&#45;N1_0</title>
<path fill="none" stroke="black" stroke-width="5" d="M71.83,-90C61,-90 47.29,-90 36.41,-90"/>
</g>
<!-- N2_1 -->
<g id="node28" class="node">
<title>N2_1</title>
<polygon fill="none" stroke="black" points="108,-180 72,-180 72,-144 108,-144 108,-180"/>
</g>
<!-- N1_1&#45;&#45;N2_1 -->
<g id="edge41" class="edge">
<title>N1_1&#45;&#45;N2_1</title>
<path fill="none" stroke="black" stroke-width="5" d="M90,-108.17C90,-119 90,-132.71 90,-143.59"/>
</g>
<!-- N1_2 -->
<g id="node16" class="node">
<title>N1_2</title>
<polygon fill="none" stroke="black" points="180,-108 144,-108 144,-72 180,-72 180,-108"/>
</g>
<!-- N1_2&#45;&#45;N0_2 -->
<g id="edge33" class="edge">
<title>N1_2&#45;&#45;N0_2</title>
<path fill="none" stroke="black" stroke-width="5" d="M162,-71.83C162,-61 162,-47.29 162,-36.41"/>
</g>
<!-- N1_2&#45;&#45;N1_1 -->
<g id="edge24" class="edge">
<title>N1_2&#45;&#45;N1_1</title>
<path fill="none" stroke="black" stroke-width="5" d="M143.83,-90C133,-90 119.29,-90 108.41,-90"/>
</g>
<!-- N1_3 -->
<g id="node17" class="node">
<title>N1_3</title>
<polygon fill="none" stroke="black" points="252,-108 216,-108 216,-72 252,-72 252,-108"/>
</g>
<!-- N1_3&#45;&#45;N1_2 -->
<g id="edge23" class="edge">
<title>N1_3&#45;&#45;N1_2</title>
<path fill="none" stroke="black" stroke-width="5" d="M215.83,-90C205,-90 191.29,-90 180.41,-90"/>
</g>
<!-- N2_3 -->
<g id="node30" class="node">
<title>N2_3</title>
<polygon fill="none" stroke="black" points="252,-180 216,-180 216,-144 252,-144 252,-180"/>
</g>
<!-- N1_3&#45;&#45;N2_3 -->
<g id="edge22" class="edge">
<title>N1_3&#45;&#45;N2_3</title>
<path fill="none" stroke="black" stroke-width="5" d="M234,-108.17C234,-119 234,-132.71 234,-143.59"/>
</g>
<!-- N1_5 -->
<g id="node19" class="node">
<title>N1_5</title>
<polygon fill="none" stroke="black" points="396,-108 360,-108 360,-72 396,-72 396,-108"/>
</g>
<!-- N1_5&#45;&#45;N1_4 -->
<g id="edge90" class="edge">
<title>N1_5&#45;&#45;N1_4</title>
<path fill="none" stroke="black" stroke-width="5" d="M359.83,-90C349,-90 335.29,-90 324.41,-90"/>
</g>
<!-- N1_6&#45;&#45;N1_5 -->
<g id="edge86" class="edge">
<title>N1_6&#45;&#45;N1_5</title>
<path fill="none" stroke="black" stroke-width="5" d="M431.83,-90C421,-90 407.29,-90 396.41,-90"/>
</g>
<!-- N1_7&#45;&#45;N1_6 -->
<g id="edge53" class="edge">
<title>N1_7&#45;&#45;N1_6</title>
<path fill="none" stroke="black" stroke-width="5" d="M503.83,-90C493,-90 479.29,-90 468.41,-90"/>
</g>
<!-- N1_8 -->
<g id="node22" class="node">
<title>N1_8</title>
<polygon fill="none" stroke="black" points="612,-108 576,-108 576,-72 612,-72 612,-108"/>
</g>
<!-- N1_8&#45;&#45;N1_7 -->
<g id="edge56" class="edge">
<title>N1_8&#45;&#45;N1_7</title>
<path fill="none" stroke="black" stroke-width="5" d="M575.83,-90C565,-90 551.29,-90 540.41,-90"/>
</g>
<!-- N2_8 -->
<g id="node35" class="node">
<title>N2_8</title>
<polygon fill="none" stroke="black" points="612,-180 576,-180 576,-144 612,-144 612,-180"/>
</g>
<!-- N1_8&#45;&#45;N2_8 -->
<g id="edge57" class="edge">
<title>N1_8&#45;&#45;N2_8</title>
<path fill="none" stroke="black" stroke-width="5" d="M594,-108.17C594,-119 594,-132.71 594,-143.59"/>
</g>
<!-- N1_9 -->
<g id="node23" class="node">
<title>N1_9</title>
<polygon fill="none" stroke="black" points="684,-108 648,-108 648,-72 684,-72 684,-108"/>
</g>
<!-- N1_9&#45;&#45;N1_8 -->
<g id="edge8" class="edge">
<title>N1_9&#45;&#45;N1_8</title>
<path fill="none" stroke="black" stroke-width="5" d="M647.83,-90C637,-90 623.29,-90 612.41,-90"/>
</g>
<!-- N1_10 -->
<g id="node24" class="node">
<title>N1_10</title>
<polygon fill="none" stroke="black" points="756,-108 720,-108 720,-72 756,-72 756,-108"/>
</g>
<!-- N1_10&#45;&#45;N0_10 -->
<g id="edge37" class="edge">
<title>N1_10&#45;&#45;N0_10</title>
<path fill="none" stroke="black" stroke-width="5" d="M738,-71.83C738,-61 738,-47.29 738,-36.41"/>
</g>
<!-- N1_10&#45;&#45;N1_9 -->
<g id="edge9" class="edge">
<title>N1_10&#45;&#45;N1_9</title>
<path fill="none" stroke="black" stroke-width="5" d="M719.83,-90C709,-90 695.29,-90 684.41,-90"/>
</g>
<!-- N1_11 -->
<g id="node25" class="node">
<title>N1_11</title>
<polygon fill="none" stroke="black" points="828,-108 792,-108 792,-72 828,-72 828,-108"/>
</g>
<!-- N1_11&#45;&#45;N0_11 -->
<g id="edge89" class="edge">
<title>N1_11&#45;&#45;N0_11</title>
<path fill="none" stroke="black" stroke-width="5" d="M810,-71.83C810,-61 810,-47.29 810,-36.41"/>
</g>
<!-- N1_11&#45;&#45;N1_12 -->
<g id="edge88" class="edge">
<title>N1_11&#45;&#45;N1_12</title>
<path fill="none" stroke="black" stroke-width="5" d="M828.17,-90C839,-90 852.71,-90 863.59,-90"/>
</g>
<!-- N2_2 -->
<g id="node29" class="node">
<title>N2_2</title>
<polygon fill="none" stroke="black" points="180,-180 144,-180 144,-144 180,-144 180,-180"/>
</g>
<!-- N2_2&#45;&#45;N2_1 -->
<g id="edge42" class="edge">
<title>N2_2&#45;&#45;N2_1</title>
<path fill="none" stroke="black" stroke-width="5" d="M143.83,-162C133,-162 119.29,-162 108.41,-162"/>
</g>
<!-- N3_3 -->
<g id="node43" class="node">
<title>N3_3</title>
<polygon fill="none" stroke="black" points="252,-252 216,-252 216,-216 252,-216 252,-252"/>
</g>
<!-- N2_3&#45;&#45;N3_3 -->
<g id="edge21" class="edge">
<title>N2_3&#45;&#45;N3_3</title>
<path fill="none" stroke="black" stroke-width="5" d="M234,-180.17C234,-191 234,-204.71 234,-215.59"/>
</g>
<!-- N2_4 -->
<g id="node31" class="node">
<title>N2_4</title>
<polygon fill="none" stroke="black" points="324,-180 288,-180 288,-144 324,-144 324,-180"/>
</g>
<!-- N2_4&#45;&#45;N1_4 -->
<g id="edge91" class="edge">
<title>N2_4&#45;&#45;N1_4</title>
<path fill="none" stroke="black" stroke-width="5" d="M306,-143.83C306,-133 306,-119.29 306,-108.41"/>
</g>
<!-- N3_4 -->
<g id="node44" class="node">
<title>N3_4</title>
<polygon fill="none" stroke="black" points="324,-252 288,-252 288,-216 324,-216 324,-252"/>
</g>
<!-- N2_4&#45;&#45;N3_4 -->
<g id="edge100" class="edge">
<title>N2_4&#45;&#45;N3_4</title>
<path fill="none" stroke="black" stroke-width="5" d="M306,-180.17C306,-191 306,-204.71 306,-215.59"/>
</g>
<!-- N2_5 -->
<g id="node32" class="node">
<title>N2_5</title>
<polygon fill="none" stroke="black" points="396,-180 360,-180 360,-144 396,-144 396,-180"/>
</g>
<!-- N2_5&#45;&#45;N2_4 -->
<g id="edge92" class="edge">
<title>N2_5&#45;&#45;N2_4</title>
<path fill="none" stroke="black" stroke-width="5" d="M359.83,-162C349,-162 335.29,-162 324.41,-162"/>
</g>
<!-- N3_5 -->
<g id="node45" class="node">
<title>N3_5</title>
<polygon fill="none" stroke="black" points="396,-252 360,-252 360,-216 396,-216 396,-252"/>
</g>
<!-- N2_5&#45;&#45;N3_5 -->
<g id="edge93" class="edge">
<title>N2_5&#45;&#45;N3_5</title>
<path fill="none" stroke="black" stroke-width="5" d="M378,-180.17C378,-191 378,-204.71 378,-215.59"/>
</g>
<!-- N2_6 -->
<g id="node33" class="node">
<title>N2_6</title>
<polygon fill="none" stroke="black" points="468,-180 432,-180 432,-144 468,-144 468,-180"/>
</g>
<!-- N2_6&#45;&#45;N2_5 -->
<g id="edge34" class="edge">
<title>N2_6&#45;&#45;N2_5</title>
<path fill="none" stroke="black" stroke-width="5" d="M431.83,-162C421,-162 407.29,-162 396.41,-162"/>
</g>
<!-- N2_7 -->
<g id="node34" class="node">
<title>N2_7</title>
<polygon fill="none" stroke="black" points="540,-180 504,-180 504,-144 540,-144 540,-180"/>
</g>
<!-- N2_6&#45;&#45;N2_7 -->
<g id="edge35" class="edge">
<title>N2_6&#45;&#45;N2_7</title>
<path fill="none" stroke="black" stroke-width="5" d="M468.17,-162C479,-162 492.71,-162 503.59,-162"/>
</g>
<!-- N2_9 -->
<g id="node36" class="node">
<title>N2_9</title>
<polygon fill="none" stroke="black" points="684,-180 648,-180 648,-144 684,-144 684,-180"/>
</g>
<!-- N2_10 -->
<g id="node37" class="node">
<title>N2_10</title>
<polygon fill="none" stroke="black" points="756,-180 720,-180 720,-144 756,-144 756,-180"/>
</g>
<!-- N3_10 -->
<g id="node50" class="node">
<title>N3_10</title>
<polygon fill="none" stroke="black" points="756,-252 720,-252 720,-216 756,-216 756,-252"/>
</g>
<!-- N2_10&#45;&#45;N3_10 -->
<g id="edge27" class="edge">
<title>N2_10&#45;&#45;N3_10</title>
<path fill="none" stroke="black" stroke-width="5" d="M738,-180.17C738,-191 738,-204.71 738,-215.59"/>
</g>
<!-- N2_11 -->
<g id="node38" class="node">
<title>N2_11</title>
<polygon fill="none" stroke="black" points="828,-180 792,-180 792,-144 828,-144 828,-180"/>
</g>
<!-- N3_11 -->
<g id="node51" class="node">
<title>N3_11</title>
<polygon fill="none" stroke="black" points="828,-252 792,-252 792,-216 828,-216 828,-252"/>
</g>
<!-- N2_11&#45;&#45;N3_11 -->
<g id="edge62" class="edge">
<title>N2_11&#45;&#45;N3_11</title>
<path fill="none" stroke="black" stroke-width="5" d="M810,-180.17C810,-191 810,-204.71 810,-215.59"/>
</g>
<!-- N2_12 -->
<g id="node39" class="node">
<title>N2_12</title>
<polygon fill="none" stroke="black" points="900,-180 864,-180 864,-144 900,-144 900,-180"/>
</g>
<!-- N2_12&#45;&#45;N1_12 -->
<g id="edge87" class="edge">
<title>N2_12&#45;&#45;N1_12</title>
<path fill="none" stroke="black" stroke-width="5" d="M882,-143.83C882,-133 882,-119.29 882,-108.41"/>
</g>
<!-- N2_12&#45;&#45;N2_11 -->
<g id="edge63" class="edge">
<title>N2_12&#45;&#45;N2_11</title>
<path fill="none" stroke="black" stroke-width="5" d="M863.83,-162C853,-162 839.29,-162 828.41,-162"/>
</g>
<!-- N3_12 -->
<g id="node52" class="node">
<title>N3_12</title>
<polygon fill="none" stroke="black" points="900,-252 864,-252 864,-216 900,-216 900,-252"/>
</g>
<!-- N2_12&#45;&#45;N3_12 -->
<g id="edge64" class="edge">
<title>N2_12&#45;&#45;N3_12</title>
<path fill="none" stroke="black" stroke-width="5" d="M882,-180.17C882,-191 882,-204.71 882,-215.59"/>
</g>
<!-- N3_0 -->
<g id="node40" class="node">
<title>N3_0</title>
<polygon fill="none" stroke="black" points="36,-252 0,-252 0,-216 36,-216 36,-252"/>
</g>
<!-- N3_1 -->
<g id="node41" class="node">
<title>N3_1</title>
<polygon fill="none" stroke="black" points="108,-252 72,-252 72,-216 108,-216 108,-252"/>
</g>
<!-- N3_1&#45;&#45;N3_0 -->
<g id="edge36" class="edge">
<title>N3_1&#45;&#45;N3_0</title>
<path fill="none" stroke="black" stroke-width="5" d="M71.83,-234C61,-234 47.29,-234 36.41,-234"/>
</g>
<!-- N4_1 -->
<g id="node54" class="node">
<title>N4_1</title>
<polygon fill="none" stroke="black" points="108,-324 72,-324 72,-288 108,-288 108,-324"/>
</g>
<!-- N3_1&#45;&#45;N4_1 -->
<g id="edge11" class="edge">
<title>N3_1&#45;&#45;N4_1</title>
<path fill="none" stroke="black" stroke-width="5" d="M90,-252.17C90,-263 90,-276.71 90,-287.59"/>
</g>
<!-- N3_2 -->
<g id="node42" class="node">
<title>N3_2</title>
<polygon fill="none" stroke="black" points="180,-252 144,-252 144,-216 180,-216 180,-252"/>
</g>
<!-- N3_3&#45;&#45;N3_2 -->
<g id="edge20" class="edge">
<title>N3_3&#45;&#45;N3_2</title>
<path fill="none" stroke="black" stroke-width="5" d="M215.83,-234C205,-234 191.29,-234 180.41,-234"/>
</g>
<!-- N4_5 -->
<g id="node58" class="node">
<title>N4_5</title>
<polygon fill="none" stroke="black" points="396,-324 360,-324 360,-288 396,-288 396,-324"/>
</g>
<!-- N3_5&#45;&#45;N4_5 -->
<g id="edge94" class="edge">
<title>N3_5&#45;&#45;N4_5</title>
<path fill="none" stroke="black" stroke-width="5" d="M378,-252.17C378,-263 378,-276.71 378,-287.59"/>
</g>
<!-- N3_6 -->
<g id="node46" class="node">
<title>N3_6</title>
<polygon fill="none" stroke="black" points="468,-252 432,-252 432,-216 468,-216 468,-252"/>
</g>
<!-- N3_6&#45;&#45;N3_5 -->
<g id="edge4" class="edge">
<title>N3_6&#45;&#45;N3_5</title>
<path fill="none" stroke="black" stroke-width="5" d="M431.83,-234C421,-234 407.29,-234 396.41,-234"/>
</g>
<!-- N4_6 -->
<g id="node59" class="node">
<title>N4_6</title>
<polygon fill="none" stroke="black" points="468,-324 432,-324 432,-288 468,-288 468,-324"/>
</g>
<!-- N3_6&#45;&#45;N4_6 -->
<g id="edge5" class="edge">
<title>N3_6&#45;&#45;N4_6</title>
<path fill="none" stroke="black" stroke-width="5" d="M450,-252.17C450,-263 450,-276.71 450,-287.59"/>
</g>
<!-- N3_7 -->
<g id="node47" class="node">
<title>N3_7</title>
<polygon fill="none" stroke="black" points="540,-252 504,-252 504,-216 540,-216 540,-252"/>
</g>
<!-- N3_7&#45;&#45;N3_6 -->
<g id="edge45" class="edge">
<title>N3_7&#45;&#45;N3_6</title>
<path fill="none" stroke="black" stroke-width="5" d="M503.83,-234C493,-234 479.29,-234 468.41,-234"/>
</g>
<!-- N3_8 -->
<g id="node48" class="node">
<title>N3_8</title>
<polygon fill="none" stroke="black" points="612,-252 576,-252 576,-216 612,-216 612,-252"/>
</g>
<!-- N3_8&#45;&#45;N2_8 -->
<g id="edge58" class="edge">
<title>N3_8&#45;&#45;N2_8</title>
<path fill="none" stroke="black" stroke-width="5" d="M594,-215.83C594,-205 594,-191.29 594,-180.41"/>
</g>
<!-- N3_9 -->
<g id="node49" class="node">
<title>N3_9</title>
<polygon fill="none" stroke="black" points="684,-252 648,-252 648,-216 684,-216 684,-252"/>
</g>
<!-- N3_9&#45;&#45;N2_9 -->
<g id="edge50" class="edge">
<title>N3_9&#45;&#45;N2_9</title>
<path fill="none" stroke="black" stroke-width="5" d="M666,-215.83C666,-205 666,-191.29 666,-180.41"/>
</g>
<!-- N3_9&#45;&#45;N3_8 -->
<g id="edge59" class="edge">
<title>N3_9&#45;&#45;N3_8</title>
<path fill="none" stroke="black" stroke-width="5" d="M647.83,-234C637,-234 623.29,-234 612.41,-234"/>
</g>
<!-- N3_9&#45;&#45;N3_10 -->
<g id="edge60" class="edge">
<title>N3_9&#45;&#45;N3_10</title>
<path fill="none" stroke="black" stroke-width="5" d="M684.17,-234C695,-234 708.71,-234 719.59,-234"/>
</g>
<!-- N3_11&#45;&#45;N3_10 -->
<g id="edge61" class="edge">
<title>N3_11&#45;&#45;N3_10</title>
<path fill="none" stroke="black" stroke-width="5" d="M791.83,-234C781,-234 767.29,-234 756.41,-234"/>
</g>
<!-- N4_0 -->
<g id="node53" class="node">
<title>N4_0</title>
<polygon fill="none" stroke="black" points="36,-324 0,-324 0,-288 36,-288 36,-324"/>
</g>
<!-- N4_1&#45;&#45;N4_0 -->
<g id="edge46" class="edge">
<title>N4_1&#45;&#45;N4_0</title>
<path fill="none" stroke="black" stroke-width="5" d="M71.83,-306C61,-306 47.29,-306 36.41,-306"/>
</g>
<!-- N5_1 -->
<g id="node67" class="node">
<title>N5_1</title>
<polygon fill="none" stroke="black" points="108,-396 72,-396 72,-360 108,-360 108,-396"/>
</g>
<!-- N4_1&#45;&#45;N5_1 -->
<g id="edge10" class="edge">
<title>N4_1&#45;&#45;N5_1</title>
<path fill="none" stroke="black" stroke-width="5" d="M90,-324.17C90,-335 90,-348.71 90,-359.59"/>
</g>
<!-- N4_2 -->
<g id="node55" class="node">
<title>N4_2</title>
<polygon fill="none" stroke="black" points="180,-324 144,-324 144,-288 180,-288 180,-324"/>
</g>
<!-- N4_2&#45;&#45;N3_2 -->
<g id="edge17" class="edge">
<title>N4_2&#45;&#45;N3_2</title>
<path fill="none" stroke="black" stroke-width="5" d="M162,-287.83C162,-277 162,-263.29 162,-252.41"/>
</g>
<!-- N4_2&#45;&#45;N4_1 -->
<g id="edge16" class="edge">
<title>N4_2&#45;&#45;N4_1</title>
<path fill="none" stroke="black" stroke-width="5" d="M143.83,-306C133,-306 119.29,-306 108.41,-306"/>
</g>
<!-- N4_3 -->
<g id="node56" class="node">
<title>N4_3</title>
<polygon fill="none" stroke="black" points="252,-324 216,-324 216,-288 252,-288 252,-324"/>
</g>
<!-- N4_4 -->
<g id="node57" class="node">
<title>N4_4</title>
<polygon fill="none" stroke="black" points="324,-324 288,-324 288,-288 324,-288 324,-324"/>
</g>
<!-- N4_4&#45;&#45;N3_4 -->
<g id="edge18" class="edge">
<title>N4_4&#45;&#45;N3_4</title>
<path fill="none" stroke="black" stroke-width="5" d="M306,-287.83C306,-277 306,-263.29 306,-252.41"/>
</g>
<!-- N4_4&#45;&#45;N4_3 -->
<g id="edge19" class="edge">
<title>N4_4&#45;&#45;N4_3</title>
<path fill="none" stroke="black" stroke-width="5" d="M287.83,-306C277,-306 263.29,-306 252.41,-306"/>
</g>
<!-- N5_4 -->
<g id="node70" class="node">
<title>N5_4</title>
<polygon fill="none" stroke="black" points="324,-396 288,-396 288,-360 324,-360 324,-396"/>
</g>
<!-- N4_4&#45;&#45;N5_4 -->
<g id="edge39" class="edge">
<title>N4_4&#45;&#45;N5_4</title>
<path fill="none" stroke="black" stroke-width="5" d="M306,-324.17C306,-335 306,-348.71 306,-359.59"/>
</g>
<!-- N4_7 -->
<g id="node60" class="node">
<title>N4_7</title>
<polygon fill="none" stroke="black" points="540,-324 504,-324 504,-288 540,-288 540,-324"/>
</g>
<!-- N4_7&#45;&#45;N4_6 -->
<g id="edge6" class="edge">
<title>N4_7&#45;&#45;N4_6</title>
<path fill="none" stroke="black" stroke-width="5" d="M503.83,-306C493,-306 479.29,-306 468.41,-306"/>
</g>
<!-- N4_8 -->
<g id="node61" class="node">
<title>N4_8</title>
<polygon fill="none" stroke="black" points="612,-324 576,-324 576,-288 612,-288 612,-324"/>
</g>
<!-- N5_8 -->
<g id="node74" class="node">
<title>N5_8</title>
<polygon fill="none" stroke="black" points="612,-396 576,-396 576,-360 612,-360 612,-396"/>
</g>
<!-- N4_8&#45;&#45;N5_8 -->
<g id="edge1" class="edge">
<title>N4_8&#45;&#45;N5_8</title>
<path fill="none" stroke="black" stroke-width="5" d="M594,-324.17C594,-335 594,-348.71 594,-359.59"/>
</g>
<!-- N4_9 -->
<g id="node62" class="node">
<title>N4_9</title>
<polygon fill="none" stroke="black" points="684,-324 648,-324 648,-288 684,-288 684,-324"/>
</g>
<!-- N4_9&#45;&#45;N4_8 -->
<g id="edge2" class="edge">
<title>N4_9&#45;&#45;N4_8</title>
<path fill="none" stroke="black" stroke-width="5" d="M647.83,-306C637,-306 623.29,-306 612.41,-306"/>
</g>
<!-- N4_10 -->
<g id="node63" class="node">
<title>N4_10</title>
<polygon fill="none" stroke="black" points="756,-324 720,-324 720,-288 756,-288 756,-324"/>
</g>
<!-- N4_11 -->
<g id="node64" class="node">
<title>N4_11</title>
<polygon fill="none" stroke="black" points="828,-324 792,-324 792,-288 828,-288 828,-324"/>
</g>
<!-- N4_11&#45;&#45;N4_10 -->
<g id="edge15" class="edge">
<title>N4_11&#45;&#45;N4_10</title>
<path fill="none" stroke="black" stroke-width="5" d="M791.83,-306C781,-306 767.29,-306 756.41,-306"/>
</g>
<!-- N4_12 -->
<g id="node65" class="node">
<title>N4_12</title>
<polygon fill="none" stroke="black" points="900,-324 864,-324 864,-288 900,-288 900,-324"/>
</g>
<!-- N4_12&#45;&#45;N3_12 -->
<g id="edge65" class="edge">
<title>N4_12&#45;&#45;N3_12</title>
<path fill="none" stroke="black" stroke-width="5" d="M882,-287.83C882,-277 882,-263.29 882,-252.41"/>
</g>
<!-- N4_12&#45;&#45;N4_11 -->
<g id="edge14" class="edge">
<title>N4_12&#45;&#45;N4_11</title>
<path fill="none" stroke="black" stroke-width="5" d="M863.83,-306C853,-306 839.29,-306 828.41,-306"/>
</g>
<!-- N5_12 -->
<g id="node78" class="node">
<title>N5_12</title>
<polygon fill="none" stroke="black" points="900,-396 864,-396 864,-360 900,-360 900,-396"/>
</g>
<!-- N4_12&#45;&#45;N5_12 -->
<g id="edge66" class="edge">
<title>N4_12&#45;&#45;N5_12</title>
<path fill="none" stroke="black" stroke-width="5" d="M882,-324.17C882,-335 882,-348.71 882,-359.59"/>
</g>
<!-- N5_0 -->
<g id="node66" class="node">
<title>N5_0</title>
<polygon fill="none" stroke="black" points="36,-396 0,-396 0,-360 36,-360 36,-396"/>
</g>
<!-- N5_1&#45;&#45;N5_0 -->
<g id="edge84" class="edge">
<title>N5_1&#45;&#45;N5_0</title>
<path fill="none" stroke="black" stroke-width="5" d="M71.83,-378C61,-378 47.29,-378 36.41,-378"/>
</g>
<!-- N5_2 -->
<g id="node68" class="node">
<title>N5_2</title>
<polygon fill="none" stroke="black" points="180,-396 144,-396 144,-360 180,-360 180,-396"/>
</g>
<!-- N5_3 -->
<g id="node69" class="node">
<title>N5_3</title>
<polygon fill="none" stroke="black" points="252,-396 216,-396 216,-360 252,-360 252,-396"/>
</g>
<!-- N5_4&#45;&#45;N5_3 -->
<g id="edge40" class="edge">
<title>N5_4&#45;&#45;N5_3</title>
<path fill="none" stroke="black" stroke-width="5" d="M287.83,-378C277,-378 263.29,-378 252.41,-378"/>
</g>
<!-- N5_5 -->
<g id="node71" class="node">
<title>N5_5</title>
<polygon fill="none" stroke="black" points="396,-396 360,-396 360,-360 396,-360 396,-396"/>
</g>
<!-- N5_5&#45;&#45;N4_5 -->
<g id="edge95" class="edge">
<title>N5_5&#45;&#45;N4_5</title>
<path fill="none" stroke="black" stroke-width="5" d="M378,-359.83C378,-349 378,-335.29 378,-324.41"/>
</g>
<!-- N5_6 -->
<g id="node72" class="node">
<title>N5_6</title>
<polygon fill="none" stroke="black" points="468,-396 432,-396 432,-360 468,-360 468,-396"/>
</g>
<!-- N5_6&#45;&#45;N5_5 -->
<g id="edge96" class="edge">
<title>N5_6&#45;&#45;N5_5</title>
<path fill="none" stroke="black" stroke-width="5" d="M431.83,-378C421,-378 407.29,-378 396.41,-378"/>
</g>
<!-- N5_7 -->
<g id="node73" class="node">
<title>N5_7</title>
<polygon fill="none" stroke="black" points="540,-396 504,-396 504,-360 540,-360 540,-396"/>
</g>
<!-- N5_7&#45;&#45;N4_7 -->
<g id="edge7" class="edge">
<title>N5_7&#45;&#45;N4_7</title>
<path fill="none" stroke="black" stroke-width="5" d="M522,-359.83C522,-349 522,-335.29 522,-324.41"/>
</g>
<!-- N5_9 -->
<g id="node75" class="node">
<title>N5_9</title>
<polygon fill="none" stroke="black" points="684,-396 648,-396 648,-360 684,-360 684,-396"/>
</g>
<!-- N5_9&#45;&#45;N5_8 -->
<g id="edge103" class="edge">
<title>N5_9&#45;&#45;N5_8</title>
<path fill="none" stroke="black" stroke-width="5" d="M647.83,-378C637,-378 623.29,-378 612.41,-378"/>
</g>
<!-- N5_10 -->
<g id="node76" class="node">
<title>N5_10</title>
<polygon fill="none" stroke="black" points="756,-396 720,-396 720,-360 756,-360 756,-396"/>
</g>
<!-- N5_11 -->
<g id="node77" class="node">
<title>N5_11</title>
<polygon fill="none" stroke="black" points="828,-396 792,-396 792,-360 828,-360 828,-396"/>
</g>
<!-- N5_11&#45;&#45;N5_10 -->
<g id="edge30" class="edge">
<title>N5_11&#45;&#45;N5_10</title>
<path fill="none" stroke="black" stroke-width="5" d="M791.83,-378C781,-378 767.29,-378 756.41,-378"/>
</g>
<!-- N6_11 -->
<g id="node90" class="node">
<title>N6_11</title>
<polygon fill="none" stroke="black" points="828,-468 792,-468 792,-432 828,-432 828,-468"/>
</g>
<!-- N5_11&#45;&#45;N6_11 -->
<g id="edge98" class="edge">
<title>N5_11&#45;&#45;N6_11</title>
<path fill="none" stroke="black" stroke-width="5" d="M810,-396.17C810,-407 810,-420.71 810,-431.59"/>
</g>
<!-- N5_12&#45;&#45;N5_11 -->
<g id="edge97" class="edge">
<title>N5_12&#45;&#45;N5_11</title>
<path fill="none" stroke="black" stroke-width="5" d="M863.83,-378C853,-378 839.29,-378 828.41,-378"/>
</g>
<!-- N6_12 -->
<g id="node91" class="node">
<title>N6_12</title>
<polygon fill="none" stroke="black" points="900,-468 864,-468 864,-432 900,-432 900,-468"/>
</g>
<!-- N5_12&#45;&#45;N6_12 -->
<g id="edge67" class="edge">
<title>N5_12&#45;&#45;N6_12</title>
<path fill="none" stroke="black" stroke-width="5" d="M882,-396.17C882,-407 882,-420.71 882,-431.59"/>
</g>
<!-- N6_0 -->
<g id="node79" class="node">
<title>N6_0</title>
<polygon fill="none" stroke="black" points="36,-468 0,-468 0,-432 36,-432 36,-468"/>
</g>
<!-- N6_0&#45;&#45;N5_0 -->
<g id="edge85" class="edge">
<title>N6_0&#45;&#45;N5_0</title>
<path fill="none" stroke="black" stroke-width="5" d="M18,-431.83C18,-421 18,-407.29 18,-396.41"/>
</g>
<!-- N6_1 -->
<g id="node80" class="node">
<title>N6_1</title>
<polygon fill="none" stroke="black" points="108,-468 72,-468 72,-432 108,-432 108,-468"/>
</g>
<!-- N6_1&#45;&#45;N5_1 -->
<g id="edge83" class="edge">
<title>N6_1&#45;&#45;N5_1</title>
<path fill="none" stroke="black" stroke-width="5" d="M90,-431.83C90,-421 90,-407.29 90,-396.41"/>
</g>
<!-- N6_2 -->
<g id="node81" class="node">
<title>N6_2</title>
<polygon fill="none" stroke="black" points="180,-468 144,-468 144,-432 180,-432 180,-468"/>
</g>
<!-- N6_2&#45;&#45;N5_2 -->
<g id="edge51" class="edge">
<title>N6_2&#45;&#45;N5_2</title>
<path fill="none" stroke="black" stroke-width="5" d="M162,-431.83C162,-421 162,-407.29 162,-396.41"/>
</g>
<!-- N6_2&#45;&#45;N6_1 -->
<g id="edge82" class="edge">
<title>N6_2&#45;&#45;N6_1</title>
<path fill="none" stroke="black" stroke-width="5" d="M143.83,-450C133,-450 119.29,-450 108.41,-450"/>
</g>
<!-- N7_2 -->
<g id="node94" class="node">
<title>N7_2</title>
<polygon fill="none" stroke="black" points="180,-540 144,-540 144,-504 180,-504 180,-540"/>
</g>
<!-- N6_2&#45;&#45;N7_2 -->
<g id="edge81" class="edge">
<title>N6_2&#45;&#45;N7_2</title>
<path fill="none" stroke="black" stroke-width="5" d="M162,-468.17C162,-479 162,-492.71 162,-503.59"/>
</g>
<!-- N6_3 -->
<g id="node82" class="node">
<title>N6_3</title>
<polygon fill="none" stroke="black" points="252,-468 216,-468 216,-432 252,-432 252,-468"/>
</g>
<!-- N6_4 -->
<g id="node83" class="node">
<title>N6_4</title>
<polygon fill="none" stroke="black" points="324,-468 288,-468 288,-432 324,-432 324,-468"/>
</g>
<!-- N6_4&#45;&#45;N6_3 -->
<g id="edge78" class="edge">
<title>N6_4&#45;&#45;N6_3</title>
<path fill="none" stroke="black" stroke-width="5" d="M287.83,-450C277,-450 263.29,-450 252.41,-450"/>
</g>
<!-- N6_5 -->
<g id="node84" class="node">
<title>N6_5</title>
<polygon fill="none" stroke="black" points="396,-468 360,-468 360,-432 396,-432 396,-468"/>
</g>
<!-- N6_5&#45;&#45;N6_4 -->
<g id="edge77" class="edge">
<title>N6_5&#45;&#45;N6_4</title>
<path fill="none" stroke="black" stroke-width="5" d="M359.83,-450C349,-450 335.29,-450 324.41,-450"/>
</g>
<!-- N6_6 -->
<g id="node85" class="node">
<title>N6_6</title>
<polygon fill="none" stroke="black" points="468,-468 432,-468 432,-432 468,-432 468,-468"/>
</g>
<!-- N6_7 -->
<g id="node86" class="node">
<title>N6_7</title>
<polygon fill="none" stroke="black" points="540,-468 504,-468 504,-432 540,-432 540,-468"/>
</g>
<!-- N6_7&#45;&#45;N6_6 -->
<g id="edge44" class="edge">
<title>N6_7&#45;&#45;N6_6</title>
<path fill="none" stroke="black" stroke-width="5" d="M503.83,-450C493,-450 479.29,-450 468.41,-450"/>
</g>
<!-- N6_8 -->
<g id="node87" class="node">
<title>N6_8</title>
<polygon fill="none" stroke="black" points="612,-468 576,-468 576,-432 612,-432 612,-468"/>
</g>
<!-- N6_8&#45;&#45;N6_7 -->
<g id="edge13" class="edge">
<title>N6_8&#45;&#45;N6_7</title>
<path fill="none" stroke="black" stroke-width="5" d="M575.83,-450C565,-450 551.29,-450 540.41,-450"/>
</g>
<!-- N6_9 -->
<g id="node88" class="node">
<title>N6_9</title>
<polygon fill="none" stroke="black" points="684,-468 648,-468 648,-432 684,-432 684,-468"/>
</g>
<!-- N6_9&#45;&#45;N5_9 -->
<g id="edge102" class="edge">
<title>N6_9&#45;&#45;N5_9</title>
<path fill="none" stroke="black" stroke-width="5" d="M666,-431.83C666,-421 666,-407.29 666,-396.41"/>
</g>
<!-- N6_9&#45;&#45;N6_8 -->
<g id="edge12" class="edge">
<title>N6_9&#45;&#45;N6_8</title>
<path fill="none" stroke="black" stroke-width="5" d="M647.83,-450C637,-450 623.29,-450 612.41,-450"/>
</g>
<!-- N6_10 -->
<g id="node89" class="node">
<title>N6_10</title>
<polygon fill="none" stroke="black" points="756,-468 720,-468 720,-432 756,-432 756,-468"/>
</g>
<!-- N6_10&#45;&#45;N6_9 -->
<g id="edge101" class="edge">
<title>N6_10&#45;&#45;N6_9</title>
<path fill="none" stroke="black" stroke-width="5" d="M719.83,-450C709,-450 695.29,-450 684.41,-450"/>
</g>
<!-- N6_10&#45;&#45;N6_11 -->
<g id="edge99" class="edge">
<title>N6_10&#45;&#45;N6_11</title>
<path fill="none" stroke="black" stroke-width="5" d="M756.17,-450C767,-450 780.71,-450 791.59,-450"/>
</g>
<!-- N7_0 -->
<g id="node92" class="node">
<title>N7_0</title>
<polygon fill="none" stroke="black" points="36,-540 0,-540 0,-504 36,-504 36,-540"/>
</g>
<!-- N7_1 -->
<g id="node93" class="node">
<title>N7_1</title>
<polygon fill="none" stroke="black" points="108,-540 72,-540 72,-504 108,-504 108,-540"/>
</g>
<!-- N7_1&#45;&#45;N7_0 -->
<g id="edge49" class="edge">
<title>N7_1&#45;&#45;N7_0</title>
<path fill="none" stroke="black" stroke-width="5" d="M71.83,-522C61,-522 47.29,-522 36.41,-522"/>
</g>
<!-- N7_2&#45;&#45;N7_1 -->
<g id="edge48" class="edge">
<title>N7_2&#45;&#45;N7_1</title>
<path fill="none" stroke="black" stroke-width="5" d="M143.83,-522C133,-522 119.29,-522 108.41,-522"/>
</g>
<!-- N7_3 -->
<g id="node95" class="node">
<title>N7_3</title>
<polygon fill="none" stroke="black" points="252,-540 216,-540 216,-504 252,-504 252,-540"/>
</g>
<!-- N7_3&#45;&#45;N6_3 -->
<g id="edge79" class="edge">
<title>N7_3&#45;&#45;N6_3</title>
<path fill="none" stroke="black" stroke-width="5" d="M234,-503.83C234,-493 234,-479.29 234,-468.41"/>
</g>
<!-- N7_3&#45;&#45;N7_2 -->
<g id="edge80" class="edge">
<title>N7_3&#45;&#45;N7_2</title>
<path fill="none" stroke="black" stroke-width="5" d="M215.83,-522C205,-522 191.29,-522 180.41,-522"/>
</g>
<!-- N7_4 -->
<g id="node96" class="node">
<title>N7_4</title>
<polygon fill="none" stroke="black" points="324,-540 288,-540 288,-504 324,-504 324,-540"/>
</g>
<!-- N7_4&#45;&#45;N7_3 -->
<g id="edge3" class="edge">
<title>N7_4&#45;&#45;N7_3</title>
<path fill="none" stroke="black" stroke-width="5" d="M287.83,-522C277,-522 263.29,-522 252.41,-522"/>
</g>
<!-- N7_5 -->
<g id="node97" class="node">
<title>N7_5</title>
<polygon fill="none" stroke="black" points="396,-540 360,-540 360,-504 396,-504 396,-540"/>
</g>
<!-- N7_5&#45;&#45;N6_5 -->
<g id="edge76" class="edge">
<title>N7_5&#45;&#45;N6_5</title>
<path fill="none" stroke="black" stroke-width="5" d="M378,-503.83C378,-493 378,-479.29 378,-468.41"/>
</g>
<!-- N7_6 -->
<g id="node98" class="node">
<title>N7_6</title>
<polygon fill="none" stroke="black" points="468,-540 432,-540 432,-504 468,-504 468,-540"/>
</g>
<!-- N7_5&#45;&#45;N7_6 -->
<g id="edge75" class="edge">
<title>N7_5&#45;&#45;N7_6</title>
<path fill="none" stroke="black" stroke-width="5" d="M396.17,-522C407,-522 420.71,-522 431.59,-522"/>
</g>
<!-- N7_7 -->
<g id="node99" class="node">
<title>N7_7</title>
<polygon fill="none" stroke="black" points="540,-540 504,-540 504,-504 540,-504 540,-540"/>
</g>
<!-- N7_7&#45;&#45;N7_6 -->
<g id="edge74" class="edge">
<title>N7_7&#45;&#45;N7_6</title>
<path fill="none" stroke="black" stroke-width="5" d="M503.83,-522C493,-522 479.29,-522 468.41,-522"/>
</g>
<!-- N7_8 -->
<g id="node100" class="node">
<title>N7_8</title>
<polygon fill="none" stroke="black" points="612,-540 576,-540 576,-504 612,-504 612,-540"/>
</g>
<!-- N7_8&#45;&#45;N7_7 -->
<g id="edge73" class="edge">
<title>N7_8&#45;&#45;N7_7</title>
<path fill="none" stroke="black" stroke-width="5" d="M575.83,-522C565,-522 551.29,-522 540.41,-522"/>
</g>
<!-- N7_9 -->
<g id="node101" class="node">
<title>N7_9</title>
<polygon fill="none" stroke="black" points="684,-540 648,-540 648,-504 684,-504 684,-540"/>
</g>
<!-- N7_9&#45;&#45;N7_8 -->
<g id="edge72" class="edge">
<title>N7_9&#45;&#45;N7_8</title>
<path fill="none" stroke="black" stroke-width="5" d="M647.83,-522C637,-522 623.29,-522 612.41,-522"/>
</g>
<!-- N7_10 -->
<g id="node102" class="node">
<title>N7_10</title>
<polygon fill="none" stroke="black" points="756,-540 720,-540 720,-504 756,-504 756,-540"/>
</g>
<!-- N7_10&#45;&#45;N7_9 -->
<g id="edge71" class="edge">
<title>N7_10&#45;&#45;N7_9</title>
<path fill="none" stroke="black" stroke-width="5" d="M719.83,-522C709,-522 695.29,-522 684.41,-522"/>
</g>
<!-- N7_11 -->
<g id="node103" class="node">
<title>N7_11</title>
<polygon fill="none" stroke="black" points="828,-540 792,-540 792,-504 828,-504 828,-540"/>
</g>
<!-- N7_11&#45;&#45;N7_10 -->
<g id="edge70" class="edge">
<title>N7_11&#45;&#45;N7_10</title>
<path fill="none" stroke="black" stroke-width="5" d="M791.83,-522C781,-522 767.29,-522 756.41,-522"/>
</g>
<!-- N7_12 -->
<g id="node104" class="node">
<title>N7_12</title>
<polygon fill="none" stroke="black" points="900,-540 864,-540 864,-504 900,-504 900,-540"/>
</g>
<!-- N7_12&#45;&#45;N6_12 -->
<g id="edge68" class="edge">
<title>N7_12&#45;&#45;N6_12</title>
<path fill="none" stroke="black" stroke-width="5" d="M882,-503.83C882,-493 882,-479.29 882,-468.41"/>
</g>
<!-- N7_12&#45;&#45;N7_11 -->
<g id="edge69" class="edge">
<title>N7_12&#45;&#45;N7_11</title>
<path fill="none" stroke="black" stroke-width="5" d="M863.83,-522C853,-522 839.29,-522 828.41,-522"/>
</g>
</g>
</svg>
