<?xml version="1.0" encoding="UTF-8" standalone="no"?>
<!DOCTYPE svg PUBLIC "-//W3C//DTD SVG 1.1//EN"
 "http://www.w3.org/Graphics/SVG/1.1/DTD/svg11.dtd">
<!-- Generated by graphviz version 2.43.0 (0)
 -->
<!-- Title: %3 Pages: 1 -->
<svg width="260pt" height="260pt"
 viewBox="0.00 0.00 260.00 260.00" xmlns="http://www.w3.org/2000/svg" xmlns:xlink="http://www.w3.org/1999/xlink">
<g id="graph0" class="graph" transform="scale(1 1) rotate(0) translate(4 256)">
<title>%3</title>
<polygon fill="white" stroke="transparent" points="-4,4 -4,-256 256,-256 256,4 -4,4"/>
<!-- N0_0 -->
<g id="node1" class="node">
<title>N0_0</title>
<polygon fill="none" stroke="black" points="36,-36 0,-36 0,0 36,0 36,-36"/>
</g>
<!-- N1_0 -->
<g id="node5" class="node">
<title>N1_0</title>
<polygon fill="none" stroke="black" points="36,-108 0,-108 0,-72 36,-72 36,-108"/>
</g>
<!-- N0_0&#45;&#45;N1_0 -->
<g id="edge15" class="edge">
<title>N0_0&#45;&#45;N1_0</title>
<path fill="none" stroke="black" stroke-width="5" d="M18,-36.17C18,-47 18,-60.71 18,-71.59"/>
</g>
<!-- N0_1 -->
<g id="node2" class="node">
<title>N0_1</title>
<polygon fill="none" stroke="black" points="108,-36 72,-36 72,0 108,0 108,-36"/>
</g>
<!-- N0_1&#45;&#45;N0_0 -->
<g id="edge11" class="edge">
<title>N0_1&#45;&#45;N0_0</title>
<path fill="none" stroke="black" stroke-width="5" d="M71.83,-18C61,-18 47.29,-18 36.41,-18"/>
</g>
<!-- N0_2 -->
<g id="node3" class="node">
<title>N0_2</title>
<polygon fill="none" stroke="black" points="180,-36 144,-36 144,0 180,0 180,-36"/>
</g>
<!-- N0_1&#45;&#45;N0_2 -->
<g id="edge5" class="edge">
<title>N0_1&#45;&#45;N0_2</title>
<path fill="none" stroke="black" stroke-width="5" d="M108.17,-18C119,-18 132.71,-18 143.59,-18"/>
</g>
<!-- N1_1 -->
<g id="node6" class="node">
<title>N1_1</title>
<polygon fill="none" stroke="black" points="108,-108 72,-108 72,-72 108,-72 108,-108"/>
</g>
<!-- N0_1&#45;&#45;N1_1 -->
<g id="edge4" class="edge">
<title>N0_1&#45;&#45;N1_1</title>
<path fill="none" stroke="black" stroke-width="5" d="M90,-36.17C90,-47 90,-60.71 90,-71.59"/>
</g>
<!-- N0_3 -->
<g id="node4" class="node">
<title>N0_3</title>
<polygon fill="none" stroke="black" points="252,-36 216,-36 216,0 252,0 252,-36"/>
</g>
<!-- N1_2 -->
<g id="node7" class="node">
<title>N1_2</title>
<polygon fill="none" stroke="black" points="180,-108 144,-108 144,-72 180,-72 180,-108"/>
</g>
<!-- N1_2&#45;&#45;N0_2 -->
<g id="edge8" class="edge">
<title>N1_2&#45;&#45;N0_2</title>
<path fill="none" stroke="black" stroke-width="5" d="M162,-71.83C162,-61 162,-47.29 162,-36.41"/>
</g>
<!-- N2_2 -->
<g id="node11" class="node">
<title>N2_2</title>
<polygon fill="none" stroke="black" points="180,-180 144,-180 144,-144 180,-144 180,-180"/>
</g>
<!-- N1_2&#45;&#45;N2_2 -->
<g id="edge10" class="edge">
<title>N1_2&#45;&#45;N2_2</title>
<path fill="none" stroke="black" stroke-width="5" d="M162,-108.17C162,-119 162,-132.71 162,-143.59"/>
</g>
<!-- N1_3 -->
<g id="node8" class="node">
<title>N1_3</title>
<polygon fill="none" stroke="black" points="252,-108 216,-108 216,-72 252,-72 252,-108"/>
</g>
<!-- N1_3&#45;&#45;N0_3 -->
<g id="edge14" class="edge">
<title>N1_3&#45;&#45;N0_3</title>
<path fill="none" stroke="black" stroke-width="5" d="M234,-71.83C234,-61 234,-47.29 234,-36.41"/>
</g>
<!-- N1_3&#45;&#45;N1_2 -->
<g id="edge6" class="edge">
<title>N1_3&#45;&#45;N1_2</title>
<path fill="none" stroke="black" stroke-width="5" d="M215.83,-90C205,-90 191.29,-90 180.41,-90"/>
</g>
<!-- N2_3 -->
<g id="node12" class="node">
<title>N2_3</title>
<polygon fill="none" stroke="black" points="252,-180 216,-180 216,-144 252,-144 252,-180"/>
</g>
<!-- N1_3&#45;&#45;N2_3 -->
<g id="edge9" class="edge">
<title>N1_3&#45;&#45;N2_3</title>
<path fill="none" stroke="black" stroke-width="5" d="M234,-108.17C234,-119 234,-132.71 234,-143.59"/>
</g>
<!-- N2_0 -->
<g id="node9" class="node">
<title>N2_0</title>
<polygon fill="none" stroke="black" points="36,-180 0,-180 0,-144 36,-144 36,-180"/>
</g>
<!-- N2_0&#45;&#45;N1_0 -->
<g id="edge1" class="edge">
<title>N2_0&#45;&#45;N1_0</title>
<path fill="none" stroke="black" stroke-width="5" d="M18,-143.83C18,-133 18,-119.29 18,-108.41"/>
</g>
<!-- N2_1 -->
<g id="node10" class="node">
<title>N2_1</title>
<polygon fill="none" stroke="black" points="108,-180 72,-180 72,-144 108,-144 108,-180"/>
</g>
<!-- N2_1&#45;&#45;N1_1 -->
<g id="edge2" class="edge">
<title>N2_1&#45;&#45;N1_1</title>
<path fill="none" stroke="black" stroke-width="5" d="M90,-143.83C90,-133 90,-119.29 90,-108.41"/>
</g>
<!-- N3_1 -->
<g id="node14" class="node">
<title>N3_1</title>
<polygon fill="none" stroke="black" points="108,-252 72,-252 72,-216 108,-216 108,-252"/>
</g>
<!-- N2_1&#45;&#45;N3_1 -->
<g id="edge3" class="edge">
<title>N2_1&#45;&#45;N3_1</title>
<path fill="none" stroke="black" stroke-width="5" d="M90,-180.17C90,-191 90,-204.71 90,-215.59"/>
</g>
<!-- N3_0 -->
<g id="node13" class="node">
<title>N3_0</title>
<polygon fill="none" stroke="black" points="36,-252 0,-252 0,-216 36,-216 36,-252"/>
</g>
<!-- N3_1&#45;&#45;N3_0 -->
<g id="edge12" class="edge">
<title>N3_1&#45;&#45;N3_0</title>
<path fill="none" stroke="black" stroke-width="5" d="M71.83,-234C61,-234 47.29,-234 36.41,-234"/>
</g>
<!-- N3_2 -->
<g id="node15" class="node">
<title>N3_2</title>
<polygon fill="none" stroke="black" points="180,-252 144,-252 144,-216 180,-216 180,-252"/>
</g>
<!-- N3_2&#45;&#45;N3_1 -->
<g id="edge7" class="edge">
<title>N3_2&#45;&#45;N3_1</title>
<path fill="none" stroke="black" stroke-width="5" d="M143.83,-234C133,-234 119.29,-234 108.41,-234"/>
</g>
<!-- N3_3 -->
<g id="node16" class="node">
<title>N3_3</title>
<polygon fill="none" stroke="black" points="252,-252 216,-252 216,-216 252,-216 252,-252"/>
</g>
<!-- N3_3&#45;&#45;N2_3 -->
<g id="edge13" class="edge">
<title>N3_3&#45;&#45;N2_3</title>
<path fill="none" stroke="black" stroke-width="5" d="M234,-215.83C234,-205 234,-191.29 234,-180.41"/>
</g>
</g>
</svg>
