<?xml version="1.0" encoding="UTF-8" standalone="no"?>
<!DOCTYPE svg PUBLIC "-//W3C//DTD SVG 1.1//EN"
 "http://www.w3.org/Graphics/SVG/1.1/DTD/svg11.dtd">
<!-- Generated by graphviz version 2.43.0 (0)
 -->
<!-- Title: %3 Pages: 1 -->
<svg width="926pt" height="548pt"
 viewBox="0.00 0.00 926.00 548.00" xmlns="http://www.w3.org/2000/svg" xmlns:xlink="http://www.w3.org/1999/xlink">
<g id="graph0" class="graph" transform="scale(1 1) rotate(0) translate(4 544)">
<title>%3</title>
<polygon fill="white" stroke="transparent" points="-4,4 -4,-544 922,-544 922,4 -4,4"/>
<!-- N0_0 -->
<g id="node1" class="node">
<title>N0_0</title>
<polygon fill="none" stroke="black" points="54,-10.54 54,-25.46 38.18,-36 15.82,-36 0,-25.46 0,-10.54 15.82,0 38.18,0 54,-10.54"/>
</g>
<!-- N1_0 -->
<g id="node14" class="node">
<title>N1_0</title>
<polygon fill="none" stroke="black" points="45,-108 9,-108 9,-72 45,-72 45,-108"/>
</g>
<!-- N0_0&#45;&#45;N1_0 -->
<g id="edge47" class="edge">
<title>N0_0&#45;&#45;N1_0</title>
<path fill="none" stroke="black" stroke-width="5" d="M27,-36.17C27,-47 27,-60.71 27,-71.59"/>
</g>
<!-- N0_1 -->
<g id="node2" class="node">
<title>N0_1</title>
<polygon fill="none" stroke="black" points="117,-36 81,-36 81,0 117,0 117,-36"/>
</g>
<!-- N0_2 -->
<g id="node3" class="node">
<title>N0_2</title>
<polygon fill="none" stroke="black" points="198,-10.54 198,-25.46 182.18,-36 159.82,-36 144,-25.46 144,-10.54 159.82,0 182.18,0 198,-10.54"/>
</g>
<!-- N0_1&#45;&#45;N0_2 -->
<g id="edge64" class="edge">
<title>N0_1&#45;&#45;N0_2</title>
<path fill="none" stroke="black" stroke-width="5" d="M117.17,-18C125.25,-18 134.94,-18 143.85,-18"/>
</g>
<!-- N1_1 -->
<g id="node15" class="node">
<title>N1_1</title>
<polygon fill="none" stroke="black" points="126,-82.54 126,-97.46 110.18,-108 87.82,-108 72,-97.46 72,-82.54 87.82,-72 110.18,-72 126,-82.54"/>
</g>
<!-- N0_1&#45;&#45;N1_1 -->
<g id="edge63" class="edge">
<title>N0_1&#45;&#45;N1_1</title>
<path fill="none" stroke="black" stroke-width="5" d="M99,-36.17C99,-47 99,-60.71 99,-71.59"/>
</g>
<!-- N0_3 -->
<g id="node4" class="node">
<title>N0_3</title>
<polygon fill="none" stroke="black" points="261,-36 225,-36 225,0 261,0 261,-36"/>
</g>
<!-- N0_4 -->
<g id="node5" class="node">
<title>N0_4</title>
<polygon fill="none" stroke="black" points="342,-10.54 342,-25.46 326.18,-36 303.82,-36 288,-25.46 288,-10.54 303.82,0 326.18,0 342,-10.54"/>
</g>
<!-- N1_5 -->
<g id="node19" class="node">
<title>N1_5</title>
<polygon fill="none" stroke="black" points="414,-82.54 414,-97.46 398.18,-108 375.82,-108 360,-97.46 360,-82.54 375.82,-72 398.18,-72 414,-82.54"/>
</g>
<!-- N0_4&#45;&#45;N1_5 -->
<g id="edge15" class="edge">
<title>N0_4&#45;&#45;N1_5</title>
<path fill="none" stroke="black" stroke-width="5" d="M330.62,-33.62C342.7,-45.7 359.34,-62.34 371.41,-74.41"/>
</g>
<!-- N0_5 -->
<g id="node6" class="node">
<title>N0_5</title>
<polygon fill="none" stroke="black" points="405,-36 369,-36 369,0 405,0 405,-36"/>
</g>
<!-- N0_6 -->
<g id="node7" class="node">
<title>N0_6</title>
<polygon fill="none" stroke="black" points="486,-10.54 486,-25.46 470.18,-36 447.82,-36 432,-25.46 432,-10.54 447.82,0 470.18,0 486,-10.54"/>
</g>
<!-- N0_6&#45;&#45;N0_5 -->
<g id="edge65" class="edge">
<title>N0_6&#45;&#45;N0_5</title>
<path fill="none" stroke="black" stroke-width="5" d="M431.78,-18C422.86,-18 413.17,-18 405.1,-18"/>
</g>
<!-- N0_6&#45;&#45;N1_5 -->
<g id="edge16" class="edge">
<title>N0_6&#45;&#45;N1_5</title>
<path fill="none" stroke="black" stroke-width="5" d="M443.38,-33.62C431.3,-45.7 414.66,-62.34 402.59,-74.41"/>
</g>
<!-- N0_7 -->
<g id="node8" class="node">
<title>N0_7</title>
<polygon fill="none" stroke="black" points="549,-36 513,-36 513,0 549,0 549,-36"/>
</g>
<!-- N0_7&#45;&#45;N0_6 -->
<g id="edge17" class="edge">
<title>N0_7&#45;&#45;N0_6</title>
<path fill="none" stroke="black" stroke-width="5" d="M512.83,-18C504.75,-18 495.06,-18 486.15,-18"/>
</g>
<!-- N0_8 -->
<g id="node9" class="node">
<title>N0_8</title>
<polygon fill="none" stroke="black" points="630,-10.54 630,-25.46 614.18,-36 591.82,-36 576,-25.46 576,-10.54 591.82,0 614.18,0 630,-10.54"/>
</g>
<!-- N0_8&#45;&#45;N0_7 -->
<g id="edge18" class="edge">
<title>N0_8&#45;&#45;N0_7</title>
<path fill="none" stroke="black" stroke-width="5" d="M575.78,-18C566.86,-18 557.17,-18 549.1,-18"/>
</g>
<!-- N1_9 -->
<g id="node23" class="node">
<title>N1_9</title>
<polygon fill="none" stroke="black" points="702,-82.54 702,-97.46 686.18,-108 663.82,-108 648,-97.46 648,-82.54 663.82,-72 686.18,-72 702,-82.54"/>
</g>
<!-- N0_8&#45;&#45;N1_9 -->
<g id="edge19" class="edge">
<title>N0_8&#45;&#45;N1_9</title>
<path fill="none" stroke="black" stroke-width="5" d="M618.62,-33.62C630.7,-45.7 647.34,-62.34 659.41,-74.41"/>
</g>
<!-- N0_9 -->
<g id="node10" class="node">
<title>N0_9</title>
<polygon fill="none" stroke="black" points="693,-36 657,-36 657,0 693,0 693,-36"/>
</g>
<!-- N0_10 -->
<g id="node11" class="node">
<title>N0_10</title>
<polygon fill="none" stroke="black" points="774,-10.54 774,-25.46 758.18,-36 735.82,-36 720,-25.46 720,-10.54 735.82,0 758.18,0 774,-10.54"/>
</g>
<!-- N0_9&#45;&#45;N0_10 -->
<g id="edge82" class="edge">
<title>N0_9&#45;&#45;N0_10</title>
<path fill="none" stroke="black" stroke-width="5" d="M693.17,-18C701.25,-18 710.94,-18 719.85,-18"/>
</g>
<!-- N0_11 -->
<g id="node12" class="node">
<title>N0_11</title>
<polygon fill="none" stroke="black" points="837,-36 801,-36 801,0 837,0 837,-36"/>
</g>
<!-- N0_11&#45;&#45;N0_10 -->
<g id="edge5" class="edge">
<title>N0_11&#45;&#45;N0_10</title>
<path fill="none" stroke="black" stroke-width="5" d="M800.83,-18C792.75,-18 783.06,-18 774.15,-18"/>
</g>
<!-- N0_12 -->
<g id="node13" class="node">
<title>N0_12</title>
<polygon fill="none" stroke="black" points="918,-10.54 918,-25.46 902.18,-36 879.82,-36 864,-25.46 864,-10.54 879.82,0 902.18,0 918,-10.54"/>
</g>
<!-- N1_1&#45;&#45;N1_0 -->
<g id="edge46" class="edge">
<title>N1_1&#45;&#45;N1_0</title>
<path fill="none" stroke="black" stroke-width="5" d="M71.78,-90C62.86,-90 53.17,-90 45.1,-90"/>
</g>
<!-- N2_0 -->
<g id="node27" class="node">
<title>N2_0</title>
<polygon fill="none" stroke="black" points="54,-154.54 54,-169.46 38.18,-180 15.82,-180 0,-169.46 0,-154.54 15.82,-144 38.18,-144 54,-154.54"/>
</g>
<!-- N1_1&#45;&#45;N2_0 -->
<g id="edge45" class="edge">
<title>N1_1&#45;&#45;N2_0</title>
<path fill="none" stroke="black" stroke-width="5" d="M83.38,-105.62C71.3,-117.7 54.66,-134.34 42.59,-146.41"/>
</g>
<!-- N1_2 -->
<g id="node16" class="node">
<title>N1_2</title>
<polygon fill="none" stroke="black" points="189,-108 153,-108 153,-72 189,-72 189,-108"/>
</g>
<!-- N1_3 -->
<g id="node17" class="node">
<title>N1_3</title>
<polygon fill="none" stroke="black" points="270,-82.54 270,-97.46 254.18,-108 231.82,-108 216,-97.46 216,-82.54 231.82,-72 254.18,-72 270,-82.54"/>
</g>
<!-- N1_3&#45;&#45;N0_3 -->
<g id="edge4" class="edge">
<title>N1_3&#45;&#45;N0_3</title>
<path fill="none" stroke="black" stroke-width="5" d="M243,-71.83C243,-61 243,-47.29 243,-36.41"/>
</g>
<!-- N1_3&#45;&#45;N0_4 -->
<g id="edge32" class="edge">
<title>N1_3&#45;&#45;N0_4</title>
<path fill="none" stroke="black" stroke-width="5" d="M258.62,-74.38C270.7,-62.3 287.34,-45.66 299.41,-33.59"/>
</g>
<!-- N1_3&#45;&#45;N1_2 -->
<g id="edge101" class="edge">
<title>N1_3&#45;&#45;N1_2</title>
<path fill="none" stroke="black" stroke-width="5" d="M215.78,-90C206.86,-90 197.17,-90 189.1,-90"/>
</g>
<!-- N2_3 -->
<g id="node30" class="node">
<title>N2_3</title>
<polygon fill="none" stroke="black" points="261,-180 225,-180 225,-144 261,-144 261,-180"/>
</g>
<!-- N1_3&#45;&#45;N2_3 -->
<g id="edge33" class="edge">
<title>N1_3&#45;&#45;N2_3</title>
<path fill="none" stroke="black" stroke-width="5" d="M243,-108.17C243,-119 243,-132.71 243,-143.59"/>
</g>
<!-- N1_4 -->
<g id="node18" class="node">
<title>N1_4</title>
<polygon fill="none" stroke="black" points="333,-108 297,-108 297,-72 333,-72 333,-108"/>
</g>
<!-- N1_4&#45;&#45;N1_5 -->
<g id="edge103" class="edge">
<title>N1_4&#45;&#45;N1_5</title>
<path fill="none" stroke="black" stroke-width="5" d="M333.17,-90C341.25,-90 350.94,-90 359.85,-90"/>
</g>
<!-- N2_4 -->
<g id="node31" class="node">
<title>N2_4</title>
<polygon fill="none" stroke="black" points="342,-154.54 342,-169.46 326.18,-180 303.82,-180 288,-169.46 288,-154.54 303.82,-144 326.18,-144 342,-154.54"/>
</g>
<!-- N1_4&#45;&#45;N2_4 -->
<g id="edge10" class="edge">
<title>N1_4&#45;&#45;N2_4</title>
<path fill="none" stroke="black" stroke-width="5" d="M315,-108.17C315,-119 315,-132.71 315,-143.59"/>
</g>
<!-- N1_6 -->
<g id="node20" class="node">
<title>N1_6</title>
<polygon fill="none" stroke="black" points="477,-108 441,-108 441,-72 477,-72 477,-108"/>
</g>
<!-- N1_7 -->
<g id="node21" class="node">
<title>N1_7</title>
<polygon fill="none" stroke="black" points="558,-82.54 558,-97.46 542.18,-108 519.82,-108 504,-97.46 504,-82.54 519.82,-72 542.18,-72 558,-82.54"/>
</g>
<!-- N1_7&#45;&#45;N1_6 -->
<g id="edge56" class="edge">
<title>N1_7&#45;&#45;N1_6</title>
<path fill="none" stroke="black" stroke-width="5" d="M503.78,-90C494.86,-90 485.17,-90 477.1,-90"/>
</g>
<!-- N1_8 -->
<g id="node22" class="node">
<title>N1_8</title>
<polygon fill="none" stroke="black" points="621,-108 585,-108 585,-72 621,-72 621,-108"/>
</g>
<!-- N2_8 -->
<g id="node35" class="node">
<title>N2_8</title>
<polygon fill="none" stroke="black" points="630,-154.54 630,-169.46 614.18,-180 591.82,-180 576,-169.46 576,-154.54 591.82,-144 614.18,-144 630,-154.54"/>
</g>
<!-- N1_8&#45;&#45;N2_8 -->
<g id="edge21" class="edge">
<title>N1_8&#45;&#45;N2_8</title>
<path fill="none" stroke="black" stroke-width="5" d="M603,-108.17C603,-119 603,-132.71 603,-143.59"/>
</g>
<!-- N1_9&#45;&#45;N1_8 -->
<g id="edge20" class="edge">
<title>N1_9&#45;&#45;N1_8</title>
<path fill="none" stroke="black" stroke-width="5" d="M647.78,-90C638.86,-90 629.17,-90 621.1,-90"/>
</g>
<!-- N2_10 -->
<g id="node37" class="node">
<title>N2_10</title>
<polygon fill="none" stroke="black" points="774,-154.54 774,-169.46 758.18,-180 735.82,-180 720,-169.46 720,-154.54 735.82,-144 758.18,-144 774,-154.54"/>
</g>
<!-- N1_9&#45;&#45;N2_10 -->
<g id="edge68" class="edge">
<title>N1_9&#45;&#45;N2_10</title>
<path fill="none" stroke="black" stroke-width="5" d="M690.62,-105.62C702.7,-117.7 719.34,-134.34 731.41,-146.41"/>
</g>
<!-- N1_10 -->
<g id="node24" class="node">
<title>N1_10</title>
<polygon fill="none" stroke="black" points="765,-108 729,-108 729,-72 765,-72 765,-108"/>
</g>
<!-- N1_10&#45;&#45;N2_10 -->
<g id="edge91" class="edge">
<title>N1_10&#45;&#45;N2_10</title>
<path fill="none" stroke="black" stroke-width="5" d="M747,-108.17C747,-119 747,-132.71 747,-143.59"/>
</g>
<!-- N1_11 -->
<g id="node25" class="node">
<title>N1_11</title>
<polygon fill="none" stroke="black" points="846,-82.54 846,-97.46 830.18,-108 807.82,-108 792,-97.46 792,-82.54 807.82,-72 830.18,-72 846,-82.54"/>
</g>
<!-- N1_11&#45;&#45;N0_10 -->
<g id="edge81" class="edge">
<title>N1_11&#45;&#45;N0_10</title>
<path fill="none" stroke="black" stroke-width="5" d="M803.38,-74.38C791.3,-62.3 774.66,-45.66 762.59,-33.59"/>
</g>
<!-- N1_11&#45;&#45;N0_12 -->
<g id="edge14" class="edge">
<title>N1_11&#45;&#45;N0_12</title>
<path fill="none" stroke="black" stroke-width="5" d="M834.62,-74.38C846.7,-62.3 863.34,-45.66 875.41,-33.59"/>
</g>
<!-- N1_11&#45;&#45;N2_10 -->
<g id="edge78" class="edge">
<title>N1_11&#45;&#45;N2_10</title>
<path fill="none" stroke="black" stroke-width="5" d="M803.38,-105.62C791.3,-117.7 774.66,-134.34 762.59,-146.41"/>
</g>
<!-- N2_11 -->
<g id="node38" class="node">
<title>N2_11</title>
<polygon fill="none" stroke="black" points="837,-180 801,-180 801,-144 837,-144 837,-180"/>
</g>
<!-- N1_11&#45;&#45;N2_11 -->
<g id="edge79" class="edge">
<title>N1_11&#45;&#45;N2_11</title>
<path fill="none" stroke="black" stroke-width="5" d="M819,-108.17C819,-119 819,-132.71 819,-143.59"/>
</g>
<!-- N1_12 -->
<g id="node26" class="node">
<title>N1_12</title>
<polygon fill="none" stroke="black" points="909,-108 873,-108 873,-72 909,-72 909,-108"/>
</g>
<!-- N1_12&#45;&#45;N1_11 -->
<g id="edge95" class="edge">
<title>N1_12&#45;&#45;N1_11</title>
<path fill="none" stroke="black" stroke-width="5" d="M872.83,-90C864.75,-90 855.06,-90 846.15,-90"/>
</g>
<!-- N2_1 -->
<g id="node28" class="node">
<title>N2_1</title>
<polygon fill="none" stroke="black" points="117,-180 81,-180 81,-144 117,-144 117,-180"/>
</g>
<!-- N2_1&#45;&#45;N2_0 -->
<g id="edge44" class="edge">
<title>N2_1&#45;&#45;N2_0</title>
<path fill="none" stroke="black" stroke-width="5" d="M80.83,-162C72.75,-162 63.06,-162 54.15,-162"/>
</g>
<!-- N2_2 -->
<g id="node29" class="node">
<title>N2_2</title>
<polygon fill="none" stroke="black" points="198,-154.54 198,-169.46 182.18,-180 159.82,-180 144,-169.46 144,-154.54 159.82,-144 182.18,-144 198,-154.54"/>
</g>
<!-- N2_2&#45;&#45;N2_1 -->
<g id="edge43" class="edge">
<title>N2_2&#45;&#45;N2_1</title>
<path fill="none" stroke="black" stroke-width="5" d="M143.78,-162C134.86,-162 125.17,-162 117.1,-162"/>
</g>
<!-- N2_3&#45;&#45;N2_2 -->
<g id="edge34" class="edge">
<title>N2_3&#45;&#45;N2_2</title>
<path fill="none" stroke="black" stroke-width="5" d="M224.83,-162C216.75,-162 207.06,-162 198.15,-162"/>
</g>
<!-- N2_5 -->
<g id="node32" class="node">
<title>N2_5</title>
<polygon fill="none" stroke="black" points="405,-180 369,-180 369,-144 405,-144 405,-180"/>
</g>
<!-- N2_5&#45;&#45;N1_5 -->
<g id="edge96" class="edge">
<title>N2_5&#45;&#45;N1_5</title>
<path fill="none" stroke="black" stroke-width="5" d="M387,-143.83C387,-133 387,-119.29 387,-108.41"/>
</g>
<!-- N2_6 -->
<g id="node33" class="node">
<title>N2_6</title>
<polygon fill="none" stroke="black" points="486,-154.54 486,-169.46 470.18,-180 447.82,-180 432,-169.46 432,-154.54 447.82,-144 470.18,-144 486,-154.54"/>
</g>
<!-- N2_6&#45;&#45;N1_6 -->
<g id="edge55" class="edge">
<title>N2_6&#45;&#45;N1_6</title>
<path fill="none" stroke="black" stroke-width="5" d="M459,-143.83C459,-133 459,-119.29 459,-108.41"/>
</g>
<!-- N3_6 -->
<g id="node46" class="node">
<title>N3_6</title>
<polygon fill="none" stroke="black" points="477,-252 441,-252 441,-216 477,-216 477,-252"/>
</g>
<!-- N2_6&#45;&#45;N3_6 -->
<g id="edge54" class="edge">
<title>N2_6&#45;&#45;N3_6</title>
<path fill="none" stroke="black" stroke-width="5" d="M459,-180.17C459,-191 459,-204.71 459,-215.59"/>
</g>
<!-- N2_7 -->
<g id="node34" class="node">
<title>N2_7</title>
<polygon fill="none" stroke="black" points="549,-180 513,-180 513,-144 549,-144 549,-180"/>
</g>
<!-- N2_7&#45;&#45;N1_7 -->
<g id="edge57" class="edge">
<title>N2_7&#45;&#45;N1_7</title>
<path fill="none" stroke="black" stroke-width="5" d="M531,-143.83C531,-133 531,-119.29 531,-108.41"/>
</g>
<!-- N2_9 -->
<g id="node36" class="node">
<title>N2_9</title>
<polygon fill="none" stroke="black" points="693,-180 657,-180 657,-144 693,-144 693,-180"/>
</g>
<!-- N2_12 -->
<g id="node39" class="node">
<title>N2_12</title>
<polygon fill="none" stroke="black" points="918,-154.54 918,-169.46 902.18,-180 879.82,-180 864,-169.46 864,-154.54 879.82,-144 902.18,-144 918,-154.54"/>
</g>
<!-- N2_12&#45;&#45;N2_11 -->
<g id="edge80" class="edge">
<title>N2_12&#45;&#45;N2_11</title>
<path fill="none" stroke="black" stroke-width="5" d="M863.78,-162C854.86,-162 845.17,-162 837.1,-162"/>
</g>
<!-- N3_0 -->
<g id="node40" class="node">
<title>N3_0</title>
<polygon fill="none" stroke="black" points="45,-252 9,-252 9,-216 45,-216 45,-252"/>
</g>
<!-- N4_0 -->
<g id="node53" class="node">
<title>N4_0</title>
<polygon fill="none" stroke="black" points="54,-298.54 54,-313.46 38.18,-324 15.82,-324 0,-313.46 0,-298.54 15.82,-288 38.18,-288 54,-298.54"/>
</g>
<!-- N3_0&#45;&#45;N4_0 -->
<g id="edge77" class="edge">
<title>N3_0&#45;&#45;N4_0</title>
<path fill="none" stroke="black" stroke-width="5" d="M27,-252.17C27,-263 27,-276.71 27,-287.59"/>
</g>
<!-- N3_1 -->
<g id="node41" class="node">
<title>N3_1</title>
<polygon fill="none" stroke="black" points="126,-226.54 126,-241.46 110.18,-252 87.82,-252 72,-241.46 72,-226.54 87.82,-216 110.18,-216 126,-226.54"/>
</g>
<!-- N3_1&#45;&#45;N4_0 -->
<g id="edge37" class="edge">
<title>N3_1&#45;&#45;N4_0</title>
<path fill="none" stroke="black" stroke-width="5" d="M83.38,-249.62C71.3,-261.7 54.66,-278.34 42.59,-290.41"/>
</g>
<!-- N3_2 -->
<g id="node42" class="node">
<title>N3_2</title>
<polygon fill="none" stroke="black" points="189,-252 153,-252 153,-216 189,-216 189,-252"/>
</g>
<!-- N3_2&#45;&#45;N2_2 -->
<g id="edge35" class="edge">
<title>N3_2&#45;&#45;N2_2</title>
<path fill="none" stroke="black" stroke-width="5" d="M171,-215.83C171,-205 171,-191.29 171,-180.41"/>
</g>
<!-- N3_2&#45;&#45;N3_1 -->
<g id="edge36" class="edge">
<title>N3_2&#45;&#45;N3_1</title>
<path fill="none" stroke="black" stroke-width="5" d="M152.83,-234C144.75,-234 135.06,-234 126.15,-234"/>
</g>
<!-- N4_2 -->
<g id="node55" class="node">
<title>N4_2</title>
<polygon fill="none" stroke="black" points="198,-298.54 198,-313.46 182.18,-324 159.82,-324 144,-313.46 144,-298.54 159.82,-288 182.18,-288 198,-298.54"/>
</g>
<!-- N3_2&#45;&#45;N4_2 -->
<g id="edge48" class="edge">
<title>N3_2&#45;&#45;N4_2</title>
<path fill="none" stroke="black" stroke-width="5" d="M171,-252.17C171,-263 171,-276.71 171,-287.59"/>
</g>
<!-- N3_3 -->
<g id="node43" class="node">
<title>N3_3</title>
<polygon fill="none" stroke="black" points="270,-226.54 270,-241.46 254.18,-252 231.82,-252 216,-241.46 216,-226.54 231.82,-216 254.18,-216 270,-226.54"/>
</g>
<!-- N3_4 -->
<g id="node44" class="node">
<title>N3_4</title>
<polygon fill="none" stroke="black" points="333,-252 297,-252 297,-216 333,-216 333,-252"/>
</g>
<!-- N3_5 -->
<g id="node45" class="node">
<title>N3_5</title>
<polygon fill="none" stroke="black" points="414,-226.54 414,-241.46 398.18,-252 375.82,-252 360,-241.46 360,-226.54 375.82,-216 398.18,-216 414,-226.54"/>
</g>
<!-- N3_5&#45;&#45;N3_4 -->
<g id="edge52" class="edge">
<title>N3_5&#45;&#45;N3_4</title>
<path fill="none" stroke="black" stroke-width="5" d="M359.78,-234C350.86,-234 341.17,-234 333.1,-234"/>
</g>
<!-- N3_6&#45;&#45;N3_5 -->
<g id="edge53" class="edge">
<title>N3_6&#45;&#45;N3_5</title>
<path fill="none" stroke="black" stroke-width="5" d="M440.83,-234C432.75,-234 423.06,-234 414.15,-234"/>
</g>
<!-- N3_7 -->
<g id="node47" class="node">
<title>N3_7</title>
<polygon fill="none" stroke="black" points="558,-226.54 558,-241.46 542.18,-252 519.82,-252 504,-241.46 504,-226.54 519.82,-216 542.18,-216 558,-226.54"/>
</g>
<!-- N4_8 -->
<g id="node61" class="node">
<title>N4_8</title>
<polygon fill="none" stroke="black" points="630,-298.54 630,-313.46 614.18,-324 591.82,-324 576,-313.46 576,-298.54 591.82,-288 614.18,-288 630,-298.54"/>
</g>
<!-- N3_7&#45;&#45;N4_8 -->
<g id="edge74" class="edge">
<title>N3_7&#45;&#45;N4_8</title>
<path fill="none" stroke="black" stroke-width="5" d="M546.62,-249.62C558.7,-261.7 575.34,-278.34 587.41,-290.41"/>
</g>
<!-- N3_8 -->
<g id="node48" class="node">
<title>N3_8</title>
<polygon fill="none" stroke="black" points="621,-252 585,-252 585,-216 621,-216 621,-252"/>
</g>
<!-- N3_8&#45;&#45;N2_8 -->
<g id="edge2" class="edge">
<title>N3_8&#45;&#45;N2_8</title>
<path fill="none" stroke="black" stroke-width="5" d="M603,-215.83C603,-205 603,-191.29 603,-180.41"/>
</g>
<!-- N3_9 -->
<g id="node49" class="node">
<title>N3_9</title>
<polygon fill="none" stroke="black" points="702,-226.54 702,-241.46 686.18,-252 663.82,-252 648,-241.46 648,-226.54 663.82,-216 686.18,-216 702,-226.54"/>
</g>
<!-- N3_9&#45;&#45;N2_8 -->
<g id="edge22" class="edge">
<title>N3_9&#45;&#45;N2_8</title>
<path fill="none" stroke="black" stroke-width="5" d="M659.38,-218.38C647.3,-206.3 630.66,-189.66 618.59,-177.59"/>
</g>
<!-- N3_9&#45;&#45;N2_9 -->
<g id="edge87" class="edge">
<title>N3_9&#45;&#45;N2_9</title>
<path fill="none" stroke="black" stroke-width="5" d="M675,-215.83C675,-205 675,-191.29 675,-180.41"/>
</g>
<!-- N4_9 -->
<g id="node62" class="node">
<title>N4_9</title>
<polygon fill="none" stroke="black" points="693,-324 657,-324 657,-288 693,-288 693,-324"/>
</g>
<!-- N3_9&#45;&#45;N4_9 -->
<g id="edge23" class="edge">
<title>N3_9&#45;&#45;N4_9</title>
<path fill="none" stroke="black" stroke-width="5" d="M675,-252.17C675,-263 675,-276.71 675,-287.59"/>
</g>
<!-- N3_10 -->
<g id="node50" class="node">
<title>N3_10</title>
<polygon fill="none" stroke="black" points="765,-252 729,-252 729,-216 765,-216 765,-252"/>
</g>
<!-- N3_10&#45;&#45;N2_10 -->
<g id="edge102" class="edge">
<title>N3_10&#45;&#45;N2_10</title>
<path fill="none" stroke="black" stroke-width="5" d="M747,-215.83C747,-205 747,-191.29 747,-180.41"/>
</g>
<!-- N3_11 -->
<g id="node51" class="node">
<title>N3_11</title>
<polygon fill="none" stroke="black" points="846,-226.54 846,-241.46 830.18,-252 807.82,-252 792,-241.46 792,-226.54 807.82,-216 830.18,-216 846,-226.54"/>
</g>
<!-- N3_12 -->
<g id="node52" class="node">
<title>N3_12</title>
<polygon fill="none" stroke="black" points="909,-252 873,-252 873,-216 909,-216 909,-252"/>
</g>
<!-- N3_12&#45;&#45;N3_11 -->
<g id="edge89" class="edge">
<title>N3_12&#45;&#45;N3_11</title>
<path fill="none" stroke="black" stroke-width="5" d="M872.83,-234C864.75,-234 855.06,-234 846.15,-234"/>
</g>
<!-- N4_1 -->
<g id="node54" class="node">
<title>N4_1</title>
<polygon fill="none" stroke="black" points="117,-324 81,-324 81,-288 117,-288 117,-324"/>
</g>
<!-- N4_1&#45;&#45;N4_0 -->
<g id="edge38" class="edge">
<title>N4_1&#45;&#45;N4_0</title>
<path fill="none" stroke="black" stroke-width="5" d="M80.83,-306C72.75,-306 63.06,-306 54.15,-306"/>
</g>
<!-- N5_1 -->
<g id="node67" class="node">
<title>N5_1</title>
<polygon fill="none" stroke="black" points="126,-370.54 126,-385.46 110.18,-396 87.82,-396 72,-385.46 72,-370.54 87.82,-360 110.18,-360 126,-370.54"/>
</g>
<!-- N4_1&#45;&#45;N5_1 -->
<g id="edge39" class="edge">
<title>N4_1&#45;&#45;N5_1</title>
<path fill="none" stroke="black" stroke-width="5" d="M99,-324.17C99,-335 99,-348.71 99,-359.59"/>
</g>
<!-- N4_2&#45;&#45;N3_3 -->
<g id="edge49" class="edge">
<title>N4_2&#45;&#45;N3_3</title>
<path fill="none" stroke="black" stroke-width="5" d="M186.62,-290.38C198.7,-278.3 215.34,-261.66 227.41,-249.59"/>
</g>
<!-- N5_2 -->
<g id="node68" class="node">
<title>N5_2</title>
<polygon fill="none" stroke="black" points="189,-396 153,-396 153,-360 189,-360 189,-396"/>
</g>
<!-- N4_2&#45;&#45;N5_2 -->
<g id="edge13" class="edge">
<title>N4_2&#45;&#45;N5_2</title>
<path fill="none" stroke="black" stroke-width="5" d="M171,-324.17C171,-335 171,-348.71 171,-359.59"/>
</g>
<!-- N4_3 -->
<g id="node56" class="node">
<title>N4_3</title>
<polygon fill="none" stroke="black" points="261,-324 225,-324 225,-288 261,-288 261,-324"/>
</g>
<!-- N5_3 -->
<g id="node69" class="node">
<title>N5_3</title>
<polygon fill="none" stroke="black" points="270,-370.54 270,-385.46 254.18,-396 231.82,-396 216,-385.46 216,-370.54 231.82,-360 254.18,-360 270,-370.54"/>
</g>
<!-- N4_3&#45;&#45;N5_3 -->
<g id="edge42" class="edge">
<title>N4_3&#45;&#45;N5_3</title>
<path fill="none" stroke="black" stroke-width="5" d="M243,-324.17C243,-335 243,-348.71 243,-359.59"/>
</g>
<!-- N4_4 -->
<g id="node57" class="node">
<title>N4_4</title>
<polygon fill="none" stroke="black" points="342,-298.54 342,-313.46 326.18,-324 303.82,-324 288,-313.46 288,-298.54 303.82,-288 326.18,-288 342,-298.54"/>
</g>
<!-- N4_4&#45;&#45;N3_3 -->
<g id="edge50" class="edge">
<title>N4_4&#45;&#45;N3_3</title>
<path fill="none" stroke="black" stroke-width="5" d="M299.38,-290.38C287.3,-278.3 270.66,-261.66 258.59,-249.59"/>
</g>
<!-- N4_4&#45;&#45;N3_4 -->
<g id="edge51" class="edge">
<title>N4_4&#45;&#45;N3_4</title>
<path fill="none" stroke="black" stroke-width="5" d="M315,-287.83C315,-277 315,-263.29 315,-252.41"/>
</g>
<!-- N4_5 -->
<g id="node58" class="node">
<title>N4_5</title>
<polygon fill="none" stroke="black" points="405,-324 369,-324 369,-288 405,-288 405,-324"/>
</g>
<!-- N4_5&#45;&#45;N4_4 -->
<g id="edge70" class="edge">
<title>N4_5&#45;&#45;N4_4</title>
<path fill="none" stroke="black" stroke-width="5" d="M368.83,-306C360.75,-306 351.06,-306 342.15,-306"/>
</g>
<!-- N4_6 -->
<g id="node59" class="node">
<title>N4_6</title>
<polygon fill="none" stroke="black" points="486,-298.54 486,-313.46 470.18,-324 447.82,-324 432,-313.46 432,-298.54 447.82,-288 470.18,-288 486,-298.54"/>
</g>
<!-- N4_5&#45;&#45;N4_6 -->
<g id="edge71" class="edge">
<title>N4_5&#45;&#45;N4_6</title>
<path fill="none" stroke="black" stroke-width="5" d="M405.17,-306C413.25,-306 422.94,-306 431.85,-306"/>
</g>
<!-- N4_7 -->
<g id="node60" class="node">
<title>N4_7</title>
<polygon fill="none" stroke="black" points="549,-324 513,-324 513,-288 549,-288 549,-324"/>
</g>
<!-- N4_7&#45;&#45;N4_6 -->
<g id="edge72" class="edge">
<title>N4_7&#45;&#45;N4_6</title>
<path fill="none" stroke="black" stroke-width="5" d="M512.83,-306C504.75,-306 495.06,-306 486.15,-306"/>
</g>
<!-- N4_8&#45;&#45;N4_7 -->
<g id="edge73" class="edge">
<title>N4_8&#45;&#45;N4_7</title>
<path fill="none" stroke="black" stroke-width="5" d="M575.78,-306C566.86,-306 557.17,-306 549.1,-306"/>
</g>
<!-- N4_10 -->
<g id="node63" class="node">
<title>N4_10</title>
<polygon fill="none" stroke="black" points="774,-298.54 774,-313.46 758.18,-324 735.82,-324 720,-313.46 720,-298.54 735.82,-288 758.18,-288 774,-298.54"/>
</g>
<!-- N4_10&#45;&#45;N3_11 -->
<g id="edge88" class="edge">
<title>N4_10&#45;&#45;N3_11</title>
<path fill="none" stroke="black" stroke-width="5" d="M762.62,-290.38C774.7,-278.3 791.34,-261.66 803.41,-249.59"/>
</g>
<!-- N4_10&#45;&#45;N4_9 -->
<g id="edge24" class="edge">
<title>N4_10&#45;&#45;N4_9</title>
<path fill="none" stroke="black" stroke-width="5" d="M719.78,-306C710.86,-306 701.17,-306 693.1,-306"/>
</g>
<!-- N5_9 -->
<g id="node75" class="node">
<title>N5_9</title>
<polygon fill="none" stroke="black" points="702,-370.54 702,-385.46 686.18,-396 663.82,-396 648,-385.46 648,-370.54 663.82,-360 686.18,-360 702,-370.54"/>
</g>
<!-- N4_10&#45;&#45;N5_9 -->
<g id="edge25" class="edge">
<title>N4_10&#45;&#45;N5_9</title>
<path fill="none" stroke="black" stroke-width="5" d="M731.38,-321.62C719.3,-333.7 702.66,-350.34 690.59,-362.41"/>
</g>
<!-- N5_11 -->
<g id="node77" class="node">
<title>N5_11</title>
<polygon fill="none" stroke="black" points="846,-370.54 846,-385.46 830.18,-396 807.82,-396 792,-385.46 792,-370.54 807.82,-360 830.18,-360 846,-370.54"/>
</g>
<!-- N4_10&#45;&#45;N5_11 -->
<g id="edge66" class="edge">
<title>N4_10&#45;&#45;N5_11</title>
<path fill="none" stroke="black" stroke-width="5" d="M762.62,-321.62C774.7,-333.7 791.34,-350.34 803.41,-362.41"/>
</g>
<!-- N4_11 -->
<g id="node64" class="node">
<title>N4_11</title>
<polygon fill="none" stroke="black" points="837,-324 801,-324 801,-288 837,-288 837,-324"/>
</g>
<!-- N4_11&#45;&#45;N4_10 -->
<g id="edge98" class="edge">
<title>N4_11&#45;&#45;N4_10</title>
<path fill="none" stroke="black" stroke-width="5" d="M800.83,-306C792.75,-306 783.06,-306 774.15,-306"/>
</g>
<!-- N4_12 -->
<g id="node65" class="node">
<title>N4_12</title>
<polygon fill="none" stroke="black" points="918,-298.54 918,-313.46 902.18,-324 879.82,-324 864,-313.46 864,-298.54 879.82,-288 902.18,-288 918,-298.54"/>
</g>
<!-- N4_12&#45;&#45;N3_12 -->
<g id="edge90" class="edge">
<title>N4_12&#45;&#45;N3_12</title>
<path fill="none" stroke="black" stroke-width="5" d="M891,-287.83C891,-277 891,-263.29 891,-252.41"/>
</g>
<!-- N5_12 -->
<g id="node78" class="node">
<title>N5_12</title>
<polygon fill="none" stroke="black" points="909,-396 873,-396 873,-360 909,-360 909,-396"/>
</g>
<!-- N4_12&#45;&#45;N5_12 -->
<g id="edge9" class="edge">
<title>N4_12&#45;&#45;N5_12</title>
<path fill="none" stroke="black" stroke-width="5" d="M891,-324.17C891,-335 891,-348.71 891,-359.59"/>
</g>
<!-- N5_0 -->
<g id="node66" class="node">
<title>N5_0</title>
<polygon fill="none" stroke="black" points="45,-396 9,-396 9,-360 45,-360 45,-396"/>
</g>
<!-- N5_0&#45;&#45;N4_0 -->
<g id="edge75" class="edge">
<title>N5_0&#45;&#45;N4_0</title>
<path fill="none" stroke="black" stroke-width="5" d="M27,-359.83C27,-349 27,-335.29 27,-324.41"/>
</g>
<!-- N5_4 -->
<g id="node70" class="node">
<title>N5_4</title>
<polygon fill="none" stroke="black" points="333,-396 297,-396 297,-360 333,-360 333,-396"/>
</g>
<!-- N5_4&#45;&#45;N5_3 -->
<g id="edge59" class="edge">
<title>N5_4&#45;&#45;N5_3</title>
<path fill="none" stroke="black" stroke-width="5" d="M296.83,-378C288.75,-378 279.06,-378 270.15,-378"/>
</g>
<!-- N5_5 -->
<g id="node71" class="node">
<title>N5_5</title>
<polygon fill="none" stroke="black" points="414,-370.54 414,-385.46 398.18,-396 375.82,-396 360,-385.46 360,-370.54 375.82,-360 398.18,-360 414,-370.54"/>
</g>
<!-- N5_5&#45;&#45;N5_4 -->
<g id="edge60" class="edge">
<title>N5_5&#45;&#45;N5_4</title>
<path fill="none" stroke="black" stroke-width="5" d="M359.78,-378C350.86,-378 341.17,-378 333.1,-378"/>
</g>
<!-- N6_5 -->
<g id="node84" class="node">
<title>N6_5</title>
<polygon fill="none" stroke="black" points="405,-468 369,-468 369,-432 405,-432 405,-468"/>
</g>
<!-- N5_5&#45;&#45;N6_5 -->
<g id="edge61" class="edge">
<title>N5_5&#45;&#45;N6_5</title>
<path fill="none" stroke="black" stroke-width="5" d="M387,-396.17C387,-407 387,-420.71 387,-431.59"/>
</g>
<!-- N6_6 -->
<g id="node85" class="node">
<title>N6_6</title>
<polygon fill="none" stroke="black" points="486,-442.54 486,-457.46 470.18,-468 447.82,-468 432,-457.46 432,-442.54 447.82,-432 470.18,-432 486,-442.54"/>
</g>
<!-- N5_5&#45;&#45;N6_6 -->
<g id="edge11" class="edge">
<title>N5_5&#45;&#45;N6_6</title>
<path fill="none" stroke="black" stroke-width="5" d="M402.62,-393.62C414.7,-405.7 431.34,-422.34 443.41,-434.41"/>
</g>
<!-- N5_6 -->
<g id="node72" class="node">
<title>N5_6</title>
<polygon fill="none" stroke="black" points="477,-396 441,-396 441,-360 477,-360 477,-396"/>
</g>
<!-- N5_6&#45;&#45;N5_5 -->
<g id="edge1" class="edge">
<title>N5_6&#45;&#45;N5_5</title>
<path fill="none" stroke="black" stroke-width="5" d="M440.83,-378C432.75,-378 423.06,-378 414.15,-378"/>
</g>
<!-- N5_7 -->
<g id="node73" class="node">
<title>N5_7</title>
<polygon fill="none" stroke="black" points="558,-370.54 558,-385.46 542.18,-396 519.82,-396 504,-385.46 504,-370.54 519.82,-360 542.18,-360 558,-370.54"/>
</g>
<!-- N6_7 -->
<g id="node86" class="node">
<title>N6_7</title>
<polygon fill="none" stroke="black" points="549,-468 513,-468 513,-432 549,-432 549,-468"/>
</g>
<!-- N5_7&#45;&#45;N6_7 -->
<g id="edge12" class="edge">
<title>N5_7&#45;&#45;N6_7</title>
<path fill="none" stroke="black" stroke-width="5" d="M531,-396.17C531,-407 531,-420.71 531,-431.59"/>
</g>
<!-- N5_8 -->
<g id="node74" class="node">
<title>N5_8</title>
<polygon fill="none" stroke="black" points="621,-396 585,-396 585,-360 621,-360 621,-396"/>
</g>
<!-- N5_8&#45;&#45;N5_7 -->
<g id="edge97" class="edge">
<title>N5_8&#45;&#45;N5_7</title>
<path fill="none" stroke="black" stroke-width="5" d="M584.83,-378C576.75,-378 567.06,-378 558.15,-378"/>
</g>
<!-- N5_8&#45;&#45;N5_9 -->
<g id="edge26" class="edge">
<title>N5_8&#45;&#45;N5_9</title>
<path fill="none" stroke="black" stroke-width="5" d="M621.17,-378C629.25,-378 638.94,-378 647.85,-378"/>
</g>
<!-- N6_8 -->
<g id="node87" class="node">
<title>N6_8</title>
<polygon fill="none" stroke="black" points="630,-442.54 630,-457.46 614.18,-468 591.82,-468 576,-457.46 576,-442.54 591.82,-432 614.18,-432 630,-442.54"/>
</g>
<!-- N5_8&#45;&#45;N6_8 -->
<g id="edge27" class="edge">
<title>N5_8&#45;&#45;N6_8</title>
<path fill="none" stroke="black" stroke-width="5" d="M603,-396.17C603,-407 603,-420.71 603,-431.59"/>
</g>
<!-- N5_10 -->
<g id="node76" class="node">
<title>N5_10</title>
<polygon fill="none" stroke="black" points="765,-396 729,-396 729,-360 765,-360 765,-396"/>
</g>
<!-- N6_12 -->
<g id="node91" class="node">
<title>N6_12</title>
<polygon fill="none" stroke="black" points="918,-442.54 918,-457.46 902.18,-468 879.82,-468 864,-457.46 864,-442.54 879.82,-432 902.18,-432 918,-442.54"/>
</g>
<!-- N5_11&#45;&#45;N6_12 -->
<g id="edge67" class="edge">
<title>N5_11&#45;&#45;N6_12</title>
<path fill="none" stroke="black" stroke-width="5" d="M834.62,-393.62C846.7,-405.7 863.34,-422.34 875.41,-434.41"/>
</g>
<!-- N6_0 -->
<g id="node79" class="node">
<title>N6_0</title>
<polygon fill="none" stroke="black" points="54,-442.54 54,-457.46 38.18,-468 15.82,-468 0,-457.46 0,-442.54 15.82,-432 38.18,-432 54,-442.54"/>
</g>
<!-- N6_0&#45;&#45;N5_1 -->
<g id="edge69" class="edge">
<title>N6_0&#45;&#45;N5_1</title>
<path fill="none" stroke="black" stroke-width="5" d="M42.62,-434.38C54.7,-422.3 71.34,-405.66 83.41,-393.59"/>
</g>
<!-- N7_0 -->
<g id="node92" class="node">
<title>N7_0</title>
<polygon fill="none" stroke="black" points="45,-540 9,-540 9,-504 45,-504 45,-540"/>
</g>
<!-- N6_0&#45;&#45;N7_0 -->
<g id="edge92" class="edge">
<title>N6_0&#45;&#45;N7_0</title>
<path fill="none" stroke="black" stroke-width="5" d="M27,-468.17C27,-479 27,-492.71 27,-503.59"/>
</g>
<!-- N6_1 -->
<g id="node80" class="node">
<title>N6_1</title>
<polygon fill="none" stroke="black" points="117,-468 81,-468 81,-432 117,-432 117,-468"/>
</g>
<!-- N7_1 -->
<g id="node93" class="node">
<title>N7_1</title>
<polygon fill="none" stroke="black" points="126,-514.54 126,-529.46 110.18,-540 87.82,-540 72,-529.46 72,-514.54 87.82,-504 110.18,-504 126,-514.54"/>
</g>
<!-- N6_1&#45;&#45;N7_1 -->
<g id="edge94" class="edge">
<title>N6_1&#45;&#45;N7_1</title>
<path fill="none" stroke="black" stroke-width="5" d="M99,-468.17C99,-479 99,-492.71 99,-503.59"/>
</g>
<!-- N6_2 -->
<g id="node81" class="node">
<title>N6_2</title>
<polygon fill="none" stroke="black" points="198,-442.54 198,-457.46 182.18,-468 159.82,-468 144,-457.46 144,-442.54 159.82,-432 182.18,-432 198,-442.54"/>
</g>
<!-- N6_2&#45;&#45;N5_1 -->
<g id="edge40" class="edge">
<title>N6_2&#45;&#45;N5_1</title>
<path fill="none" stroke="black" stroke-width="5" d="M155.38,-434.38C143.3,-422.3 126.66,-405.66 114.59,-393.59"/>
</g>
<!-- N6_2&#45;&#45;N5_3 -->
<g id="edge41" class="edge">
<title>N6_2&#45;&#45;N5_3</title>
<path fill="none" stroke="black" stroke-width="5" d="M186.62,-434.38C198.7,-422.3 215.34,-405.66 227.41,-393.59"/>
</g>
<!-- N6_3 -->
<g id="node82" class="node">
<title>N6_3</title>
<polygon fill="none" stroke="black" points="261,-468 225,-468 225,-432 261,-432 261,-468"/>
</g>
<!-- N6_3&#45;&#45;N5_3 -->
<g id="edge99" class="edge">
<title>N6_3&#45;&#45;N5_3</title>
<path fill="none" stroke="black" stroke-width="5" d="M243,-431.83C243,-421 243,-407.29 243,-396.41"/>
</g>
<!-- N6_4 -->
<g id="node83" class="node">
<title>N6_4</title>
<polygon fill="none" stroke="black" points="342,-442.54 342,-457.46 326.18,-468 303.82,-468 288,-457.46 288,-442.54 303.82,-432 326.18,-432 342,-442.54"/>
</g>
<!-- N7_7 -->
<g id="node99" class="node">
<title>N7_7</title>
<polygon fill="none" stroke="black" points="558,-514.54 558,-529.46 542.18,-540 519.82,-540 504,-529.46 504,-514.54 519.82,-504 542.18,-504 558,-514.54"/>
</g>
<!-- N6_8&#45;&#45;N7_7 -->
<g id="edge58" class="edge">
<title>N6_8&#45;&#45;N7_7</title>
<path fill="none" stroke="black" stroke-width="5" d="M587.38,-465.62C575.3,-477.7 558.66,-494.34 546.59,-506.41"/>
</g>
<!-- N7_8 -->
<g id="node100" class="node">
<title>N7_8</title>
<polygon fill="none" stroke="black" points="621,-540 585,-540 585,-504 621,-504 621,-540"/>
</g>
<!-- N6_8&#45;&#45;N7_8 -->
<g id="edge100" class="edge">
<title>N6_8&#45;&#45;N7_8</title>
<path fill="none" stroke="black" stroke-width="5" d="M603,-468.17C603,-479 603,-492.71 603,-503.59"/>
</g>
<!-- N7_9 -->
<g id="node101" class="node">
<title>N7_9</title>
<polygon fill="none" stroke="black" points="702,-514.54 702,-529.46 686.18,-540 663.82,-540 648,-529.46 648,-514.54 663.82,-504 686.18,-504 702,-514.54"/>
</g>
<!-- N6_8&#45;&#45;N7_9 -->
<g id="edge28" class="edge">
<title>N6_8&#45;&#45;N7_9</title>
<path fill="none" stroke="black" stroke-width="5" d="M618.62,-465.62C630.7,-477.7 647.34,-494.34 659.41,-506.41"/>
</g>
<!-- N6_9 -->
<g id="node88" class="node">
<title>N6_9</title>
<polygon fill="none" stroke="black" points="693,-468 657,-468 657,-432 693,-432 693,-468"/>
</g>
<!-- N6_10 -->
<g id="node89" class="node">
<title>N6_10</title>
<polygon fill="none" stroke="black" points="774,-442.54 774,-457.46 758.18,-468 735.82,-468 720,-457.46 720,-442.54 735.82,-432 758.18,-432 774,-442.54"/>
</g>
<!-- N6_10&#45;&#45;N5_10 -->
<g id="edge7" class="edge">
<title>N6_10&#45;&#45;N5_10</title>
<path fill="none" stroke="black" stroke-width="5" d="M747,-431.83C747,-421 747,-407.29 747,-396.41"/>
</g>
<!-- N6_10&#45;&#45;N6_9 -->
<g id="edge6" class="edge">
<title>N6_10&#45;&#45;N6_9</title>
<path fill="none" stroke="black" stroke-width="5" d="M719.78,-450C710.86,-450 701.17,-450 693.1,-450"/>
</g>
<!-- N6_10&#45;&#45;N7_9 -->
<g id="edge29" class="edge">
<title>N6_10&#45;&#45;N7_9</title>
<path fill="none" stroke="black" stroke-width="5" d="M731.38,-465.62C719.3,-477.7 702.66,-494.34 690.59,-506.41"/>
</g>
<!-- N6_11 -->
<g id="node90" class="node">
<title>N6_11</title>
<polygon fill="none" stroke="black" points="837,-468 801,-468 801,-432 837,-432 837,-468"/>
</g>
<!-- N6_11&#45;&#45;N6_10 -->
<g id="edge30" class="edge">
<title>N6_11&#45;&#45;N6_10</title>
<path fill="none" stroke="black" stroke-width="5" d="M800.83,-450C792.75,-450 783.06,-450 774.15,-450"/>
</g>
<!-- N7_11 -->
<g id="node103" class="node">
<title>N7_11</title>
<polygon fill="none" stroke="black" points="846,-514.54 846,-529.46 830.18,-540 807.82,-540 792,-529.46 792,-514.54 807.82,-504 830.18,-504 846,-514.54"/>
</g>
<!-- N6_11&#45;&#45;N7_11 -->
<g id="edge31" class="edge">
<title>N6_11&#45;&#45;N7_11</title>
<path fill="none" stroke="black" stroke-width="5" d="M819,-468.17C819,-479 819,-492.71 819,-503.59"/>
</g>
<!-- N7_1&#45;&#45;N7_0 -->
<g id="edge93" class="edge">
<title>N7_1&#45;&#45;N7_0</title>
<path fill="none" stroke="black" stroke-width="5" d="M71.78,-522C62.86,-522 53.17,-522 45.1,-522"/>
</g>
<!-- N7_2 -->
<g id="node94" class="node">
<title>N7_2</title>
<polygon fill="none" stroke="black" points="189,-540 153,-540 153,-504 189,-504 189,-540"/>
</g>
<!-- N7_3 -->
<g id="node95" class="node">
<title>N7_3</title>
<polygon fill="none" stroke="black" points="270,-514.54 270,-529.46 254.18,-540 231.82,-540 216,-529.46 216,-514.54 231.82,-504 254.18,-504 270,-514.54"/>
</g>
<!-- N7_3&#45;&#45;N6_4 -->
<g id="edge85" class="edge">
<title>N7_3&#45;&#45;N6_4</title>
<path fill="none" stroke="black" stroke-width="5" d="M258.62,-506.38C270.7,-494.3 287.34,-477.66 299.41,-465.59"/>
</g>
<!-- N7_3&#45;&#45;N7_2 -->
<g id="edge86" class="edge">
<title>N7_3&#45;&#45;N7_2</title>
<path fill="none" stroke="black" stroke-width="5" d="M215.78,-522C206.86,-522 197.17,-522 189.1,-522"/>
</g>
<!-- N7_4 -->
<g id="node96" class="node">
<title>N7_4</title>
<polygon fill="none" stroke="black" points="333,-540 297,-540 297,-504 333,-504 333,-540"/>
</g>
<!-- N7_4&#45;&#45;N6_4 -->
<g id="edge84" class="edge">
<title>N7_4&#45;&#45;N6_4</title>
<path fill="none" stroke="black" stroke-width="5" d="M315,-503.83C315,-493 315,-479.29 315,-468.41"/>
</g>
<!-- N7_5 -->
<g id="node97" class="node">
<title>N7_5</title>
<polygon fill="none" stroke="black" points="414,-514.54 414,-529.46 398.18,-540 375.82,-540 360,-529.46 360,-514.54 375.82,-504 398.18,-504 414,-514.54"/>
</g>
<!-- N7_5&#45;&#45;N6_5 -->
<g id="edge62" class="edge">
<title>N7_5&#45;&#45;N6_5</title>
<path fill="none" stroke="black" stroke-width="5" d="M387,-503.83C387,-493 387,-479.29 387,-468.41"/>
</g>
<!-- N7_5&#45;&#45;N7_4 -->
<g id="edge83" class="edge">
<title>N7_5&#45;&#45;N7_4</title>
<path fill="none" stroke="black" stroke-width="5" d="M359.78,-522C350.86,-522 341.17,-522 333.1,-522"/>
</g>
<!-- N7_6 -->
<g id="node98" class="node">
<title>N7_6</title>
<polygon fill="none" stroke="black" points="477,-540 441,-540 441,-504 477,-504 477,-540"/>
</g>
<!-- N7_6&#45;&#45;N7_7 -->
<g id="edge76" class="edge">
<title>N7_6&#45;&#45;N7_7</title>
<path fill="none" stroke="black" stroke-width="5" d="M477.17,-522C485.25,-522 494.94,-522 503.85,-522"/>
</g>
<!-- N7_10 -->
<g id="node102" class="node">
<title>N7_10</title>
<polygon fill="none" stroke="black" points="765,-540 729,-540 729,-504 765,-504 765,-540"/>
</g>
<!-- N7_10&#45;&#45;N7_9 -->
<g id="edge8" class="edge">
<title>N7_10&#45;&#45;N7_9</title>
<path fill="none" stroke="black" stroke-width="5" d="M728.83,-522C720.75,-522 711.06,-522 702.15,-522"/>
</g>
<!-- N7_12 -->
<g id="node104" class="node">
<title>N7_12</title>
<polygon fill="none" stroke="black" points="909,-540 873,-540 873,-504 909,-504 909,-540"/>
</g>
<!-- N7_12&#45;&#45;N6_12 -->
<g id="edge3" class="edge">
<title>N7_12&#45;&#45;N6_12</title>
<path fill="none" stroke="black" stroke-width="5" d="M891,-503.83C891,-493 891,-479.29 891,-468.41"/>
</g>
</g>
</svg>
