<?xml version="1.0" encoding="UTF-8" standalone="no"?>
<!DOCTYPE svg PUBLIC "-//W3C//DTD SVG 1.1//EN"
 "http://www.w3.org/Graphics/SVG/1.1/DTD/svg11.dtd">
<!-- Generated by graphviz version 2.43.0 (0)
 -->
<!-- Title: %3 Pages: 1 -->
<svg width="1052pt" height="548pt"
 viewBox="0.00 0.00 1052.00 548.00" xmlns="http://www.w3.org/2000/svg" xmlns:xlink="http://www.w3.org/1999/xlink">
<g id="graph0" class="graph" transform="scale(1 1) rotate(0) translate(4 544)">
<title>%3</title>
<polygon fill="white" stroke="transparent" points="-4,4 -4,-544 1048,-544 1048,4 -4,4"/>
<!-- N0_0 -->
<g id="node1" class="node">
<title>N0_0</title>
<polygon fill="none" stroke="black" points="108,-36 72,-36 72,0 108,0 108,-36"/>
</g>
<!-- A0 -->
<g id="node105" class="node">
<title>A0</title>
<ellipse fill="none" stroke="black" cx="18" cy="-18" rx="18" ry="18"/>
<text text-anchor="middle" x="18" y="-14.3" font-family="Times,serif" font-size="14.00">0</text>
</g>
<!-- N0_0&#45;&#45;A0 -->
<g id="edge5" class="edge">
<title>N0_0&#45;&#45;A0</title>
<path fill="none" stroke="black" stroke-width="2" d="M71.83,-18C61,-18 47.29,-18 36.41,-18"/>
</g>
<!-- N0_1 -->
<g id="node2" class="node">
<title>N0_1</title>
<polygon fill="none" stroke="black" points="180,-36 144,-36 144,0 180,0 180,-36"/>
</g>
<!-- N0_1&#45;&#45;N0_0 -->
<g id="edge4" class="edge">
<title>N0_1&#45;&#45;N0_0</title>
<path fill="none" stroke="black" stroke-width="5" d="M143.83,-18C133,-18 119.29,-18 108.41,-18"/>
</g>
<!-- N1_1 -->
<g id="node15" class="node">
<title>N1_1</title>
<polygon fill="none" stroke="black" points="180,-108 144,-108 144,-72 180,-72 180,-108"/>
</g>
<!-- N0_1&#45;&#45;N1_1 -->
<g id="edge3" class="edge">
<title>N0_1&#45;&#45;N1_1</title>
<path fill="none" stroke="black" stroke-width="5" d="M162,-36.17C162,-47 162,-60.71 162,-71.59"/>
</g>
<!-- N0_2 -->
<g id="node3" class="node">
<title>N0_2</title>
<polygon fill="none" stroke="black" points="252,-36 216,-36 216,0 252,0 252,-36"/>
</g>
<!-- N1_2 -->
<g id="node16" class="node">
<title>N1_2</title>
<polygon fill="none" stroke="black" points="252,-108 216,-108 216,-72 252,-72 252,-108"/>
</g>
<!-- N0_2&#45;&#45;N1_2 -->
<g id="edge27" class="edge">
<title>N0_2&#45;&#45;N1_2</title>
<path fill="none" stroke="black" stroke-width="5" d="M234,-36.17C234,-47 234,-60.71 234,-71.59"/>
</g>
<!-- N0_3 -->
<g id="node4" class="node">
<title>N0_3</title>
<polygon fill="none" stroke="black" points="324,-36 288,-36 288,0 324,0 324,-36"/>
</g>
<!-- N0_3&#45;&#45;N0_2 -->
<g id="edge28" class="edge">
<title>N0_3&#45;&#45;N0_2</title>
<path fill="none" stroke="black" stroke-width="5" d="M287.83,-18C277,-18 263.29,-18 252.41,-18"/>
</g>
<!-- N0_4 -->
<g id="node5" class="node">
<title>N0_4</title>
<polygon fill="none" stroke="black" points="396,-36 360,-36 360,0 396,0 396,-36"/>
</g>
<!-- N0_3&#45;&#45;N0_4 -->
<g id="edge29" class="edge">
<title>N0_3&#45;&#45;N0_4</title>
<path fill="none" stroke="black" stroke-width="5" d="M324.17,-18C335,-18 348.71,-18 359.59,-18"/>
</g>
<!-- N0_5 -->
<g id="node6" class="node">
<title>N0_5</title>
<polygon fill="none" stroke="black" points="468,-36 432,-36 432,0 468,0 468,-36"/>
</g>
<!-- N0_6 -->
<g id="node7" class="node">
<title>N0_6</title>
<polygon fill="none" stroke="black" points="540,-36 504,-36 504,0 540,0 540,-36"/>
</g>
<!-- N0_6&#45;&#45;N0_5 -->
<g id="edge10" class="edge">
<title>N0_6&#45;&#45;N0_5</title>
<path fill="none" stroke="black" stroke-width="5" d="M503.83,-18C493,-18 479.29,-18 468.41,-18"/>
</g>
<!-- N0_7 -->
<g id="node8" class="node">
<title>N0_7</title>
<polygon fill="none" stroke="black" points="612,-36 576,-36 576,0 612,0 612,-36"/>
</g>
<!-- N0_7&#45;&#45;N0_6 -->
<g id="edge11" class="edge">
<title>N0_7&#45;&#45;N0_6</title>
<path fill="none" stroke="black" stroke-width="5" d="M575.83,-18C565,-18 551.29,-18 540.41,-18"/>
</g>
<!-- N0_8 -->
<g id="node9" class="node">
<title>N0_8</title>
<polygon fill="none" stroke="black" points="684,-36 648,-36 648,0 684,0 684,-36"/>
</g>
<!-- N1_8 -->
<g id="node22" class="node">
<title>N1_8</title>
<polygon fill="none" stroke="black" points="684,-108 648,-108 648,-72 684,-72 684,-108"/>
</g>
<!-- N0_8&#45;&#45;N1_8 -->
<g id="edge30" class="edge">
<title>N0_8&#45;&#45;N1_8</title>
<path fill="none" stroke="black" stroke-width="5" d="M666,-36.17C666,-47 666,-60.71 666,-71.59"/>
</g>
<!-- N0_9 -->
<g id="node10" class="node">
<title>N0_9</title>
<polygon fill="none" stroke="black" points="756,-36 720,-36 720,0 756,0 756,-36"/>
</g>
<!-- N0_9&#45;&#45;N0_8 -->
<g id="edge84" class="edge">
<title>N0_9&#45;&#45;N0_8</title>
<path fill="none" stroke="black" stroke-width="5" d="M719.83,-18C709,-18 695.29,-18 684.41,-18"/>
</g>
<!-- N0_10 -->
<g id="node11" class="node">
<title>N0_10</title>
<polygon fill="none" stroke="black" points="828,-36 792,-36 792,0 828,0 828,-36"/>
</g>
<!-- N1_10 -->
<g id="node24" class="node">
<title>N1_10</title>
<polygon fill="none" stroke="black" points="828,-108 792,-108 792,-72 828,-72 828,-108"/>
</g>
<!-- N0_10&#45;&#45;N1_10 -->
<g id="edge66" class="edge">
<title>N0_10&#45;&#45;N1_10</title>
<path fill="none" stroke="black" stroke-width="5" d="M810,-36.17C810,-47 810,-60.71 810,-71.59"/>
</g>
<!-- N0_11 -->
<g id="node12" class="node">
<title>N0_11</title>
<polygon fill="none" stroke="black" points="900,-36 864,-36 864,0 900,0 900,-36"/>
</g>
<!-- N0_12 -->
<g id="node13" class="node">
<title>N0_12</title>
<polygon fill="none" stroke="black" points="972,-36 936,-36 936,0 972,0 972,-36"/>
</g>
<!-- N0_11&#45;&#45;N0_12 -->
<g id="edge7" class="edge">
<title>N0_11&#45;&#45;N0_12</title>
<path fill="none" stroke="black" stroke-width="5" d="M900.17,-18C911,-18 924.71,-18 935.59,-18"/>
</g>
<!-- N1_11 -->
<g id="node25" class="node">
<title>N1_11</title>
<polygon fill="none" stroke="black" points="900,-108 864,-108 864,-72 900,-72 900,-108"/>
</g>
<!-- N0_11&#45;&#45;N1_11 -->
<g id="edge8" class="edge">
<title>N0_11&#45;&#45;N1_11</title>
<path fill="none" stroke="black" stroke-width="5" d="M882,-36.17C882,-47 882,-60.71 882,-71.59"/>
</g>
<!-- N1_0 -->
<g id="node14" class="node">
<title>N1_0</title>
<polygon fill="none" stroke="black" points="108,-108 72,-108 72,-72 108,-72 108,-108"/>
</g>
<!-- N1_2&#45;&#45;N1_1 -->
<g id="edge26" class="edge">
<title>N1_2&#45;&#45;N1_1</title>
<path fill="none" stroke="black" stroke-width="5" d="M215.83,-90C205,-90 191.29,-90 180.41,-90"/>
</g>
<!-- N1_3 -->
<g id="node17" class="node">
<title>N1_3</title>
<polygon fill="none" stroke="black" points="324,-108 288,-108 288,-72 324,-72 324,-108"/>
</g>
<!-- N1_3&#45;&#45;N1_2 -->
<g id="edge50" class="edge">
<title>N1_3&#45;&#45;N1_2</title>
<path fill="none" stroke="black" stroke-width="5" d="M287.83,-90C277,-90 263.29,-90 252.41,-90"/>
</g>
<!-- N1_4 -->
<g id="node18" class="node">
<title>N1_4</title>
<polygon fill="none" stroke="black" points="396,-108 360,-108 360,-72 396,-72 396,-108"/>
</g>
<!-- N1_5 -->
<g id="node19" class="node">
<title>N1_5</title>
<polygon fill="none" stroke="black" points="468,-108 432,-108 432,-72 468,-72 468,-108"/>
</g>
<!-- N1_5&#45;&#45;N0_5 -->
<g id="edge9" class="edge">
<title>N1_5&#45;&#45;N0_5</title>
<path fill="none" stroke="black" stroke-width="5" d="M450,-71.83C450,-61 450,-47.29 450,-36.41"/>
</g>
<!-- N1_5&#45;&#45;N1_4 -->
<g id="edge106" class="edge">
<title>N1_5&#45;&#45;N1_4</title>
<path fill="none" stroke="black" stroke-width="5" d="M431.83,-90C421,-90 407.29,-90 396.41,-90"/>
</g>
<!-- N1_6 -->
<g id="node20" class="node">
<title>N1_6</title>
<polygon fill="none" stroke="black" points="540,-108 504,-108 504,-72 540,-72 540,-108"/>
</g>
<!-- N1_6&#45;&#45;N1_5 -->
<g id="edge105" class="edge">
<title>N1_6&#45;&#45;N1_5</title>
<path fill="none" stroke="black" stroke-width="5" d="M503.83,-90C493,-90 479.29,-90 468.41,-90"/>
</g>
<!-- N1_7 -->
<g id="node21" class="node">
<title>N1_7</title>
<polygon fill="none" stroke="black" points="612,-108 576,-108 576,-72 612,-72 612,-108"/>
</g>
<!-- N1_6&#45;&#45;N1_7 -->
<g id="edge104" class="edge">
<title>N1_6&#45;&#45;N1_7</title>
<path fill="none" stroke="black" stroke-width="5" d="M540.17,-90C551,-90 564.71,-90 575.59,-90"/>
</g>
<!-- N1_8&#45;&#45;N1_7 -->
<g id="edge103" class="edge">
<title>N1_8&#45;&#45;N1_7</title>
<path fill="none" stroke="black" stroke-width="5" d="M647.83,-90C637,-90 623.29,-90 612.41,-90"/>
</g>
<!-- N1_9 -->
<g id="node23" class="node">
<title>N1_9</title>
<polygon fill="none" stroke="black" points="756,-108 720,-108 720,-72 756,-72 756,-108"/>
</g>
<!-- N1_11&#45;&#45;N1_10 -->
<g id="edge23" class="edge">
<title>N1_11&#45;&#45;N1_10</title>
<path fill="none" stroke="black" stroke-width="5" d="M863.83,-90C853,-90 839.29,-90 828.41,-90"/>
</g>
<!-- N2_11 -->
<g id="node38" class="node">
<title>N2_11</title>
<polygon fill="none" stroke="black" points="900,-180 864,-180 864,-144 900,-144 900,-180"/>
</g>
<!-- N1_11&#45;&#45;N2_11 -->
<g id="edge57" class="edge">
<title>N1_11&#45;&#45;N2_11</title>
<path fill="none" stroke="black" stroke-width="5" d="M882,-108.17C882,-119 882,-132.71 882,-143.59"/>
</g>
<!-- N1_12 -->
<g id="node26" class="node">
<title>N1_12</title>
<polygon fill="none" stroke="black" points="972,-108 936,-108 936,-72 972,-72 972,-108"/>
</g>
<!-- N2_12 -->
<g id="node39" class="node">
<title>N2_12</title>
<polygon fill="none" stroke="black" points="972,-180 936,-180 936,-144 972,-144 972,-180"/>
</g>
<!-- N1_12&#45;&#45;N2_12 -->
<g id="edge73" class="edge">
<title>N1_12&#45;&#45;N2_12</title>
<path fill="none" stroke="black" stroke-width="5" d="M954,-108.17C954,-119 954,-132.71 954,-143.59"/>
</g>
<!-- N2_0 -->
<g id="node27" class="node">
<title>N2_0</title>
<polygon fill="none" stroke="black" points="108,-180 72,-180 72,-144 108,-144 108,-180"/>
</g>
<!-- N2_0&#45;&#45;N1_0 -->
<g id="edge69" class="edge">
<title>N2_0&#45;&#45;N1_0</title>
<path fill="none" stroke="black" stroke-width="5" d="M90,-143.83C90,-133 90,-119.29 90,-108.41"/>
</g>
<!-- A3 -->
<g id="node111" class="node">
<title>A3</title>
<ellipse fill="none" stroke="black" cx="18" cy="-162" rx="18" ry="18"/>
<text text-anchor="middle" x="18" y="-158.3" font-family="Times,serif" font-size="14.00">3</text>
</g>
<!-- N2_0&#45;&#45;A3 -->
<g id="edge59" class="edge">
<title>N2_0&#45;&#45;A3</title>
<path fill="none" stroke="black" stroke-width="2" d="M71.83,-162C61,-162 47.29,-162 36.41,-162"/>
</g>
<!-- N2_1 -->
<g id="node28" class="node">
<title>N2_1</title>
<polygon fill="none" stroke="black" points="180,-180 144,-180 144,-144 180,-144 180,-180"/>
</g>
<!-- N2_1&#45;&#45;N1_1 -->
<g id="edge2" class="edge">
<title>N2_1&#45;&#45;N1_1</title>
<path fill="none" stroke="black" stroke-width="5" d="M162,-143.83C162,-133 162,-119.29 162,-108.41"/>
</g>
<!-- N2_1&#45;&#45;N2_0 -->
<g id="edge58" class="edge">
<title>N2_1&#45;&#45;N2_0</title>
<path fill="none" stroke="black" stroke-width="5" d="M143.83,-162C133,-162 119.29,-162 108.41,-162"/>
</g>
<!-- N2_2 -->
<g id="node29" class="node">
<title>N2_2</title>
<polygon fill="none" stroke="black" points="252,-180 216,-180 216,-144 252,-144 252,-180"/>
</g>
<!-- N2_1&#45;&#45;N2_2 -->
<g id="edge1" class="edge">
<title>N2_1&#45;&#45;N2_2</title>
<path fill="none" stroke="black" stroke-width="5" d="M180.17,-162C191,-162 204.71,-162 215.59,-162"/>
</g>
<!-- N2_3 -->
<g id="node30" class="node">
<title>N2_3</title>
<polygon fill="none" stroke="black" points="324,-180 288,-180 288,-144 324,-144 324,-180"/>
</g>
<!-- N2_3&#45;&#45;N2_2 -->
<g id="edge108" class="edge">
<title>N2_3&#45;&#45;N2_2</title>
<path fill="none" stroke="black" stroke-width="5" d="M287.83,-162C277,-162 263.29,-162 252.41,-162"/>
</g>
<!-- N2_4 -->
<g id="node31" class="node">
<title>N2_4</title>
<polygon fill="none" stroke="black" points="396,-180 360,-180 360,-144 396,-144 396,-180"/>
</g>
<!-- N2_4&#45;&#45;N2_3 -->
<g id="edge107" class="edge">
<title>N2_4&#45;&#45;N2_3</title>
<path fill="none" stroke="black" stroke-width="5" d="M359.83,-162C349,-162 335.29,-162 324.41,-162"/>
</g>
<!-- N2_5 -->
<g id="node32" class="node">
<title>N2_5</title>
<polygon fill="none" stroke="black" points="468,-180 432,-180 432,-144 468,-144 468,-180"/>
</g>
<!-- N3_5 -->
<g id="node45" class="node">
<title>N3_5</title>
<polygon fill="none" stroke="black" points="468,-252 432,-252 432,-216 468,-216 468,-252"/>
</g>
<!-- N2_5&#45;&#45;N3_5 -->
<g id="edge56" class="edge">
<title>N2_5&#45;&#45;N3_5</title>
<path fill="none" stroke="black" stroke-width="5" d="M450,-180.17C450,-191 450,-204.71 450,-215.59"/>
</g>
<!-- N2_6 -->
<g id="node33" class="node">
<title>N2_6</title>
<polygon fill="none" stroke="black" points="540,-180 504,-180 504,-144 540,-144 540,-180"/>
</g>
<!-- N2_7 -->
<g id="node34" class="node">
<title>N2_7</title>
<polygon fill="none" stroke="black" points="612,-180 576,-180 576,-144 612,-144 612,-180"/>
</g>
<!-- N2_7&#45;&#45;N2_6 -->
<g id="edge35" class="edge">
<title>N2_7&#45;&#45;N2_6</title>
<path fill="none" stroke="black" stroke-width="5" d="M575.83,-162C565,-162 551.29,-162 540.41,-162"/>
</g>
<!-- N3_7 -->
<g id="node47" class="node">
<title>N3_7</title>
<polygon fill="none" stroke="black" points="612,-252 576,-252 576,-216 612,-216 612,-252"/>
</g>
<!-- N2_7&#45;&#45;N3_7 -->
<g id="edge100" class="edge">
<title>N2_7&#45;&#45;N3_7</title>
<path fill="none" stroke="black" stroke-width="5" d="M594,-180.17C594,-191 594,-204.71 594,-215.59"/>
</g>
<!-- N2_8 -->
<g id="node35" class="node">
<title>N2_8</title>
<polygon fill="none" stroke="black" points="684,-180 648,-180 648,-144 684,-144 684,-180"/>
</g>
<!-- N2_8&#45;&#45;N1_8 -->
<g id="edge102" class="edge">
<title>N2_8&#45;&#45;N1_8</title>
<path fill="none" stroke="black" stroke-width="5" d="M666,-143.83C666,-133 666,-119.29 666,-108.41"/>
</g>
<!-- N2_8&#45;&#45;N2_7 -->
<g id="edge101" class="edge">
<title>N2_8&#45;&#45;N2_7</title>
<path fill="none" stroke="black" stroke-width="5" d="M647.83,-162C637,-162 623.29,-162 612.41,-162"/>
</g>
<!-- N2_9 -->
<g id="node36" class="node">
<title>N2_9</title>
<polygon fill="none" stroke="black" points="756,-180 720,-180 720,-144 756,-144 756,-180"/>
</g>
<!-- N2_9&#45;&#45;N1_9 -->
<g id="edge49" class="edge">
<title>N2_9&#45;&#45;N1_9</title>
<path fill="none" stroke="black" stroke-width="5" d="M738,-143.83C738,-133 738,-119.29 738,-108.41"/>
</g>
<!-- N2_10 -->
<g id="node37" class="node">
<title>N2_10</title>
<polygon fill="none" stroke="black" points="828,-180 792,-180 792,-144 828,-144 828,-180"/>
</g>
<!-- N2_9&#45;&#45;N2_10 -->
<g id="edge48" class="edge">
<title>N2_9&#45;&#45;N2_10</title>
<path fill="none" stroke="black" stroke-width="5" d="M756.17,-162C767,-162 780.71,-162 791.59,-162"/>
</g>
<!-- N3_0 -->
<g id="node40" class="node">
<title>N3_0</title>
<polygon fill="none" stroke="black" points="108,-252 72,-252 72,-216 108,-216 108,-252"/>
</g>
<!-- N4_0 -->
<g id="node53" class="node">
<title>N4_0</title>
<polygon fill="none" stroke="black" points="108,-324 72,-324 72,-288 108,-288 108,-324"/>
</g>
<!-- N3_0&#45;&#45;N4_0 -->
<g id="edge33" class="edge">
<title>N3_0&#45;&#45;N4_0</title>
<path fill="none" stroke="black" stroke-width="5" d="M90,-252.17C90,-263 90,-276.71 90,-287.59"/>
</g>
<!-- N3_1 -->
<g id="node41" class="node">
<title>N3_1</title>
<polygon fill="none" stroke="black" points="180,-252 144,-252 144,-216 180,-216 180,-252"/>
</g>
<!-- N4_1 -->
<g id="node54" class="node">
<title>N4_1</title>
<polygon fill="none" stroke="black" points="180,-324 144,-324 144,-288 180,-288 180,-324"/>
</g>
<!-- N3_1&#45;&#45;N4_1 -->
<g id="edge13" class="edge">
<title>N3_1&#45;&#45;N4_1</title>
<path fill="none" stroke="black" stroke-width="5" d="M162,-252.17C162,-263 162,-276.71 162,-287.59"/>
</g>
<!-- N3_2 -->
<g id="node42" class="node">
<title>N3_2</title>
<polygon fill="none" stroke="black" points="252,-252 216,-252 216,-216 252,-216 252,-252"/>
</g>
<!-- N3_2&#45;&#45;N3_1 -->
<g id="edge12" class="edge">
<title>N3_2&#45;&#45;N3_1</title>
<path fill="none" stroke="black" stroke-width="5" d="M215.83,-234C205,-234 191.29,-234 180.41,-234"/>
</g>
<!-- N4_2 -->
<g id="node55" class="node">
<title>N4_2</title>
<polygon fill="none" stroke="black" points="252,-324 216,-324 216,-288 252,-288 252,-324"/>
</g>
<!-- N3_2&#45;&#45;N4_2 -->
<g id="edge89" class="edge">
<title>N3_2&#45;&#45;N4_2</title>
<path fill="none" stroke="black" stroke-width="5" d="M234,-252.17C234,-263 234,-276.71 234,-287.59"/>
</g>
<!-- N3_3 -->
<g id="node43" class="node">
<title>N3_3</title>
<polygon fill="none" stroke="black" points="324,-252 288,-252 288,-216 324,-216 324,-252"/>
</g>
<!-- N3_3&#45;&#45;N3_2 -->
<g id="edge88" class="edge">
<title>N3_3&#45;&#45;N3_2</title>
<path fill="none" stroke="black" stroke-width="5" d="M287.83,-234C277,-234 263.29,-234 252.41,-234"/>
</g>
<!-- N3_4 -->
<g id="node44" class="node">
<title>N3_4</title>
<polygon fill="none" stroke="black" points="396,-252 360,-252 360,-216 396,-216 396,-252"/>
</g>
<!-- N3_4&#45;&#45;N2_4 -->
<g id="edge86" class="edge">
<title>N3_4&#45;&#45;N2_4</title>
<path fill="none" stroke="black" stroke-width="5" d="M378,-215.83C378,-205 378,-191.29 378,-180.41"/>
</g>
<!-- N3_4&#45;&#45;N3_3 -->
<g id="edge87" class="edge">
<title>N3_4&#45;&#45;N3_3</title>
<path fill="none" stroke="black" stroke-width="5" d="M359.83,-234C349,-234 335.29,-234 324.41,-234"/>
</g>
<!-- N3_4&#45;&#45;N3_5 -->
<g id="edge55" class="edge">
<title>N3_4&#45;&#45;N3_5</title>
<path fill="none" stroke="black" stroke-width="5" d="M396.17,-234C407,-234 420.71,-234 431.59,-234"/>
</g>
<!-- N4_4 -->
<g id="node57" class="node">
<title>N4_4</title>
<polygon fill="none" stroke="black" points="396,-324 360,-324 360,-288 396,-288 396,-324"/>
</g>
<!-- N3_4&#45;&#45;N4_4 -->
<g id="edge24" class="edge">
<title>N3_4&#45;&#45;N4_4</title>
<path fill="none" stroke="black" stroke-width="5" d="M378,-252.17C378,-263 378,-276.71 378,-287.59"/>
</g>
<!-- N3_6 -->
<g id="node46" class="node">
<title>N3_6</title>
<polygon fill="none" stroke="black" points="540,-252 504,-252 504,-216 540,-216 540,-252"/>
</g>
<!-- N3_7&#45;&#45;N3_6 -->
<g id="edge81" class="edge">
<title>N3_7&#45;&#45;N3_6</title>
<path fill="none" stroke="black" stroke-width="5" d="M575.83,-234C565,-234 551.29,-234 540.41,-234"/>
</g>
<!-- N3_8 -->
<g id="node48" class="node">
<title>N3_8</title>
<polygon fill="none" stroke="black" points="684,-252 648,-252 648,-216 684,-216 684,-252"/>
</g>
<!-- N3_8&#45;&#45;N3_7 -->
<g id="edge34" class="edge">
<title>N3_8&#45;&#45;N3_7</title>
<path fill="none" stroke="black" stroke-width="5" d="M647.83,-234C637,-234 623.29,-234 612.41,-234"/>
</g>
<!-- N3_9 -->
<g id="node49" class="node">
<title>N3_9</title>
<polygon fill="none" stroke="black" points="756,-252 720,-252 720,-216 756,-216 756,-252"/>
</g>
<!-- N4_9 -->
<g id="node62" class="node">
<title>N4_9</title>
<polygon fill="none" stroke="black" points="756,-324 720,-324 720,-288 756,-288 756,-324"/>
</g>
<!-- N3_9&#45;&#45;N4_9 -->
<g id="edge41" class="edge">
<title>N3_9&#45;&#45;N4_9</title>
<path fill="none" stroke="black" stroke-width="5" d="M738,-252.17C738,-263 738,-276.71 738,-287.59"/>
</g>
<!-- N3_10 -->
<g id="node50" class="node">
<title>N3_10</title>
<polygon fill="none" stroke="black" points="828,-252 792,-252 792,-216 828,-216 828,-252"/>
</g>
<!-- N3_10&#45;&#45;N2_10 -->
<g id="edge47" class="edge">
<title>N3_10&#45;&#45;N2_10</title>
<path fill="none" stroke="black" stroke-width="5" d="M810,-215.83C810,-205 810,-191.29 810,-180.41"/>
</g>
<!-- N3_10&#45;&#45;N3_9 -->
<g id="edge42" class="edge">
<title>N3_10&#45;&#45;N3_9</title>
<path fill="none" stroke="black" stroke-width="5" d="M791.83,-234C781,-234 767.29,-234 756.41,-234"/>
</g>
<!-- N4_10 -->
<g id="node63" class="node">
<title>N4_10</title>
<polygon fill="none" stroke="black" points="828,-324 792,-324 792,-288 828,-288 828,-324"/>
</g>
<!-- N3_10&#45;&#45;N4_10 -->
<g id="edge43" class="edge">
<title>N3_10&#45;&#45;N4_10</title>
<path fill="none" stroke="black" stroke-width="5" d="M810,-252.17C810,-263 810,-276.71 810,-287.59"/>
</g>
<!-- N3_11 -->
<g id="node51" class="node">
<title>N3_11</title>
<polygon fill="none" stroke="black" points="900,-252 864,-252 864,-216 900,-216 900,-252"/>
</g>
<!-- N3_12 -->
<g id="node52" class="node">
<title>N3_12</title>
<polygon fill="none" stroke="black" points="972,-252 936,-252 936,-216 972,-216 972,-252"/>
</g>
<!-- N3_12&#45;&#45;N2_12 -->
<g id="edge70" class="edge">
<title>N3_12&#45;&#45;N2_12</title>
<path fill="none" stroke="black" stroke-width="5" d="M954,-215.83C954,-205 954,-191.29 954,-180.41"/>
</g>
<!-- N3_12&#45;&#45;N3_11 -->
<g id="edge83" class="edge">
<title>N3_12&#45;&#45;N3_11</title>
<path fill="none" stroke="black" stroke-width="5" d="M935.83,-234C925,-234 911.29,-234 900.41,-234"/>
</g>
<!-- N4_3 -->
<g id="node56" class="node">
<title>N4_3</title>
<polygon fill="none" stroke="black" points="324,-324 288,-324 288,-288 324,-288 324,-324"/>
</g>
<!-- N4_3&#45;&#45;N4_2 -->
<g id="edge90" class="edge">
<title>N4_3&#45;&#45;N4_2</title>
<path fill="none" stroke="black" stroke-width="5" d="M287.83,-306C277,-306 263.29,-306 252.41,-306"/>
</g>
<!-- N5_3 -->
<g id="node69" class="node">
<title>N5_3</title>
<polygon fill="none" stroke="black" points="324,-396 288,-396 288,-360 324,-360 324,-396"/>
</g>
<!-- N4_3&#45;&#45;N5_3 -->
<g id="edge91" class="edge">
<title>N4_3&#45;&#45;N5_3</title>
<path fill="none" stroke="black" stroke-width="5" d="M306,-324.17C306,-335 306,-348.71 306,-359.59"/>
</g>
<!-- N5_4 -->
<g id="node70" class="node">
<title>N5_4</title>
<polygon fill="none" stroke="black" points="396,-396 360,-396 360,-360 396,-360 396,-396"/>
</g>
<!-- N4_4&#45;&#45;N5_4 -->
<g id="edge25" class="edge">
<title>N4_4&#45;&#45;N5_4</title>
<path fill="none" stroke="black" stroke-width="5" d="M378,-324.17C378,-335 378,-348.71 378,-359.59"/>
</g>
<!-- N4_5 -->
<g id="node58" class="node">
<title>N4_5</title>
<polygon fill="none" stroke="black" points="468,-324 432,-324 432,-288 468,-288 468,-324"/>
</g>
<!-- N5_5 -->
<g id="node71" class="node">
<title>N5_5</title>
<polygon fill="none" stroke="black" points="468,-396 432,-396 432,-360 468,-360 468,-396"/>
</g>
<!-- N4_5&#45;&#45;N5_5 -->
<g id="edge68" class="edge">
<title>N4_5&#45;&#45;N5_5</title>
<path fill="none" stroke="black" stroke-width="5" d="M450,-324.17C450,-335 450,-348.71 450,-359.59"/>
</g>
<!-- N4_6 -->
<g id="node59" class="node">
<title>N4_6</title>
<polygon fill="none" stroke="black" points="540,-324 504,-324 504,-288 540,-288 540,-324"/>
</g>
<!-- N4_6&#45;&#45;N4_5 -->
<g id="edge67" class="edge">
<title>N4_6&#45;&#45;N4_5</title>
<path fill="none" stroke="black" stroke-width="5" d="M503.83,-306C493,-306 479.29,-306 468.41,-306"/>
</g>
<!-- N5_6 -->
<g id="node72" class="node">
<title>N5_6</title>
<polygon fill="none" stroke="black" points="540,-396 504,-396 504,-360 540,-360 540,-396"/>
</g>
<!-- N4_6&#45;&#45;N5_6 -->
<g id="edge97" class="edge">
<title>N4_6&#45;&#45;N5_6</title>
<path fill="none" stroke="black" stroke-width="5" d="M522,-324.17C522,-335 522,-348.71 522,-359.59"/>
</g>
<!-- N4_7 -->
<g id="node60" class="node">
<title>N4_7</title>
<polygon fill="none" stroke="black" points="612,-324 576,-324 576,-288 612,-288 612,-324"/>
</g>
<!-- N4_7&#45;&#45;N3_7 -->
<g id="edge99" class="edge">
<title>N4_7&#45;&#45;N3_7</title>
<path fill="none" stroke="black" stroke-width="5" d="M594,-287.83C594,-277 594,-263.29 594,-252.41"/>
</g>
<!-- N4_7&#45;&#45;N4_6 -->
<g id="edge98" class="edge">
<title>N4_7&#45;&#45;N4_6</title>
<path fill="none" stroke="black" stroke-width="5" d="M575.83,-306C565,-306 551.29,-306 540.41,-306"/>
</g>
<!-- N4_8 -->
<g id="node61" class="node">
<title>N4_8</title>
<polygon fill="none" stroke="black" points="684,-324 648,-324 648,-288 684,-288 684,-324"/>
</g>
<!-- N4_7&#45;&#45;N4_8 -->
<g id="edge71" class="edge">
<title>N4_7&#45;&#45;N4_8</title>
<path fill="none" stroke="black" stroke-width="5" d="M612.17,-306C623,-306 636.71,-306 647.59,-306"/>
</g>
<!-- N4_11 -->
<g id="node64" class="node">
<title>N4_11</title>
<polygon fill="none" stroke="black" points="900,-324 864,-324 864,-288 900,-288 900,-324"/>
</g>
<!-- N4_12 -->
<g id="node65" class="node">
<title>N4_12</title>
<polygon fill="none" stroke="black" points="972,-324 936,-324 936,-288 972,-288 972,-324"/>
</g>
<!-- N4_12&#45;&#45;N4_11 -->
<g id="edge65" class="edge">
<title>N4_12&#45;&#45;N4_11</title>
<path fill="none" stroke="black" stroke-width="5" d="M935.83,-306C925,-306 911.29,-306 900.41,-306"/>
</g>
<!-- N5_12 -->
<g id="node78" class="node">
<title>N5_12</title>
<polygon fill="none" stroke="black" points="972,-396 936,-396 936,-360 972,-360 972,-396"/>
</g>
<!-- N4_12&#45;&#45;N5_12 -->
<g id="edge20" class="edge">
<title>N4_12&#45;&#45;N5_12</title>
<path fill="none" stroke="black" stroke-width="5" d="M954,-324.17C954,-335 954,-348.71 954,-359.59"/>
</g>
<!-- A2 -->
<g id="node109" class="node">
<title>A2</title>
<ellipse fill="none" stroke="black" cx="1026" cy="-306" rx="18" ry="18"/>
<text text-anchor="middle" x="1026" y="-302.3" font-family="Times,serif" font-size="14.00">2</text>
</g>
<!-- N4_12&#45;&#45;A2 -->
<g id="edge31" class="edge">
<title>N4_12&#45;&#45;A2</title>
<path fill="none" stroke="black" stroke-width="2" d="M972.17,-306C983,-306 996.71,-306 1007.59,-306"/>
</g>
<!-- N5_0 -->
<g id="node66" class="node">
<title>N5_0</title>
<polygon fill="none" stroke="black" points="108,-396 72,-396 72,-360 108,-360 108,-396"/>
</g>
<!-- N6_0 -->
<g id="node79" class="node">
<title>N6_0</title>
<polygon fill="none" stroke="black" points="108,-468 72,-468 72,-432 108,-432 108,-468"/>
</g>
<!-- N5_0&#45;&#45;N6_0 -->
<g id="edge16" class="edge">
<title>N5_0&#45;&#45;N6_0</title>
<path fill="none" stroke="black" stroke-width="5" d="M90,-396.17C90,-407 90,-420.71 90,-431.59"/>
</g>
<!-- N5_1 -->
<g id="node67" class="node">
<title>N5_1</title>
<polygon fill="none" stroke="black" points="180,-396 144,-396 144,-360 180,-360 180,-396"/>
</g>
<!-- N5_1&#45;&#45;N4_1 -->
<g id="edge14" class="edge">
<title>N5_1&#45;&#45;N4_1</title>
<path fill="none" stroke="black" stroke-width="5" d="M162,-359.83C162,-349 162,-335.29 162,-324.41"/>
</g>
<!-- N5_1&#45;&#45;N5_0 -->
<g id="edge15" class="edge">
<title>N5_1&#45;&#45;N5_0</title>
<path fill="none" stroke="black" stroke-width="5" d="M143.83,-378C133,-378 119.29,-378 108.41,-378"/>
</g>
<!-- N5_2 -->
<g id="node68" class="node">
<title>N5_2</title>
<polygon fill="none" stroke="black" points="252,-396 216,-396 216,-360 252,-360 252,-396"/>
</g>
<!-- N5_2&#45;&#45;N5_1 -->
<g id="edge79" class="edge">
<title>N5_2&#45;&#45;N5_1</title>
<path fill="none" stroke="black" stroke-width="5" d="M215.83,-378C205,-378 191.29,-378 180.41,-378"/>
</g>
<!-- N6_6 -->
<g id="node85" class="node">
<title>N6_6</title>
<polygon fill="none" stroke="black" points="540,-468 504,-468 504,-432 540,-432 540,-468"/>
</g>
<!-- N5_6&#45;&#45;N6_6 -->
<g id="edge96" class="edge">
<title>N5_6&#45;&#45;N6_6</title>
<path fill="none" stroke="black" stroke-width="5" d="M522,-396.17C522,-407 522,-420.71 522,-431.59"/>
</g>
<!-- N5_7 -->
<g id="node73" class="node">
<title>N5_7</title>
<polygon fill="none" stroke="black" points="612,-396 576,-396 576,-360 612,-360 612,-396"/>
</g>
<!-- N6_7 -->
<g id="node86" class="node">
<title>N6_7</title>
<polygon fill="none" stroke="black" points="612,-468 576,-468 576,-432 612,-432 612,-468"/>
</g>
<!-- N5_7&#45;&#45;N6_7 -->
<g id="edge85" class="edge">
<title>N5_7&#45;&#45;N6_7</title>
<path fill="none" stroke="black" stroke-width="5" d="M594,-396.17C594,-407 594,-420.71 594,-431.59"/>
</g>
<!-- N5_8 -->
<g id="node74" class="node">
<title>N5_8</title>
<polygon fill="none" stroke="black" points="684,-396 648,-396 648,-360 684,-360 684,-396"/>
</g>
<!-- N5_8&#45;&#45;N4_8 -->
<g id="edge72" class="edge">
<title>N5_8&#45;&#45;N4_8</title>
<path fill="none" stroke="black" stroke-width="5" d="M666,-359.83C666,-349 666,-335.29 666,-324.41"/>
</g>
<!-- N5_9 -->
<g id="node75" class="node">
<title>N5_9</title>
<polygon fill="none" stroke="black" points="756,-396 720,-396 720,-360 756,-360 756,-396"/>
</g>
<!-- N5_9&#45;&#45;N4_9 -->
<g id="edge40" class="edge">
<title>N5_9&#45;&#45;N4_9</title>
<path fill="none" stroke="black" stroke-width="5" d="M738,-359.83C738,-349 738,-335.29 738,-324.41"/>
</g>
<!-- N6_9 -->
<g id="node88" class="node">
<title>N6_9</title>
<polygon fill="none" stroke="black" points="756,-468 720,-468 720,-432 756,-432 756,-468"/>
</g>
<!-- N5_9&#45;&#45;N6_9 -->
<g id="edge39" class="edge">
<title>N5_9&#45;&#45;N6_9</title>
<path fill="none" stroke="black" stroke-width="5" d="M738,-396.17C738,-407 738,-420.71 738,-431.59"/>
</g>
<!-- N5_10 -->
<g id="node76" class="node">
<title>N5_10</title>
<polygon fill="none" stroke="black" points="828,-396 792,-396 792,-360 828,-360 828,-396"/>
</g>
<!-- N5_10&#45;&#45;N4_10 -->
<g id="edge76" class="edge">
<title>N5_10&#45;&#45;N4_10</title>
<path fill="none" stroke="black" stroke-width="5" d="M810,-359.83C810,-349 810,-335.29 810,-324.41"/>
</g>
<!-- N5_11 -->
<g id="node77" class="node">
<title>N5_11</title>
<polygon fill="none" stroke="black" points="900,-396 864,-396 864,-360 900,-360 900,-396"/>
</g>
<!-- N5_10&#45;&#45;N5_11 -->
<g id="edge77" class="edge">
<title>N5_10&#45;&#45;N5_11</title>
<path fill="none" stroke="black" stroke-width="5" d="M828.17,-378C839,-378 852.71,-378 863.59,-378"/>
</g>
<!-- N6_1 -->
<g id="node80" class="node">
<title>N6_1</title>
<polygon fill="none" stroke="black" points="180,-468 144,-468 144,-432 180,-432 180,-468"/>
</g>
<!-- N7_1 -->
<g id="node93" class="node">
<title>N7_1</title>
<polygon fill="none" stroke="black" points="180,-540 144,-540 144,-504 180,-504 180,-540"/>
</g>
<!-- N6_1&#45;&#45;N7_1 -->
<g id="edge82" class="edge">
<title>N6_1&#45;&#45;N7_1</title>
<path fill="none" stroke="black" stroke-width="5" d="M162,-468.17C162,-479 162,-492.71 162,-503.59"/>
</g>
<!-- N6_2 -->
<g id="node81" class="node">
<title>N6_2</title>
<polygon fill="none" stroke="black" points="252,-468 216,-468 216,-432 252,-432 252,-468"/>
</g>
<!-- N6_3 -->
<g id="node82" class="node">
<title>N6_3</title>
<polygon fill="none" stroke="black" points="324,-468 288,-468 288,-432 324,-432 324,-468"/>
</g>
<!-- N6_3&#45;&#45;N5_3 -->
<g id="edge92" class="edge">
<title>N6_3&#45;&#45;N5_3</title>
<path fill="none" stroke="black" stroke-width="5" d="M306,-431.83C306,-421 306,-407.29 306,-396.41"/>
</g>
<!-- N6_3&#45;&#45;N6_2 -->
<g id="edge21" class="edge">
<title>N6_3&#45;&#45;N6_2</title>
<path fill="none" stroke="black" stroke-width="5" d="M287.83,-450C277,-450 263.29,-450 252.41,-450"/>
</g>
<!-- N7_3 -->
<g id="node95" class="node">
<title>N7_3</title>
<polygon fill="none" stroke="black" points="324,-540 288,-540 288,-504 324,-504 324,-540"/>
</g>
<!-- N6_3&#45;&#45;N7_3 -->
<g id="edge22" class="edge">
<title>N6_3&#45;&#45;N7_3</title>
<path fill="none" stroke="black" stroke-width="5" d="M306,-468.17C306,-479 306,-492.71 306,-503.59"/>
</g>
<!-- N6_4 -->
<g id="node83" class="node">
<title>N6_4</title>
<polygon fill="none" stroke="black" points="396,-468 360,-468 360,-432 396,-432 396,-468"/>
</g>
<!-- N6_4&#45;&#45;N6_3 -->
<g id="edge93" class="edge">
<title>N6_4&#45;&#45;N6_3</title>
<path fill="none" stroke="black" stroke-width="5" d="M359.83,-450C349,-450 335.29,-450 324.41,-450"/>
</g>
<!-- N6_5 -->
<g id="node84" class="node">
<title>N6_5</title>
<polygon fill="none" stroke="black" points="468,-468 432,-468 432,-432 468,-432 468,-468"/>
</g>
<!-- N6_5&#45;&#45;N6_4 -->
<g id="edge94" class="edge">
<title>N6_5&#45;&#45;N6_4</title>
<path fill="none" stroke="black" stroke-width="5" d="M431.83,-450C421,-450 407.29,-450 396.41,-450"/>
</g>
<!-- N6_5&#45;&#45;N6_6 -->
<g id="edge95" class="edge">
<title>N6_5&#45;&#45;N6_6</title>
<path fill="none" stroke="black" stroke-width="5" d="M468.17,-450C479,-450 492.71,-450 503.59,-450"/>
</g>
<!-- N6_8 -->
<g id="node87" class="node">
<title>N6_8</title>
<polygon fill="none" stroke="black" points="684,-468 648,-468 648,-432 684,-432 684,-468"/>
</g>
<!-- N6_8&#45;&#45;N6_7 -->
<g id="edge62" class="edge">
<title>N6_8&#45;&#45;N6_7</title>
<path fill="none" stroke="black" stroke-width="5" d="M647.83,-450C637,-450 623.29,-450 612.41,-450"/>
</g>
<!-- N6_9&#45;&#45;N6_8 -->
<g id="edge61" class="edge">
<title>N6_9&#45;&#45;N6_8</title>
<path fill="none" stroke="black" stroke-width="5" d="M719.83,-450C709,-450 695.29,-450 684.41,-450"/>
</g>
<!-- N7_9 -->
<g id="node101" class="node">
<title>N7_9</title>
<polygon fill="none" stroke="black" points="756,-540 720,-540 720,-504 756,-504 756,-540"/>
</g>
<!-- N6_9&#45;&#45;N7_9 -->
<g id="edge80" class="edge">
<title>N6_9&#45;&#45;N7_9</title>
<path fill="none" stroke="black" stroke-width="5" d="M738,-468.17C738,-479 738,-492.71 738,-503.59"/>
</g>
<!-- N6_10 -->
<g id="node89" class="node">
<title>N6_10</title>
<polygon fill="none" stroke="black" points="828,-468 792,-468 792,-432 828,-432 828,-468"/>
</g>
<!-- N6_10&#45;&#45;N6_9 -->
<g id="edge38" class="edge">
<title>N6_10&#45;&#45;N6_9</title>
<path fill="none" stroke="black" stroke-width="5" d="M791.83,-450C781,-450 767.29,-450 756.41,-450"/>
</g>
<!-- N7_10 -->
<g id="node102" class="node">
<title>N7_10</title>
<polygon fill="none" stroke="black" points="828,-540 792,-540 792,-504 828,-504 828,-540"/>
</g>
<!-- N6_10&#45;&#45;N7_10 -->
<g id="edge78" class="edge">
<title>N6_10&#45;&#45;N7_10</title>
<path fill="none" stroke="black" stroke-width="5" d="M810,-468.17C810,-479 810,-492.71 810,-503.59"/>
</g>
<!-- N6_11 -->
<g id="node90" class="node">
<title>N6_11</title>
<polygon fill="none" stroke="black" points="900,-468 864,-468 864,-432 900,-432 900,-468"/>
</g>
<!-- N6_11&#45;&#45;N6_10 -->
<g id="edge37" class="edge">
<title>N6_11&#45;&#45;N6_10</title>
<path fill="none" stroke="black" stroke-width="5" d="M863.83,-450C853,-450 839.29,-450 828.41,-450"/>
</g>
<!-- N7_11 -->
<g id="node103" class="node">
<title>N7_11</title>
<polygon fill="none" stroke="black" points="900,-540 864,-540 864,-504 900,-504 900,-540"/>
</g>
<!-- N6_11&#45;&#45;N7_11 -->
<g id="edge44" class="edge">
<title>N6_11&#45;&#45;N7_11</title>
<path fill="none" stroke="black" stroke-width="5" d="M882,-468.17C882,-479 882,-492.71 882,-503.59"/>
</g>
<!-- N6_12 -->
<g id="node91" class="node">
<title>N6_12</title>
<polygon fill="none" stroke="black" points="972,-468 936,-468 936,-432 972,-432 972,-468"/>
</g>
<!-- N6_12&#45;&#45;N5_12 -->
<g id="edge19" class="edge">
<title>N6_12&#45;&#45;N5_12</title>
<path fill="none" stroke="black" stroke-width="5" d="M954,-431.83C954,-421 954,-407.29 954,-396.41"/>
</g>
<!-- N6_12&#45;&#45;N6_11 -->
<g id="edge36" class="edge">
<title>N6_12&#45;&#45;N6_11</title>
<path fill="none" stroke="black" stroke-width="5" d="M935.83,-450C925,-450 911.29,-450 900.41,-450"/>
</g>
<!-- A1 -->
<g id="node107" class="node">
<title>A1</title>
<ellipse fill="none" stroke="black" cx="1026" cy="-450" rx="18" ry="18"/>
<text text-anchor="middle" x="1026" y="-446.3" font-family="Times,serif" font-size="14.00">1</text>
</g>
<!-- N6_12&#45;&#45;A1 -->
<g id="edge17" class="edge">
<title>N6_12&#45;&#45;A1</title>
<path fill="none" stroke="black" stroke-width="2" d="M972.17,-450C983,-450 996.71,-450 1007.59,-450"/>
</g>
<!-- N7_0 -->
<g id="node92" class="node">
<title>N7_0</title>
<polygon fill="none" stroke="black" points="108,-540 72,-540 72,-504 108,-504 108,-540"/>
</g>
<!-- N7_0&#45;&#45;N6_0 -->
<g id="edge52" class="edge">
<title>N7_0&#45;&#45;N6_0</title>
<path fill="none" stroke="black" stroke-width="5" d="M90,-503.83C90,-493 90,-479.29 90,-468.41"/>
</g>
<!-- N7_0&#45;&#45;N7_1 -->
<g id="edge53" class="edge">
<title>N7_0&#45;&#45;N7_1</title>
<path fill="none" stroke="black" stroke-width="5" d="M108.17,-522C119,-522 132.71,-522 143.59,-522"/>
</g>
<!-- A4 -->
<g id="node113" class="node">
<title>A4</title>
<ellipse fill="none" stroke="black" cx="18" cy="-522" rx="18" ry="18"/>
<text text-anchor="middle" x="18" y="-518.3" font-family="Times,serif" font-size="14.00">4</text>
</g>
<!-- N7_0&#45;&#45;A4 -->
<g id="edge74" class="edge">
<title>N7_0&#45;&#45;A4</title>
<path fill="none" stroke="black" stroke-width="2" d="M71.83,-522C61,-522 47.29,-522 36.41,-522"/>
</g>
<!-- N7_2 -->
<g id="node94" class="node">
<title>N7_2</title>
<polygon fill="none" stroke="black" points="252,-540 216,-540 216,-504 252,-504 252,-540"/>
</g>
<!-- N7_2&#45;&#45;N7_1 -->
<g id="edge54" class="edge">
<title>N7_2&#45;&#45;N7_1</title>
<path fill="none" stroke="black" stroke-width="5" d="M215.83,-522C205,-522 191.29,-522 180.41,-522"/>
</g>
<!-- N7_4 -->
<g id="node96" class="node">
<title>N7_4</title>
<polygon fill="none" stroke="black" points="396,-540 360,-540 360,-504 396,-504 396,-540"/>
</g>
<!-- N7_5 -->
<g id="node97" class="node">
<title>N7_5</title>
<polygon fill="none" stroke="black" points="468,-540 432,-540 432,-504 468,-504 468,-540"/>
</g>
<!-- N7_5&#45;&#45;N7_4 -->
<g id="edge51" class="edge">
<title>N7_5&#45;&#45;N7_4</title>
<path fill="none" stroke="black" stroke-width="5" d="M431.83,-522C421,-522 407.29,-522 396.41,-522"/>
</g>
<!-- N7_6 -->
<g id="node98" class="node">
<title>N7_6</title>
<polygon fill="none" stroke="black" points="540,-540 504,-540 504,-504 540,-504 540,-540"/>
</g>
<!-- N7_6&#45;&#45;N6_6 -->
<g id="edge45" class="edge">
<title>N7_6&#45;&#45;N6_6</title>
<path fill="none" stroke="black" stroke-width="5" d="M522,-503.83C522,-493 522,-479.29 522,-468.41"/>
</g>
<!-- N7_6&#45;&#45;N7_5 -->
<g id="edge46" class="edge">
<title>N7_6&#45;&#45;N7_5</title>
<path fill="none" stroke="black" stroke-width="5" d="M503.83,-522C493,-522 479.29,-522 468.41,-522"/>
</g>
<!-- N7_7 -->
<g id="node99" class="node">
<title>N7_7</title>
<polygon fill="none" stroke="black" points="612,-540 576,-540 576,-504 612,-504 612,-540"/>
</g>
<!-- N7_7&#45;&#45;N6_7 -->
<g id="edge63" class="edge">
<title>N7_7&#45;&#45;N6_7</title>
<path fill="none" stroke="black" stroke-width="5" d="M594,-503.83C594,-493 594,-479.29 594,-468.41"/>
</g>
<!-- N7_8 -->
<g id="node100" class="node">
<title>N7_8</title>
<polygon fill="none" stroke="black" points="684,-540 648,-540 648,-504 684,-504 684,-540"/>
</g>
<!-- N7_8&#45;&#45;N7_7 -->
<g id="edge64" class="edge">
<title>N7_8&#45;&#45;N7_7</title>
<path fill="none" stroke="black" stroke-width="5" d="M647.83,-522C637,-522 623.29,-522 612.41,-522"/>
</g>
<!-- N7_12 -->
<g id="node104" class="node">
<title>N7_12</title>
<polygon fill="none" stroke="black" points="972,-540 936,-540 936,-504 972,-504 972,-540"/>
</g>
<!-- B0 -->
<g id="node106" class="node">
<title>B0</title>
<ellipse fill="none" stroke="black" cx="1026" cy="-18" rx="18" ry="18"/>
<text text-anchor="middle" x="1026" y="-14.3" font-family="Times,serif" font-size="14.00">0</text>
</g>
<!-- B0&#45;&#45;N0_12 -->
<g id="edge6" class="edge">
<title>B0&#45;&#45;N0_12</title>
<path fill="none" stroke="black" stroke-width="2" d="M1007.83,-18C997,-18 983.29,-18 972.41,-18"/>
</g>
<!-- B1 -->
<g id="node108" class="node">
<title>B1</title>
<ellipse fill="none" stroke="black" cx="18" cy="-450" rx="18" ry="18"/>
<text text-anchor="middle" x="18" y="-446.3" font-family="Times,serif" font-size="14.00">1</text>
</g>
<!-- B1&#45;&#45;N6_0 -->
<g id="edge18" class="edge">
<title>B1&#45;&#45;N6_0</title>
<path fill="none" stroke="black" stroke-width="2" d="M36.17,-450C47,-450 60.71,-450 71.59,-450"/>
</g>
<!-- B2 -->
<g id="node110" class="node">
<title>B2</title>
<ellipse fill="none" stroke="black" cx="18" cy="-306" rx="18" ry="18"/>
<text text-anchor="middle" x="18" y="-302.3" font-family="Times,serif" font-size="14.00">2</text>
</g>
<!-- B2&#45;&#45;N4_0 -->
<g id="edge32" class="edge">
<title>B2&#45;&#45;N4_0</title>
<path fill="none" stroke="black" stroke-width="2" d="M36.17,-306C47,-306 60.71,-306 71.59,-306"/>
</g>
<!-- B3 -->
<g id="node112" class="node">
<title>B3</title>
<ellipse fill="none" stroke="black" cx="1026" cy="-162" rx="18" ry="18"/>
<text text-anchor="middle" x="1026" y="-158.3" font-family="Times,serif" font-size="14.00">3</text>
</g>
<!-- B3&#45;&#45;N2_12 -->
<g id="edge60" class="edge">
<title>B3&#45;&#45;N2_12</title>
<path fill="none" stroke="black" stroke-width="2" d="M1007.83,-162C997,-162 983.29,-162 972.41,-162"/>
</g>
<!-- B4 -->
<g id="node114" class="node">
<title>B4</title>
<ellipse fill="none" stroke="black" cx="1026" cy="-522" rx="18" ry="18"/>
<text text-anchor="middle" x="1026" y="-518.3" font-family="Times,serif" font-size="14.00">4</text>
</g>
<!-- B4&#45;&#45;N7_12 -->
<g id="edge75" class="edge">
<title>B4&#45;&#45;N7_12</title>
<path fill="none" stroke="black" stroke-width="2" d="M1007.83,-522C997,-522 983.29,-522 972.41,-522"/>
</g>
</g>
</svg>
