<?xml version="1.0" encoding="UTF-8" standalone="no"?>
<!DOCTYPE svg PUBLIC "-//W3C//DTD SVG 1.1//EN"
 "http://www.w3.org/Graphics/SVG/1.1/DTD/svg11.dtd">
<!-- Generated by graphviz version 2.43.0 (0)
 -->
<!-- Title: %3 Pages: 1 -->
<svg width="1052pt" height="692pt"
 viewBox="0.00 0.00 1052.00 692.00" xmlns="http://www.w3.org/2000/svg" xmlns:xlink="http://www.w3.org/1999/xlink">
<g id="graph0" class="graph" transform="scale(1 1) rotate(0) translate(4 688)">
<title>%3</title>
<polygon fill="white" stroke="transparent" points="-4,4 -4,-688 1048,-688 1048,4 -4,4"/>
<!-- N0_0 -->
<g id="node1" class="node">
<title>N0_0</title>
<polygon fill="none" stroke="black" points="108,-108 72,-108 72,-72 108,-72 108,-108"/>
</g>
<!-- A3 -->
<g id="node111" class="node">
<title>A3</title>
<ellipse fill="none" stroke="black" cx="18" cy="-18" rx="18" ry="18"/>
<text text-anchor="middle" x="18" y="-14.3" font-family="Times,serif" font-size="14.00">3</text>
</g>
<!-- N0_0&#45;&#45;A3 -->
<g id="edge101" class="edge">
<title>N0_0&#45;&#45;A3</title>
<path fill="none" stroke="black" stroke-width="2" d="M71.83,-71.83C59.17,-59.17 42.56,-42.56 31.16,-31.16"/>
</g>
<!-- N0_1 -->
<g id="node2" class="node">
<title>N0_1</title>
<polygon fill="none" stroke="black" points="180,-108 144,-108 144,-72 180,-72 180,-108"/>
</g>
<!-- N0_1&#45;&#45;N0_0 -->
<g id="edge25" class="edge">
<title>N0_1&#45;&#45;N0_0</title>
<path fill="none" stroke="black" stroke-width="5" d="M143.83,-90C133,-90 119.29,-90 108.41,-90"/>
</g>
<!-- N0_2 -->
<g id="node3" class="node">
<title>N0_2</title>
<polygon fill="none" stroke="black" points="252,-108 216,-108 216,-72 252,-72 252,-108"/>
</g>
<!-- N1_2 -->
<g id="node16" class="node">
<title>N1_2</title>
<polygon fill="none" stroke="black" points="252,-180 216,-180 216,-144 252,-144 252,-180"/>
</g>
<!-- N0_2&#45;&#45;N1_2 -->
<g id="edge16" class="edge">
<title>N0_2&#45;&#45;N1_2</title>
<path fill="none" stroke="black" stroke-width="5" d="M234,-108.17C234,-119 234,-132.71 234,-143.59"/>
</g>
<!-- N0_3 -->
<g id="node4" class="node">
<title>N0_3</title>
<polygon fill="none" stroke="black" points="324,-108 288,-108 288,-72 324,-72 324,-108"/>
</g>
<!-- N0_4 -->
<g id="node5" class="node">
<title>N0_4</title>
<polygon fill="none" stroke="black" points="396,-108 360,-108 360,-72 396,-72 396,-108"/>
</g>
<!-- N0_4&#45;&#45;N0_3 -->
<g id="edge89" class="edge">
<title>N0_4&#45;&#45;N0_3</title>
<path fill="none" stroke="black" stroke-width="5" d="M359.83,-90C349,-90 335.29,-90 324.41,-90"/>
</g>
<!-- N0_5 -->
<g id="node6" class="node">
<title>N0_5</title>
<polygon fill="none" stroke="black" points="468,-108 432,-108 432,-72 468,-72 468,-108"/>
</g>
<!-- N0_5&#45;&#45;N0_4 -->
<g id="edge41" class="edge">
<title>N0_5&#45;&#45;N0_4</title>
<path fill="none" stroke="black" stroke-width="5" d="M431.83,-90C421,-90 407.29,-90 396.41,-90"/>
</g>
<!-- N0_6 -->
<g id="node7" class="node">
<title>N0_6</title>
<polygon fill="none" stroke="black" points="540,-108 504,-108 504,-72 540,-72 540,-108"/>
</g>
<!-- N1_6 -->
<g id="node20" class="node">
<title>N1_6</title>
<polygon fill="none" stroke="black" points="540,-180 504,-180 504,-144 540,-144 540,-180"/>
</g>
<!-- N0_6&#45;&#45;N1_6 -->
<g id="edge18" class="edge">
<title>N0_6&#45;&#45;N1_6</title>
<path fill="none" stroke="black" stroke-width="5" d="M522,-108.17C522,-119 522,-132.71 522,-143.59"/>
</g>
<!-- N0_7 -->
<g id="node8" class="node">
<title>N0_7</title>
<polygon fill="none" stroke="black" points="612,-108 576,-108 576,-72 612,-72 612,-108"/>
</g>
<!-- N1_7 -->
<g id="node21" class="node">
<title>N1_7</title>
<polygon fill="none" stroke="black" points="612,-180 576,-180 576,-144 612,-144 612,-180"/>
</g>
<!-- N0_7&#45;&#45;N1_7 -->
<g id="edge72" class="edge">
<title>N0_7&#45;&#45;N1_7</title>
<path fill="none" stroke="black" stroke-width="5" d="M594,-108.17C594,-119 594,-132.71 594,-143.59"/>
</g>
<!-- N0_8 -->
<g id="node9" class="node">
<title>N0_8</title>
<polygon fill="none" stroke="black" points="684,-108 648,-108 648,-72 684,-72 684,-108"/>
</g>
<!-- N0_8&#45;&#45;N0_7 -->
<g id="edge71" class="edge">
<title>N0_8&#45;&#45;N0_7</title>
<path fill="none" stroke="black" stroke-width="5" d="M647.83,-90C637,-90 623.29,-90 612.41,-90"/>
</g>
<!-- N1_8 -->
<g id="node22" class="node">
<title>N1_8</title>
<polygon fill="none" stroke="black" points="684,-180 648,-180 648,-144 684,-144 684,-180"/>
</g>
<!-- N0_8&#45;&#45;N1_8 -->
<g id="edge70" class="edge">
<title>N0_8&#45;&#45;N1_8</title>
<path fill="none" stroke="black" stroke-width="5" d="M666,-108.17C666,-119 666,-132.71 666,-143.59"/>
</g>
<!-- N0_9 -->
<g id="node10" class="node">
<title>N0_9</title>
<polygon fill="none" stroke="black" points="756,-108 720,-108 720,-72 756,-72 756,-108"/>
</g>
<!-- N1_9 -->
<g id="node23" class="node">
<title>N1_9</title>
<polygon fill="none" stroke="black" points="756,-180 720,-180 720,-144 756,-144 756,-180"/>
</g>
<!-- N0_9&#45;&#45;N1_9 -->
<g id="edge84" class="edge">
<title>N0_9&#45;&#45;N1_9</title>
<path fill="none" stroke="black" stroke-width="5" d="M738,-108.17C738,-119 738,-132.71 738,-143.59"/>
</g>
<!-- N0_10 -->
<g id="node11" class="node">
<title>N0_10</title>
<polygon fill="none" stroke="black" points="828,-108 792,-108 792,-72 828,-72 828,-108"/>
</g>
<!-- N1_10 -->
<g id="node24" class="node">
<title>N1_10</title>
<polygon fill="none" stroke="black" points="828,-180 792,-180 792,-144 828,-144 828,-180"/>
</g>
<!-- N0_10&#45;&#45;N1_10 -->
<g id="edge15" class="edge">
<title>N0_10&#45;&#45;N1_10</title>
<path fill="none" stroke="black" stroke-width="5" d="M810,-108.17C810,-119 810,-132.71 810,-143.59"/>
</g>
<!-- N0_11 -->
<g id="node12" class="node">
<title>N0_11</title>
<polygon fill="none" stroke="black" points="900,-108 864,-108 864,-72 900,-72 900,-108"/>
</g>
<!-- N0_12 -->
<g id="node13" class="node">
<title>N0_12</title>
<polygon fill="none" stroke="black" points="972,-108 936,-108 936,-72 972,-72 972,-108"/>
</g>
<!-- N0_12&#45;&#45;N0_11 -->
<g id="edge81" class="edge">
<title>N0_12&#45;&#45;N0_11</title>
<path fill="none" stroke="black" stroke-width="5" d="M935.83,-90C925,-90 911.29,-90 900.41,-90"/>
</g>
<!-- A2 -->
<g id="node109" class="node">
<title>A2</title>
<ellipse fill="none" stroke="black" cx="1026" cy="-18" rx="18" ry="18"/>
<text text-anchor="middle" x="1026" y="-14.3" font-family="Times,serif" font-size="14.00">2</text>
</g>
<!-- N0_12&#45;&#45;A2 -->
<g id="edge82" class="edge">
<title>N0_12&#45;&#45;A2</title>
<path fill="none" stroke="black" stroke-width="2" d="M972.17,-71.83C984.83,-59.17 1001.44,-42.56 1012.84,-31.16"/>
</g>
<!-- N1_0 -->
<g id="node14" class="node">
<title>N1_0</title>
<polygon fill="none" stroke="black" points="108,-180 72,-180 72,-144 108,-144 108,-180"/>
</g>
<!-- N1_1 -->
<g id="node15" class="node">
<title>N1_1</title>
<polygon fill="none" stroke="black" points="180,-180 144,-180 144,-144 180,-144 180,-180"/>
</g>
<!-- N1_1&#45;&#45;N1_0 -->
<g id="edge49" class="edge">
<title>N1_1&#45;&#45;N1_0</title>
<path fill="none" stroke="black" stroke-width="5" d="M143.83,-162C133,-162 119.29,-162 108.41,-162"/>
</g>
<!-- N2_1 -->
<g id="node28" class="node">
<title>N2_1</title>
<polygon fill="none" stroke="black" points="180,-252 144,-252 144,-216 180,-216 180,-252"/>
</g>
<!-- N1_1&#45;&#45;N2_1 -->
<g id="edge48" class="edge">
<title>N1_1&#45;&#45;N2_1</title>
<path fill="none" stroke="black" stroke-width="5" d="M162,-180.17C162,-191 162,-204.71 162,-215.59"/>
</g>
<!-- N1_2&#45;&#45;N1_1 -->
<g id="edge91" class="edge">
<title>N1_2&#45;&#45;N1_1</title>
<path fill="none" stroke="black" stroke-width="5" d="M215.83,-162C205,-162 191.29,-162 180.41,-162"/>
</g>
<!-- N2_2 -->
<g id="node29" class="node">
<title>N2_2</title>
<polygon fill="none" stroke="black" points="252,-252 216,-252 216,-216 252,-216 252,-252"/>
</g>
<!-- N1_2&#45;&#45;N2_2 -->
<g id="edge95" class="edge">
<title>N1_2&#45;&#45;N2_2</title>
<path fill="none" stroke="black" stroke-width="5" d="M234,-180.17C234,-191 234,-204.71 234,-215.59"/>
</g>
<!-- N1_3 -->
<g id="node17" class="node">
<title>N1_3</title>
<polygon fill="none" stroke="black" points="324,-180 288,-180 288,-144 324,-144 324,-180"/>
</g>
<!-- N1_3&#45;&#45;N1_2 -->
<g id="edge92" class="edge">
<title>N1_3&#45;&#45;N1_2</title>
<path fill="none" stroke="black" stroke-width="5" d="M287.83,-162C277,-162 263.29,-162 252.41,-162"/>
</g>
<!-- N2_3 -->
<g id="node30" class="node">
<title>N2_3</title>
<polygon fill="none" stroke="black" points="324,-252 288,-252 288,-216 324,-216 324,-252"/>
</g>
<!-- N1_3&#45;&#45;N2_3 -->
<g id="edge17" class="edge">
<title>N1_3&#45;&#45;N2_3</title>
<path fill="none" stroke="black" stroke-width="5" d="M306,-180.17C306,-191 306,-204.71 306,-215.59"/>
</g>
<!-- N1_4 -->
<g id="node18" class="node">
<title>N1_4</title>
<polygon fill="none" stroke="black" points="396,-180 360,-180 360,-144 396,-144 396,-180"/>
</g>
<!-- N1_4&#45;&#45;N0_4 -->
<g id="edge1" class="edge">
<title>N1_4&#45;&#45;N0_4</title>
<path fill="none" stroke="black" stroke-width="5" d="M378,-143.83C378,-133 378,-119.29 378,-108.41"/>
</g>
<!-- N1_5 -->
<g id="node19" class="node">
<title>N1_5</title>
<polygon fill="none" stroke="black" points="468,-180 432,-180 432,-144 468,-144 468,-180"/>
</g>
<!-- N1_5&#45;&#45;N0_5 -->
<g id="edge40" class="edge">
<title>N1_5&#45;&#45;N0_5</title>
<path fill="none" stroke="black" stroke-width="5" d="M450,-143.83C450,-133 450,-119.29 450,-108.41"/>
</g>
<!-- N1_5&#45;&#45;N1_6 -->
<g id="edge39" class="edge">
<title>N1_5&#45;&#45;N1_6</title>
<path fill="none" stroke="black" stroke-width="5" d="M468.17,-162C479,-162 492.71,-162 503.59,-162"/>
</g>
<!-- N2_5 -->
<g id="node32" class="node">
<title>N2_5</title>
<polygon fill="none" stroke="black" points="468,-252 432,-252 432,-216 468,-216 468,-252"/>
</g>
<!-- N1_5&#45;&#45;N2_5 -->
<g id="edge96" class="edge">
<title>N1_5&#45;&#45;N2_5</title>
<path fill="none" stroke="black" stroke-width="5" d="M450,-180.17C450,-191 450,-204.71 450,-215.59"/>
</g>
<!-- N1_9&#45;&#45;N1_8 -->
<g id="edge69" class="edge">
<title>N1_9&#45;&#45;N1_8</title>
<path fill="none" stroke="black" stroke-width="5" d="M719.83,-162C709,-162 695.29,-162 684.41,-162"/>
</g>
<!-- N1_10&#45;&#45;N1_9 -->
<g id="edge68" class="edge">
<title>N1_10&#45;&#45;N1_9</title>
<path fill="none" stroke="black" stroke-width="5" d="M791.83,-162C781,-162 767.29,-162 756.41,-162"/>
</g>
<!-- N1_11 -->
<g id="node25" class="node">
<title>N1_11</title>
<polygon fill="none" stroke="black" points="900,-180 864,-180 864,-144 900,-144 900,-180"/>
</g>
<!-- N1_11&#45;&#45;N0_11 -->
<g id="edge80" class="edge">
<title>N1_11&#45;&#45;N0_11</title>
<path fill="none" stroke="black" stroke-width="5" d="M882,-143.83C882,-133 882,-119.29 882,-108.41"/>
</g>
<!-- N1_11&#45;&#45;N1_10 -->
<g id="edge67" class="edge">
<title>N1_11&#45;&#45;N1_10</title>
<path fill="none" stroke="black" stroke-width="5" d="M863.83,-162C853,-162 839.29,-162 828.41,-162"/>
</g>
<!-- N2_11 -->
<g id="node38" class="node">
<title>N2_11</title>
<polygon fill="none" stroke="black" points="900,-252 864,-252 864,-216 900,-216 900,-252"/>
</g>
<!-- N1_11&#45;&#45;N2_11 -->
<g id="edge66" class="edge">
<title>N1_11&#45;&#45;N2_11</title>
<path fill="none" stroke="black" stroke-width="5" d="M882,-180.17C882,-191 882,-204.71 882,-215.59"/>
</g>
<!-- N1_12 -->
<g id="node26" class="node">
<title>N1_12</title>
<polygon fill="none" stroke="black" points="972,-180 936,-180 936,-144 972,-144 972,-180"/>
</g>
<!-- A0 -->
<g id="node105" class="node">
<title>A0</title>
<ellipse fill="none" stroke="black" cx="1026" cy="-162" rx="18" ry="18"/>
<text text-anchor="middle" x="1026" y="-158.3" font-family="Times,serif" font-size="14.00">0</text>
</g>
<!-- N1_12&#45;&#45;A0 -->
<g id="edge3" class="edge">
<title>N1_12&#45;&#45;A0</title>
<path fill="none" stroke="black" stroke-width="2" d="M972.17,-162C983,-162 996.71,-162 1007.59,-162"/>
</g>
<!-- N2_0 -->
<g id="node27" class="node">
<title>N2_0</title>
<polygon fill="none" stroke="black" points="108,-252 72,-252 72,-216 108,-216 108,-252"/>
</g>
<!-- N2_0&#45;&#45;N2_1 -->
<g id="edge26" class="edge">
<title>N2_0&#45;&#45;N2_1</title>
<path fill="none" stroke="black" stroke-width="5" d="M108.17,-234C119,-234 132.71,-234 143.59,-234"/>
</g>
<!-- N2_4 -->
<g id="node31" class="node">
<title>N2_4</title>
<polygon fill="none" stroke="black" points="396,-252 360,-252 360,-216 396,-216 396,-252"/>
</g>
<!-- N2_5&#45;&#45;N2_4 -->
<g id="edge14" class="edge">
<title>N2_5&#45;&#45;N2_4</title>
<path fill="none" stroke="black" stroke-width="5" d="M431.83,-234C421,-234 407.29,-234 396.41,-234"/>
</g>
<!-- N2_6 -->
<g id="node33" class="node">
<title>N2_6</title>
<polygon fill="none" stroke="black" points="540,-252 504,-252 504,-216 540,-216 540,-252"/>
</g>
<!-- N2_6&#45;&#45;N1_6 -->
<g id="edge38" class="edge">
<title>N2_6&#45;&#45;N1_6</title>
<path fill="none" stroke="black" stroke-width="5" d="M522,-215.83C522,-205 522,-191.29 522,-180.41"/>
</g>
<!-- N3_6 -->
<g id="node46" class="node">
<title>N3_6</title>
<polygon fill="none" stroke="black" points="540,-324 504,-324 504,-288 540,-288 540,-324"/>
</g>
<!-- N2_6&#45;&#45;N3_6 -->
<g id="edge37" class="edge">
<title>N2_6&#45;&#45;N3_6</title>
<path fill="none" stroke="black" stroke-width="5" d="M522,-252.17C522,-263 522,-276.71 522,-287.59"/>
</g>
<!-- N2_7 -->
<g id="node34" class="node">
<title>N2_7</title>
<polygon fill="none" stroke="black" points="612,-252 576,-252 576,-216 612,-216 612,-252"/>
</g>
<!-- N2_7&#45;&#45;N2_6 -->
<g id="edge56" class="edge">
<title>N2_7&#45;&#45;N2_6</title>
<path fill="none" stroke="black" stroke-width="5" d="M575.83,-234C565,-234 551.29,-234 540.41,-234"/>
</g>
<!-- N3_7 -->
<g id="node47" class="node">
<title>N3_7</title>
<polygon fill="none" stroke="black" points="612,-324 576,-324 576,-288 612,-288 612,-324"/>
</g>
<!-- N2_7&#45;&#45;N3_7 -->
<g id="edge57" class="edge">
<title>N2_7&#45;&#45;N3_7</title>
<path fill="none" stroke="black" stroke-width="5" d="M594,-252.17C594,-263 594,-276.71 594,-287.59"/>
</g>
<!-- N2_8 -->
<g id="node35" class="node">
<title>N2_8</title>
<polygon fill="none" stroke="black" points="684,-252 648,-252 648,-216 684,-216 684,-252"/>
</g>
<!-- N2_9 -->
<g id="node36" class="node">
<title>N2_9</title>
<polygon fill="none" stroke="black" points="756,-252 720,-252 720,-216 756,-216 756,-252"/>
</g>
<!-- N2_8&#45;&#45;N2_9 -->
<g id="edge7" class="edge">
<title>N2_8&#45;&#45;N2_9</title>
<path fill="none" stroke="black" stroke-width="5" d="M684.17,-234C695,-234 708.71,-234 719.59,-234"/>
</g>
<!-- N3_8 -->
<g id="node48" class="node">
<title>N3_8</title>
<polygon fill="none" stroke="black" points="684,-324 648,-324 648,-288 684,-288 684,-324"/>
</g>
<!-- N2_8&#45;&#45;N3_8 -->
<g id="edge99" class="edge">
<title>N2_8&#45;&#45;N3_8</title>
<path fill="none" stroke="black" stroke-width="5" d="M666,-252.17C666,-263 666,-276.71 666,-287.59"/>
</g>
<!-- N2_10 -->
<g id="node37" class="node">
<title>N2_10</title>
<polygon fill="none" stroke="black" points="828,-252 792,-252 792,-216 828,-216 828,-252"/>
</g>
<!-- N2_11&#45;&#45;N2_10 -->
<g id="edge64" class="edge">
<title>N2_11&#45;&#45;N2_10</title>
<path fill="none" stroke="black" stroke-width="5" d="M863.83,-234C853,-234 839.29,-234 828.41,-234"/>
</g>
<!-- N2_12 -->
<g id="node39" class="node">
<title>N2_12</title>
<polygon fill="none" stroke="black" points="972,-252 936,-252 936,-216 972,-216 972,-252"/>
</g>
<!-- N2_12&#45;&#45;N2_11 -->
<g id="edge65" class="edge">
<title>N2_12&#45;&#45;N2_11</title>
<path fill="none" stroke="black" stroke-width="5" d="M935.83,-234C925,-234 911.29,-234 900.41,-234"/>
</g>
<!-- N3_0 -->
<g id="node40" class="node">
<title>N3_0</title>
<polygon fill="none" stroke="black" points="108,-324 72,-324 72,-288 108,-288 108,-324"/>
</g>
<!-- N3_1 -->
<g id="node41" class="node">
<title>N3_1</title>
<polygon fill="none" stroke="black" points="180,-324 144,-324 144,-288 180,-288 180,-324"/>
</g>
<!-- N3_1&#45;&#45;N2_1 -->
<g id="edge27" class="edge">
<title>N3_1&#45;&#45;N2_1</title>
<path fill="none" stroke="black" stroke-width="5" d="M162,-287.83C162,-277 162,-263.29 162,-252.41"/>
</g>
<!-- N3_1&#45;&#45;N3_0 -->
<g id="edge2" class="edge">
<title>N3_1&#45;&#45;N3_0</title>
<path fill="none" stroke="black" stroke-width="5" d="M143.83,-306C133,-306 119.29,-306 108.41,-306"/>
</g>
<!-- N4_1 -->
<g id="node54" class="node">
<title>N4_1</title>
<polygon fill="none" stroke="black" points="180,-396 144,-396 144,-360 180,-360 180,-396"/>
</g>
<!-- N3_1&#45;&#45;N4_1 -->
<g id="edge28" class="edge">
<title>N3_1&#45;&#45;N4_1</title>
<path fill="none" stroke="black" stroke-width="5" d="M162,-324.17C162,-335 162,-348.71 162,-359.59"/>
</g>
<!-- N3_2 -->
<g id="node42" class="node">
<title>N3_2</title>
<polygon fill="none" stroke="black" points="252,-324 216,-324 216,-288 252,-288 252,-324"/>
</g>
<!-- N3_2&#45;&#45;N2_2 -->
<g id="edge11" class="edge">
<title>N3_2&#45;&#45;N2_2</title>
<path fill="none" stroke="black" stroke-width="5" d="M234,-287.83C234,-277 234,-263.29 234,-252.41"/>
</g>
<!-- N3_3 -->
<g id="node43" class="node">
<title>N3_3</title>
<polygon fill="none" stroke="black" points="324,-324 288,-324 288,-288 324,-288 324,-324"/>
</g>
<!-- N4_3 -->
<g id="node56" class="node">
<title>N4_3</title>
<polygon fill="none" stroke="black" points="324,-396 288,-396 288,-360 324,-360 324,-396"/>
</g>
<!-- N3_3&#45;&#45;N4_3 -->
<g id="edge8" class="edge">
<title>N3_3&#45;&#45;N4_3</title>
<path fill="none" stroke="black" stroke-width="5" d="M306,-324.17C306,-335 306,-348.71 306,-359.59"/>
</g>
<!-- N3_4 -->
<g id="node44" class="node">
<title>N3_4</title>
<polygon fill="none" stroke="black" points="396,-324 360,-324 360,-288 396,-288 396,-324"/>
</g>
<!-- N3_5 -->
<g id="node45" class="node">
<title>N3_5</title>
<polygon fill="none" stroke="black" points="468,-324 432,-324 432,-288 468,-288 468,-324"/>
</g>
<!-- N3_8&#45;&#45;N3_7 -->
<g id="edge58" class="edge">
<title>N3_8&#45;&#45;N3_7</title>
<path fill="none" stroke="black" stroke-width="5" d="M647.83,-306C637,-306 623.29,-306 612.41,-306"/>
</g>
<!-- N4_8 -->
<g id="node61" class="node">
<title>N4_8</title>
<polygon fill="none" stroke="black" points="684,-396 648,-396 648,-360 684,-360 684,-396"/>
</g>
<!-- N3_8&#45;&#45;N4_8 -->
<g id="edge59" class="edge">
<title>N3_8&#45;&#45;N4_8</title>
<path fill="none" stroke="black" stroke-width="5" d="M666,-324.17C666,-335 666,-348.71 666,-359.59"/>
</g>
<!-- N3_9 -->
<g id="node49" class="node">
<title>N3_9</title>
<polygon fill="none" stroke="black" points="756,-324 720,-324 720,-288 756,-288 756,-324"/>
</g>
<!-- N4_9 -->
<g id="node62" class="node">
<title>N4_9</title>
<polygon fill="none" stroke="black" points="756,-396 720,-396 720,-360 756,-360 756,-396"/>
</g>
<!-- N3_9&#45;&#45;N4_9 -->
<g id="edge61" class="edge">
<title>N3_9&#45;&#45;N4_9</title>
<path fill="none" stroke="black" stroke-width="5" d="M738,-324.17C738,-335 738,-348.71 738,-359.59"/>
</g>
<!-- N3_10 -->
<g id="node50" class="node">
<title>N3_10</title>
<polygon fill="none" stroke="black" points="828,-324 792,-324 792,-288 828,-288 828,-324"/>
</g>
<!-- N3_10&#45;&#45;N2_10 -->
<g id="edge63" class="edge">
<title>N3_10&#45;&#45;N2_10</title>
<path fill="none" stroke="black" stroke-width="5" d="M810,-287.83C810,-277 810,-263.29 810,-252.41"/>
</g>
<!-- N3_10&#45;&#45;N3_9 -->
<g id="edge62" class="edge">
<title>N3_10&#45;&#45;N3_9</title>
<path fill="none" stroke="black" stroke-width="5" d="M791.83,-306C781,-306 767.29,-306 756.41,-306"/>
</g>
<!-- N3_11 -->
<g id="node51" class="node">
<title>N3_11</title>
<polygon fill="none" stroke="black" points="900,-324 864,-324 864,-288 900,-288 900,-324"/>
</g>
<!-- N3_11&#45;&#45;N2_11 -->
<g id="edge105" class="edge">
<title>N3_11&#45;&#45;N2_11</title>
<path fill="none" stroke="black" stroke-width="5" d="M882,-287.83C882,-277 882,-263.29 882,-252.41"/>
</g>
<!-- N3_12 -->
<g id="node52" class="node">
<title>N3_12</title>
<polygon fill="none" stroke="black" points="972,-324 936,-324 936,-288 972,-288 972,-324"/>
</g>
<!-- N3_11&#45;&#45;N3_12 -->
<g id="edge106" class="edge">
<title>N3_11&#45;&#45;N3_12</title>
<path fill="none" stroke="black" stroke-width="5" d="M900.17,-306C911,-306 924.71,-306 935.59,-306"/>
</g>
<!-- N4_0 -->
<g id="node53" class="node">
<title>N4_0</title>
<polygon fill="none" stroke="black" points="108,-396 72,-396 72,-360 108,-360 108,-396"/>
</g>
<!-- N4_1&#45;&#45;N4_0 -->
<g id="edge88" class="edge">
<title>N4_1&#45;&#45;N4_0</title>
<path fill="none" stroke="black" stroke-width="5" d="M143.83,-378C133,-378 119.29,-378 108.41,-378"/>
</g>
<!-- N4_2 -->
<g id="node55" class="node">
<title>N4_2</title>
<polygon fill="none" stroke="black" points="252,-396 216,-396 216,-360 252,-360 252,-396"/>
</g>
<!-- N4_2&#45;&#45;N4_1 -->
<g id="edge29" class="edge">
<title>N4_2&#45;&#45;N4_1</title>
<path fill="none" stroke="black" stroke-width="5" d="M215.83,-378C205,-378 191.29,-378 180.41,-378"/>
</g>
<!-- N4_3&#45;&#45;N4_2 -->
<g id="edge30" class="edge">
<title>N4_3&#45;&#45;N4_2</title>
<path fill="none" stroke="black" stroke-width="5" d="M287.83,-378C277,-378 263.29,-378 252.41,-378"/>
</g>
<!-- N4_4 -->
<g id="node57" class="node">
<title>N4_4</title>
<polygon fill="none" stroke="black" points="396,-396 360,-396 360,-360 396,-360 396,-396"/>
</g>
<!-- N4_4&#45;&#45;N3_4 -->
<g id="edge104" class="edge">
<title>N4_4&#45;&#45;N3_4</title>
<path fill="none" stroke="black" stroke-width="5" d="M378,-359.83C378,-349 378,-335.29 378,-324.41"/>
</g>
<!-- N4_4&#45;&#45;N4_3 -->
<g id="edge31" class="edge">
<title>N4_4&#45;&#45;N4_3</title>
<path fill="none" stroke="black" stroke-width="5" d="M359.83,-378C349,-378 335.29,-378 324.41,-378"/>
</g>
<!-- N5_4 -->
<g id="node70" class="node">
<title>N5_4</title>
<polygon fill="none" stroke="black" points="396,-468 360,-468 360,-432 396,-432 396,-468"/>
</g>
<!-- N4_4&#45;&#45;N5_4 -->
<g id="edge32" class="edge">
<title>N4_4&#45;&#45;N5_4</title>
<path fill="none" stroke="black" stroke-width="5" d="M378,-396.17C378,-407 378,-420.71 378,-431.59"/>
</g>
<!-- N4_5 -->
<g id="node58" class="node">
<title>N4_5</title>
<polygon fill="none" stroke="black" points="468,-396 432,-396 432,-360 468,-360 468,-396"/>
</g>
<!-- N4_5&#45;&#45;N3_5 -->
<g id="edge93" class="edge">
<title>N4_5&#45;&#45;N3_5</title>
<path fill="none" stroke="black" stroke-width="5" d="M450,-359.83C450,-349 450,-335.29 450,-324.41"/>
</g>
<!-- N4_5&#45;&#45;N4_4 -->
<g id="edge73" class="edge">
<title>N4_5&#45;&#45;N4_4</title>
<path fill="none" stroke="black" stroke-width="5" d="M431.83,-378C421,-378 407.29,-378 396.41,-378"/>
</g>
<!-- N4_6 -->
<g id="node59" class="node">
<title>N4_6</title>
<polygon fill="none" stroke="black" points="540,-396 504,-396 504,-360 540,-360 540,-396"/>
</g>
<!-- N4_6&#45;&#45;N3_6 -->
<g id="edge36" class="edge">
<title>N4_6&#45;&#45;N3_6</title>
<path fill="none" stroke="black" stroke-width="5" d="M522,-359.83C522,-349 522,-335.29 522,-324.41"/>
</g>
<!-- N4_7 -->
<g id="node60" class="node">
<title>N4_7</title>
<polygon fill="none" stroke="black" points="612,-396 576,-396 576,-360 612,-360 612,-396"/>
</g>
<!-- N4_6&#45;&#45;N4_7 -->
<g id="edge97" class="edge">
<title>N4_6&#45;&#45;N4_7</title>
<path fill="none" stroke="black" stroke-width="5" d="M540.17,-378C551,-378 564.71,-378 575.59,-378"/>
</g>
<!-- N5_6 -->
<g id="node72" class="node">
<title>N5_6</title>
<polygon fill="none" stroke="black" points="540,-468 504,-468 504,-432 540,-432 540,-468"/>
</g>
<!-- N4_6&#45;&#45;N5_6 -->
<g id="edge35" class="edge">
<title>N4_6&#45;&#45;N5_6</title>
<path fill="none" stroke="black" stroke-width="5" d="M522,-396.17C522,-407 522,-420.71 522,-431.59"/>
</g>
<!-- N4_9&#45;&#45;N4_8 -->
<g id="edge60" class="edge">
<title>N4_9&#45;&#45;N4_8</title>
<path fill="none" stroke="black" stroke-width="5" d="M719.83,-378C709,-378 695.29,-378 684.41,-378"/>
</g>
<!-- N4_10 -->
<g id="node63" class="node">
<title>N4_10</title>
<polygon fill="none" stroke="black" points="828,-396 792,-396 792,-360 828,-360 828,-396"/>
</g>
<!-- N5_10 -->
<g id="node76" class="node">
<title>N5_10</title>
<polygon fill="none" stroke="black" points="828,-468 792,-468 792,-432 828,-432 828,-468"/>
</g>
<!-- N4_10&#45;&#45;N5_10 -->
<g id="edge103" class="edge">
<title>N4_10&#45;&#45;N5_10</title>
<path fill="none" stroke="black" stroke-width="5" d="M810,-396.17C810,-407 810,-420.71 810,-431.59"/>
</g>
<!-- N4_11 -->
<g id="node64" class="node">
<title>N4_11</title>
<polygon fill="none" stroke="black" points="900,-396 864,-396 864,-360 900,-360 900,-396"/>
</g>
<!-- N4_11&#45;&#45;N4_10 -->
<g id="edge21" class="edge">
<title>N4_11&#45;&#45;N4_10</title>
<path fill="none" stroke="black" stroke-width="5" d="M863.83,-378C853,-378 839.29,-378 828.41,-378"/>
</g>
<!-- N4_12 -->
<g id="node65" class="node">
<title>N4_12</title>
<polygon fill="none" stroke="black" points="972,-396 936,-396 936,-360 972,-360 972,-396"/>
</g>
<!-- N5_12 -->
<g id="node78" class="node">
<title>N5_12</title>
<polygon fill="none" stroke="black" points="972,-468 936,-468 936,-432 972,-432 972,-468"/>
</g>
<!-- N4_12&#45;&#45;N5_12 -->
<g id="edge55" class="edge">
<title>N4_12&#45;&#45;N5_12</title>
<path fill="none" stroke="black" stroke-width="5" d="M954,-396.17C954,-407 954,-420.71 954,-431.59"/>
</g>
<!-- N5_0 -->
<g id="node66" class="node">
<title>N5_0</title>
<polygon fill="none" stroke="black" points="108,-468 72,-468 72,-432 108,-432 108,-468"/>
</g>
<!-- N6_0 -->
<g id="node79" class="node">
<title>N6_0</title>
<polygon fill="none" stroke="black" points="108,-540 72,-540 72,-504 108,-504 108,-540"/>
</g>
<!-- N5_0&#45;&#45;N6_0 -->
<g id="edge47" class="edge">
<title>N5_0&#45;&#45;N6_0</title>
<path fill="none" stroke="black" stroke-width="5" d="M90,-468.17C90,-479 90,-492.71 90,-503.59"/>
</g>
<!-- N5_1 -->
<g id="node67" class="node">
<title>N5_1</title>
<polygon fill="none" stroke="black" points="180,-468 144,-468 144,-432 180,-432 180,-468"/>
</g>
<!-- N5_2 -->
<g id="node68" class="node">
<title>N5_2</title>
<polygon fill="none" stroke="black" points="252,-468 216,-468 216,-432 252,-432 252,-468"/>
</g>
<!-- N5_1&#45;&#45;N5_2 -->
<g id="edge74" class="edge">
<title>N5_1&#45;&#45;N5_2</title>
<path fill="none" stroke="black" stroke-width="5" d="M180.17,-450C191,-450 204.71,-450 215.59,-450"/>
</g>
<!-- N5_3 -->
<g id="node69" class="node">
<title>N5_3</title>
<polygon fill="none" stroke="black" points="324,-468 288,-468 288,-432 324,-432 324,-468"/>
</g>
<!-- N5_3&#45;&#45;N5_2 -->
<g id="edge43" class="edge">
<title>N5_3&#45;&#45;N5_2</title>
<path fill="none" stroke="black" stroke-width="5" d="M287.83,-450C277,-450 263.29,-450 252.41,-450"/>
</g>
<!-- N5_4&#45;&#45;N5_3 -->
<g id="edge42" class="edge">
<title>N5_4&#45;&#45;N5_3</title>
<path fill="none" stroke="black" stroke-width="5" d="M359.83,-450C349,-450 335.29,-450 324.41,-450"/>
</g>
<!-- N5_5 -->
<g id="node71" class="node">
<title>N5_5</title>
<polygon fill="none" stroke="black" points="468,-468 432,-468 432,-432 468,-432 468,-468"/>
</g>
<!-- N5_5&#45;&#45;N5_4 -->
<g id="edge33" class="edge">
<title>N5_5&#45;&#45;N5_4</title>
<path fill="none" stroke="black" stroke-width="5" d="M431.83,-450C421,-450 407.29,-450 396.41,-450"/>
</g>
<!-- N6_5 -->
<g id="node84" class="node">
<title>N6_5</title>
<polygon fill="none" stroke="black" points="468,-540 432,-540 432,-504 468,-504 468,-540"/>
</g>
<!-- N5_5&#45;&#45;N6_5 -->
<g id="edge107" class="edge">
<title>N5_5&#45;&#45;N6_5</title>
<path fill="none" stroke="black" stroke-width="5" d="M450,-468.17C450,-479 450,-492.71 450,-503.59"/>
</g>
<!-- N5_6&#45;&#45;N5_5 -->
<g id="edge34" class="edge">
<title>N5_6&#45;&#45;N5_5</title>
<path fill="none" stroke="black" stroke-width="5" d="M503.83,-450C493,-450 479.29,-450 468.41,-450"/>
</g>
<!-- N6_6 -->
<g id="node85" class="node">
<title>N6_6</title>
<polygon fill="none" stroke="black" points="540,-540 504,-540 504,-504 540,-504 540,-540"/>
</g>
<!-- N5_6&#45;&#45;N6_6 -->
<g id="edge20" class="edge">
<title>N5_6&#45;&#45;N6_6</title>
<path fill="none" stroke="black" stroke-width="5" d="M522,-468.17C522,-479 522,-492.71 522,-503.59"/>
</g>
<!-- N5_7 -->
<g id="node73" class="node">
<title>N5_7</title>
<polygon fill="none" stroke="black" points="612,-468 576,-468 576,-432 612,-432 612,-468"/>
</g>
<!-- N5_7&#45;&#45;N4_7 -->
<g id="edge98" class="edge">
<title>N5_7&#45;&#45;N4_7</title>
<path fill="none" stroke="black" stroke-width="5" d="M594,-431.83C594,-421 594,-407.29 594,-396.41"/>
</g>
<!-- N5_8 -->
<g id="node74" class="node">
<title>N5_8</title>
<polygon fill="none" stroke="black" points="684,-468 648,-468 648,-432 684,-432 684,-468"/>
</g>
<!-- N5_8&#45;&#45;N4_8 -->
<g id="edge13" class="edge">
<title>N5_8&#45;&#45;N4_8</title>
<path fill="none" stroke="black" stroke-width="5" d="M666,-431.83C666,-421 666,-407.29 666,-396.41"/>
</g>
<!-- N5_9 -->
<g id="node75" class="node">
<title>N5_9</title>
<polygon fill="none" stroke="black" points="756,-468 720,-468 720,-432 756,-432 756,-468"/>
</g>
<!-- N5_9&#45;&#45;N5_10 -->
<g id="edge22" class="edge">
<title>N5_9&#45;&#45;N5_10</title>
<path fill="none" stroke="black" stroke-width="5" d="M756.17,-450C767,-450 780.71,-450 791.59,-450"/>
</g>
<!-- N5_11 -->
<g id="node77" class="node">
<title>N5_11</title>
<polygon fill="none" stroke="black" points="900,-468 864,-468 864,-432 900,-432 900,-468"/>
</g>
<!-- N5_12&#45;&#45;N5_11 -->
<g id="edge54" class="edge">
<title>N5_12&#45;&#45;N5_11</title>
<path fill="none" stroke="black" stroke-width="5" d="M935.83,-450C925,-450 911.29,-450 900.41,-450"/>
</g>
<!-- N6_1 -->
<g id="node80" class="node">
<title>N6_1</title>
<polygon fill="none" stroke="black" points="180,-540 144,-540 144,-504 180,-504 180,-540"/>
</g>
<!-- N6_1&#45;&#45;N6_0 -->
<g id="edge46" class="edge">
<title>N6_1&#45;&#45;N6_0</title>
<path fill="none" stroke="black" stroke-width="5" d="M143.83,-522C133,-522 119.29,-522 108.41,-522"/>
</g>
<!-- N6_2 -->
<g id="node81" class="node">
<title>N6_2</title>
<polygon fill="none" stroke="black" points="252,-540 216,-540 216,-504 252,-504 252,-540"/>
</g>
<!-- N6_2&#45;&#45;N5_2 -->
<g id="edge44" class="edge">
<title>N6_2&#45;&#45;N5_2</title>
<path fill="none" stroke="black" stroke-width="5" d="M234,-503.83C234,-493 234,-479.29 234,-468.41"/>
</g>
<!-- N6_2&#45;&#45;N6_1 -->
<g id="edge45" class="edge">
<title>N6_2&#45;&#45;N6_1</title>
<path fill="none" stroke="black" stroke-width="5" d="M215.83,-522C205,-522 191.29,-522 180.41,-522"/>
</g>
<!-- N6_3 -->
<g id="node82" class="node">
<title>N6_3</title>
<polygon fill="none" stroke="black" points="324,-540 288,-540 288,-504 324,-504 324,-540"/>
</g>
<!-- N6_3&#45;&#45;N5_3 -->
<g id="edge85" class="edge">
<title>N6_3&#45;&#45;N5_3</title>
<path fill="none" stroke="black" stroke-width="5" d="M306,-503.83C306,-493 306,-479.29 306,-468.41"/>
</g>
<!-- N7_3 -->
<g id="node95" class="node">
<title>N7_3</title>
<polygon fill="none" stroke="black" points="324,-612 288,-612 288,-576 324,-576 324,-612"/>
</g>
<!-- N6_3&#45;&#45;N7_3 -->
<g id="edge86" class="edge">
<title>N6_3&#45;&#45;N7_3</title>
<path fill="none" stroke="black" stroke-width="5" d="M306,-540.17C306,-551 306,-564.71 306,-575.59"/>
</g>
<!-- N6_4 -->
<g id="node83" class="node">
<title>N6_4</title>
<polygon fill="none" stroke="black" points="396,-540 360,-540 360,-504 396,-504 396,-540"/>
</g>
<!-- N7_4 -->
<g id="node96" class="node">
<title>N7_4</title>
<polygon fill="none" stroke="black" points="396,-612 360,-612 360,-576 396,-576 396,-612"/>
</g>
<!-- N6_4&#45;&#45;N7_4 -->
<g id="edge12" class="edge">
<title>N6_4&#45;&#45;N7_4</title>
<path fill="none" stroke="black" stroke-width="5" d="M378,-540.17C378,-551 378,-564.71 378,-575.59"/>
</g>
<!-- N6_7 -->
<g id="node86" class="node">
<title>N6_7</title>
<polygon fill="none" stroke="black" points="612,-540 576,-540 576,-504 612,-504 612,-540"/>
</g>
<!-- N6_8 -->
<g id="node87" class="node">
<title>N6_8</title>
<polygon fill="none" stroke="black" points="684,-540 648,-540 648,-504 684,-504 684,-540"/>
</g>
<!-- N6_9 -->
<g id="node88" class="node">
<title>N6_9</title>
<polygon fill="none" stroke="black" points="756,-540 720,-540 720,-504 756,-504 756,-540"/>
</g>
<!-- N7_9 -->
<g id="node101" class="node">
<title>N7_9</title>
<polygon fill="none" stroke="black" points="756,-612 720,-612 720,-576 756,-576 756,-612"/>
</g>
<!-- N6_9&#45;&#45;N7_9 -->
<g id="edge77" class="edge">
<title>N6_9&#45;&#45;N7_9</title>
<path fill="none" stroke="black" stroke-width="5" d="M738,-540.17C738,-551 738,-564.71 738,-575.59"/>
</g>
<!-- N6_10 -->
<g id="node89" class="node">
<title>N6_10</title>
<polygon fill="none" stroke="black" points="828,-540 792,-540 792,-504 828,-504 828,-540"/>
</g>
<!-- N6_10&#45;&#45;N5_10 -->
<g id="edge94" class="edge">
<title>N6_10&#45;&#45;N5_10</title>
<path fill="none" stroke="black" stroke-width="5" d="M810,-503.83C810,-493 810,-479.29 810,-468.41"/>
</g>
<!-- N6_10&#45;&#45;N6_9 -->
<g id="edge76" class="edge">
<title>N6_10&#45;&#45;N6_9</title>
<path fill="none" stroke="black" stroke-width="5" d="M791.83,-522C781,-522 767.29,-522 756.41,-522"/>
</g>
<!-- N6_11 -->
<g id="node90" class="node">
<title>N6_11</title>
<polygon fill="none" stroke="black" points="900,-540 864,-540 864,-504 900,-504 900,-540"/>
</g>
<!-- N6_11&#45;&#45;N5_11 -->
<g id="edge53" class="edge">
<title>N6_11&#45;&#45;N5_11</title>
<path fill="none" stroke="black" stroke-width="5" d="M882,-503.83C882,-493 882,-479.29 882,-468.41"/>
</g>
<!-- N6_11&#45;&#45;N6_10 -->
<g id="edge75" class="edge">
<title>N6_11&#45;&#45;N6_10</title>
<path fill="none" stroke="black" stroke-width="5" d="M863.83,-522C853,-522 839.29,-522 828.41,-522"/>
</g>
<!-- N6_12 -->
<g id="node91" class="node">
<title>N6_12</title>
<polygon fill="none" stroke="black" points="972,-540 936,-540 936,-504 972,-504 972,-540"/>
</g>
<!-- N6_12&#45;&#45;N6_11 -->
<g id="edge52" class="edge">
<title>N6_12&#45;&#45;N6_11</title>
<path fill="none" stroke="black" stroke-width="5" d="M935.83,-522C925,-522 911.29,-522 900.41,-522"/>
</g>
<!-- A1 -->
<g id="node107" class="node">
<title>A1</title>
<ellipse fill="none" stroke="black" cx="1026" cy="-522" rx="18" ry="18"/>
<text text-anchor="middle" x="1026" y="-518.3" font-family="Times,serif" font-size="14.00">1</text>
</g>
<!-- N6_12&#45;&#45;A1 -->
<g id="edge50" class="edge">
<title>N6_12&#45;&#45;A1</title>
<path fill="none" stroke="black" stroke-width="2" d="M972.17,-522C983,-522 996.71,-522 1007.59,-522"/>
</g>
<!-- N7_0 -->
<g id="node92" class="node">
<title>N7_0</title>
<polygon fill="none" stroke="black" points="108,-612 72,-612 72,-576 108,-576 108,-612"/>
</g>
<!-- N7_1 -->
<g id="node93" class="node">
<title>N7_1</title>
<polygon fill="none" stroke="black" points="180,-612 144,-612 144,-576 180,-576 180,-612"/>
</g>
<!-- N7_1&#45;&#45;N7_0 -->
<g id="edge90" class="edge">
<title>N7_1&#45;&#45;N7_0</title>
<path fill="none" stroke="black" stroke-width="5" d="M143.83,-594C133,-594 119.29,-594 108.41,-594"/>
</g>
<!-- N7_2 -->
<g id="node94" class="node">
<title>N7_2</title>
<polygon fill="none" stroke="black" points="252,-612 216,-612 216,-576 252,-576 252,-612"/>
</g>
<!-- N7_2&#45;&#45;N7_1 -->
<g id="edge24" class="edge">
<title>N7_2&#45;&#45;N7_1</title>
<path fill="none" stroke="black" stroke-width="5" d="M215.83,-594C205,-594 191.29,-594 180.41,-594"/>
</g>
<!-- N7_3&#45;&#45;N7_4 -->
<g id="edge87" class="edge">
<title>N7_3&#45;&#45;N7_4</title>
<path fill="none" stroke="black" stroke-width="5" d="M324.17,-594C335,-594 348.71,-594 359.59,-594"/>
</g>
<!-- N7_5 -->
<g id="node97" class="node">
<title>N7_5</title>
<polygon fill="none" stroke="black" points="468,-612 432,-612 432,-576 468,-576 468,-612"/>
</g>
<!-- N7_5&#45;&#45;N7_4 -->
<g id="edge5" class="edge">
<title>N7_5&#45;&#45;N7_4</title>
<path fill="none" stroke="black" stroke-width="5" d="M431.83,-594C421,-594 407.29,-594 396.41,-594"/>
</g>
<!-- N7_6 -->
<g id="node98" class="node">
<title>N7_6</title>
<polygon fill="none" stroke="black" points="540,-612 504,-612 504,-576 540,-576 540,-612"/>
</g>
<!-- N7_6&#45;&#45;N7_5 -->
<g id="edge6" class="edge">
<title>N7_6&#45;&#45;N7_5</title>
<path fill="none" stroke="black" stroke-width="5" d="M503.83,-594C493,-594 479.29,-594 468.41,-594"/>
</g>
<!-- N7_7 -->
<g id="node99" class="node">
<title>N7_7</title>
<polygon fill="none" stroke="black" points="612,-612 576,-612 576,-576 612,-576 612,-612"/>
</g>
<!-- N7_7&#45;&#45;N6_7 -->
<g id="edge23" class="edge">
<title>N7_7&#45;&#45;N6_7</title>
<path fill="none" stroke="black" stroke-width="5" d="M594,-575.83C594,-565 594,-551.29 594,-540.41"/>
</g>
<!-- N7_7&#45;&#45;N7_6 -->
<g id="edge9" class="edge">
<title>N7_7&#45;&#45;N7_6</title>
<path fill="none" stroke="black" stroke-width="5" d="M575.83,-594C565,-594 551.29,-594 540.41,-594"/>
</g>
<!-- N7_8 -->
<g id="node100" class="node">
<title>N7_8</title>
<polygon fill="none" stroke="black" points="684,-612 648,-612 648,-576 684,-576 684,-612"/>
</g>
<!-- N7_8&#45;&#45;N6_8 -->
<g id="edge19" class="edge">
<title>N7_8&#45;&#45;N6_8</title>
<path fill="none" stroke="black" stroke-width="5" d="M666,-575.83C666,-565 666,-551.29 666,-540.41"/>
</g>
<!-- N7_8&#45;&#45;N7_7 -->
<g id="edge10" class="edge">
<title>N7_8&#45;&#45;N7_7</title>
<path fill="none" stroke="black" stroke-width="5" d="M647.83,-594C637,-594 623.29,-594 612.41,-594"/>
</g>
<!-- N7_10 -->
<g id="node102" class="node">
<title>N7_10</title>
<polygon fill="none" stroke="black" points="828,-612 792,-612 792,-576 828,-576 828,-612"/>
</g>
<!-- N7_10&#45;&#45;N7_9 -->
<g id="edge78" class="edge">
<title>N7_10&#45;&#45;N7_9</title>
<path fill="none" stroke="black" stroke-width="5" d="M791.83,-594C781,-594 767.29,-594 756.41,-594"/>
</g>
<!-- N7_11 -->
<g id="node103" class="node">
<title>N7_11</title>
<polygon fill="none" stroke="black" points="900,-612 864,-612 864,-576 900,-576 900,-612"/>
</g>
<!-- N7_11&#45;&#45;N7_10 -->
<g id="edge79" class="edge">
<title>N7_11&#45;&#45;N7_10</title>
<path fill="none" stroke="black" stroke-width="5" d="M863.83,-594C853,-594 839.29,-594 828.41,-594"/>
</g>
<!-- N7_12 -->
<g id="node104" class="node">
<title>N7_12</title>
<polygon fill="none" stroke="black" points="972,-612 936,-612 936,-576 972,-576 972,-612"/>
</g>
<!-- N7_12&#45;&#45;N7_11 -->
<g id="edge100" class="edge">
<title>N7_12&#45;&#45;N7_11</title>
<path fill="none" stroke="black" stroke-width="5" d="M935.83,-594C925,-594 911.29,-594 900.41,-594"/>
</g>
<!-- B0 -->
<g id="node106" class="node">
<title>B0</title>
<ellipse fill="none" stroke="black" cx="18" cy="-522" rx="18" ry="18"/>
<text text-anchor="middle" x="18" y="-518.3" font-family="Times,serif" font-size="14.00">0</text>
</g>
<!-- B0&#45;&#45;N6_0 -->
<g id="edge4" class="edge">
<title>B0&#45;&#45;N6_0</title>
<path fill="none" stroke="black" stroke-width="2" d="M36.17,-522C47,-522 60.71,-522 71.59,-522"/>
</g>
<!-- B1 -->
<g id="node108" class="node">
<title>B1</title>
<ellipse fill="none" stroke="black" cx="18" cy="-162" rx="18" ry="18"/>
<text text-anchor="middle" x="18" y="-158.3" font-family="Times,serif" font-size="14.00">1</text>
</g>
<!-- B1&#45;&#45;N1_0 -->
<g id="edge51" class="edge">
<title>B1&#45;&#45;N1_0</title>
<path fill="none" stroke="black" stroke-width="2" d="M36.17,-162C47,-162 60.71,-162 71.59,-162"/>
</g>
<!-- B2 -->
<g id="node110" class="node">
<title>B2</title>
<ellipse fill="none" stroke="black" cx="18" cy="-666" rx="18" ry="18"/>
<text text-anchor="middle" x="18" y="-662.3" font-family="Times,serif" font-size="14.00">2</text>
</g>
<!-- B2&#45;&#45;N7_0 -->
<g id="edge83" class="edge">
<title>B2&#45;&#45;N7_0</title>
<path fill="none" stroke="black" stroke-width="2" d="M30.87,-653.13C42.28,-641.72 59.06,-624.94 71.83,-612.17"/>
</g>
<!-- B3 -->
<g id="node112" class="node">
<title>B3</title>
<ellipse fill="none" stroke="black" cx="1026" cy="-666" rx="18" ry="18"/>
<text text-anchor="middle" x="1026" y="-662.3" font-family="Times,serif" font-size="14.00">3</text>
</g>
<!-- B3&#45;&#45;N7_12 -->
<g id="edge102" class="edge">
<title>B3&#45;&#45;N7_12</title>
<path fill="none" stroke="black" stroke-width="2" d="M1013.13,-653.13C1001.72,-641.72 984.94,-624.94 972.17,-612.17"/>
</g>
</g>
</svg>
