<?xml version="1.0" encoding="UTF-8" standalone="no"?>
<!DOCTYPE svg PUBLIC "-//W3C//DTD SVG 1.1//EN"
 "http://www.w3.org/Graphics/SVG/1.1/DTD/svg11.dtd">
<!-- Generated by graphviz version 2.43.0 (0)
 -->
<!-- Title: %3 Pages: 1 -->
<svg width="913pt" height="554pt"
 viewBox="0.00 0.00 913.00 554.00" xmlns="http://www.w3.org/2000/svg" xmlns:xlink="http://www.w3.org/1999/xlink">
<g id="graph0" class="graph" transform="scale(1 1) rotate(0) translate(4 550)">
<title>%3</title>
<polygon fill="white" stroke="transparent" points="-4,4 -4,-550 909,-550 909,4 -4,4"/>
<!-- N0_0 -->
<g id="node1" class="node">
<title>N0_0</title>
<polygon fill="none" stroke="black" points="42,-41 1,-41 1,0 42,0 42,-41"/>
<text text-anchor="middle" x="21.5" y="-16.8" font-family="Times,serif" font-size="14.00">SW</text>
</g>
<!-- N0_1 -->
<g id="node2" class="node">
<title>N0_1</title>
<polygon fill="none" stroke="black" points="111.5,-38.5 75.5,-38.5 75.5,-2.5 111.5,-2.5 111.5,-38.5"/>
</g>
<!-- N0_0&#45;&#45;N0_1 -->
<g id="edge43" class="edge">
<title>N0_0&#45;&#45;N0_1</title>
<path fill="none" stroke="black" stroke-width="5" d="M42.33,-20.5C52.79,-20.5 65.35,-20.5 75.41,-20.5"/>
</g>
<!-- N1_0 -->
<g id="node14" class="node">
<title>N1_0</title>
<polygon fill="none" stroke="black" points="39.5,-110.5 3.5,-110.5 3.5,-74.5 39.5,-74.5 39.5,-110.5"/>
</g>
<!-- N0_0&#45;&#45;N1_0 -->
<g id="edge26" class="edge">
<title>N0_0&#45;&#45;N1_0</title>
<path fill="none" stroke="black" stroke-width="5" d="M21.5,-41.33C21.5,-51.79 21.5,-64.35 21.5,-74.41"/>
</g>
<!-- N0_2 -->
<g id="node3" class="node">
<title>N0_2</title>
<polygon fill="none" stroke="black" points="183.5,-38.5 147.5,-38.5 147.5,-2.5 183.5,-2.5 183.5,-38.5"/>
</g>
<!-- N0_3 -->
<g id="node4" class="node">
<title>N0_3</title>
<polygon fill="none" stroke="black" points="255.5,-38.5 219.5,-38.5 219.5,-2.5 255.5,-2.5 255.5,-38.5"/>
</g>
<!-- N0_3&#45;&#45;N0_2 -->
<g id="edge38" class="edge">
<title>N0_3&#45;&#45;N0_2</title>
<path fill="none" stroke="black" stroke-width="5" d="M219.33,-20.5C208.5,-20.5 194.79,-20.5 183.91,-20.5"/>
</g>
<!-- N0_4 -->
<g id="node5" class="node">
<title>N0_4</title>
<polygon fill="none" stroke="black" points="327.5,-38.5 291.5,-38.5 291.5,-2.5 327.5,-2.5 327.5,-38.5"/>
</g>
<!-- N1_4 -->
<g id="node18" class="node">
<title>N1_4</title>
<polygon fill="none" stroke="black" points="327.5,-110.5 291.5,-110.5 291.5,-74.5 327.5,-74.5 327.5,-110.5"/>
</g>
<!-- N0_4&#45;&#45;N1_4 -->
<g id="edge47" class="edge">
<title>N0_4&#45;&#45;N1_4</title>
<path fill="none" stroke="black" stroke-width="5" d="M309.5,-38.67C309.5,-49.5 309.5,-63.21 309.5,-74.09"/>
</g>
<!-- N0_5 -->
<g id="node6" class="node">
<title>N0_5</title>
<polygon fill="none" stroke="black" points="399.5,-38.5 363.5,-38.5 363.5,-2.5 399.5,-2.5 399.5,-38.5"/>
</g>
<!-- N0_6 -->
<g id="node7" class="node">
<title>N0_6</title>
<polygon fill="none" stroke="black" points="471.5,-38.5 435.5,-38.5 435.5,-2.5 471.5,-2.5 471.5,-38.5"/>
</g>
<!-- N0_6&#45;&#45;N0_5 -->
<g id="edge32" class="edge">
<title>N0_6&#45;&#45;N0_5</title>
<path fill="none" stroke="black" stroke-width="5" d="M435.33,-20.5C424.5,-20.5 410.79,-20.5 399.91,-20.5"/>
</g>
<!-- N1_6 -->
<g id="node20" class="node">
<title>N1_6</title>
<polygon fill="none" stroke="black" points="471.5,-110.5 435.5,-110.5 435.5,-74.5 471.5,-74.5 471.5,-110.5"/>
</g>
<!-- N0_6&#45;&#45;N1_6 -->
<g id="edge31" class="edge">
<title>N0_6&#45;&#45;N1_6</title>
<path fill="none" stroke="black" stroke-width="5" d="M453.5,-38.67C453.5,-49.5 453.5,-63.21 453.5,-74.09"/>
</g>
<!-- N0_7 -->
<g id="node8" class="node">
<title>N0_7</title>
<polygon fill="none" stroke="black" points="543.5,-38.5 507.5,-38.5 507.5,-2.5 543.5,-2.5 543.5,-38.5"/>
</g>
<!-- N1_7 -->
<g id="node21" class="node">
<title>N1_7</title>
<polygon fill="none" stroke="black" points="543.5,-110.5 507.5,-110.5 507.5,-74.5 543.5,-74.5 543.5,-110.5"/>
</g>
<!-- N0_7&#45;&#45;N1_7 -->
<g id="edge52" class="edge">
<title>N0_7&#45;&#45;N1_7</title>
<path fill="none" stroke="black" stroke-width="5" d="M525.5,-38.67C525.5,-49.5 525.5,-63.21 525.5,-74.09"/>
</g>
<!-- N0_8 -->
<g id="node9" class="node">
<title>N0_8</title>
<polygon fill="none" stroke="black" points="615.5,-38.5 579.5,-38.5 579.5,-2.5 615.5,-2.5 615.5,-38.5"/>
</g>
<!-- N0_8&#45;&#45;N0_7 -->
<g id="edge54" class="edge">
<title>N0_8&#45;&#45;N0_7</title>
<path fill="none" stroke="black" stroke-width="5" d="M579.33,-20.5C568.5,-20.5 554.79,-20.5 543.91,-20.5"/>
</g>
<!-- N0_9 -->
<g id="node10" class="node">
<title>N0_9</title>
<polygon fill="none" stroke="black" points="687.5,-38.5 651.5,-38.5 651.5,-2.5 687.5,-2.5 687.5,-38.5"/>
</g>
<!-- N0_8&#45;&#45;N0_9 -->
<g id="edge55" class="edge">
<title>N0_8&#45;&#45;N0_9</title>
<path fill="none" stroke="black" stroke-width="5" d="M615.67,-20.5C626.5,-20.5 640.21,-20.5 651.09,-20.5"/>
</g>
<!-- N0_10 -->
<g id="node11" class="node">
<title>N0_10</title>
<polygon fill="none" stroke="black" points="759.5,-38.5 723.5,-38.5 723.5,-2.5 759.5,-2.5 759.5,-38.5"/>
</g>
<!-- N0_11 -->
<g id="node12" class="node">
<title>N0_11</title>
<polygon fill="none" stroke="black" points="831.5,-38.5 795.5,-38.5 795.5,-2.5 831.5,-2.5 831.5,-38.5"/>
</g>
<!-- N0_12 -->
<g id="node13" class="node">
<title>N0_12</title>
<polygon fill="none" stroke="black" points="904,-39 867,-39 867,-2 904,-2 904,-39"/>
<text text-anchor="middle" x="885.5" y="-16.8" font-family="Times,serif" font-size="14.00">SE</text>
</g>
<!-- N1_12 -->
<g id="node26" class="node">
<title>N1_12</title>
<polygon fill="none" stroke="black" points="903.5,-110.5 867.5,-110.5 867.5,-74.5 903.5,-74.5 903.5,-110.5"/>
</g>
<!-- N0_12&#45;&#45;N1_12 -->
<g id="edge29" class="edge">
<title>N0_12&#45;&#45;N1_12</title>
<path fill="none" stroke="black" stroke-width="5" d="M885.5,-39.04C885.5,-49.87 885.5,-63.49 885.5,-74.27"/>
</g>
<!-- N2_0 -->
<g id="node27" class="node">
<title>N2_0</title>
<polygon fill="none" stroke="black" points="39.5,-182.5 3.5,-182.5 3.5,-146.5 39.5,-146.5 39.5,-182.5"/>
</g>
<!-- N1_0&#45;&#45;N2_0 -->
<g id="edge28" class="edge">
<title>N1_0&#45;&#45;N2_0</title>
<path fill="none" stroke="black" stroke-width="5" d="M21.5,-110.67C21.5,-121.5 21.5,-135.21 21.5,-146.09"/>
</g>
<!-- N1_1 -->
<g id="node15" class="node">
<title>N1_1</title>
<polygon fill="none" stroke="black" points="111.5,-110.5 75.5,-110.5 75.5,-74.5 111.5,-74.5 111.5,-110.5"/>
</g>
<!-- N1_1&#45;&#45;N1_0 -->
<g id="edge25" class="edge">
<title>N1_1&#45;&#45;N1_0</title>
<path fill="none" stroke="black" stroke-width="5" d="M75.33,-92.5C64.5,-92.5 50.79,-92.5 39.91,-92.5"/>
</g>
<!-- N2_1 -->
<g id="node28" class="node">
<title>N2_1</title>
<polygon fill="none" stroke="black" points="111.5,-182.5 75.5,-182.5 75.5,-146.5 111.5,-146.5 111.5,-182.5"/>
</g>
<!-- N1_1&#45;&#45;N2_1 -->
<g id="edge41" class="edge">
<title>N1_1&#45;&#45;N2_1</title>
<path fill="none" stroke="black" stroke-width="5" d="M93.5,-110.67C93.5,-121.5 93.5,-135.21 93.5,-146.09"/>
</g>
<!-- N1_2 -->
<g id="node16" class="node">
<title>N1_2</title>
<polygon fill="none" stroke="black" points="183.5,-110.5 147.5,-110.5 147.5,-74.5 183.5,-74.5 183.5,-110.5"/>
</g>
<!-- N1_2&#45;&#45;N0_2 -->
<g id="edge33" class="edge">
<title>N1_2&#45;&#45;N0_2</title>
<path fill="none" stroke="black" stroke-width="5" d="M165.5,-74.33C165.5,-63.5 165.5,-49.79 165.5,-38.91"/>
</g>
<!-- N1_2&#45;&#45;N1_1 -->
<g id="edge24" class="edge">
<title>N1_2&#45;&#45;N1_1</title>
<path fill="none" stroke="black" stroke-width="5" d="M147.33,-92.5C136.5,-92.5 122.79,-92.5 111.91,-92.5"/>
</g>
<!-- N1_3 -->
<g id="node17" class="node">
<title>N1_3</title>
<polygon fill="none" stroke="black" points="255.5,-110.5 219.5,-110.5 219.5,-74.5 255.5,-74.5 255.5,-110.5"/>
</g>
<!-- N1_3&#45;&#45;N1_2 -->
<g id="edge23" class="edge">
<title>N1_3&#45;&#45;N1_2</title>
<path fill="none" stroke="black" stroke-width="5" d="M219.33,-92.5C208.5,-92.5 194.79,-92.5 183.91,-92.5"/>
</g>
<!-- N2_3 -->
<g id="node30" class="node">
<title>N2_3</title>
<polygon fill="none" stroke="black" points="255.5,-182.5 219.5,-182.5 219.5,-146.5 255.5,-146.5 255.5,-182.5"/>
</g>
<!-- N1_3&#45;&#45;N2_3 -->
<g id="edge22" class="edge">
<title>N1_3&#45;&#45;N2_3</title>
<path fill="none" stroke="black" stroke-width="5" d="M237.5,-110.67C237.5,-121.5 237.5,-135.21 237.5,-146.09"/>
</g>
<!-- N1_5 -->
<g id="node19" class="node">
<title>N1_5</title>
<polygon fill="none" stroke="black" points="399.5,-110.5 363.5,-110.5 363.5,-74.5 399.5,-74.5 399.5,-110.5"/>
</g>
<!-- N1_5&#45;&#45;N1_4 -->
<g id="edge90" class="edge">
<title>N1_5&#45;&#45;N1_4</title>
<path fill="none" stroke="black" stroke-width="5" d="M363.33,-92.5C352.5,-92.5 338.79,-92.5 327.91,-92.5"/>
</g>
<!-- N1_6&#45;&#45;N1_5 -->
<g id="edge86" class="edge">
<title>N1_6&#45;&#45;N1_5</title>
<path fill="none" stroke="black" stroke-width="5" d="M435.33,-92.5C424.5,-92.5 410.79,-92.5 399.91,-92.5"/>
</g>
<!-- N1_7&#45;&#45;N1_6 -->
<g id="edge53" class="edge">
<title>N1_7&#45;&#45;N1_6</title>
<path fill="none" stroke="black" stroke-width="5" d="M507.33,-92.5C496.5,-92.5 482.79,-92.5 471.91,-92.5"/>
</g>
<!-- N1_8 -->
<g id="node22" class="node">
<title>N1_8</title>
<polygon fill="none" stroke="black" points="615.5,-110.5 579.5,-110.5 579.5,-74.5 615.5,-74.5 615.5,-110.5"/>
</g>
<!-- N1_8&#45;&#45;N1_7 -->
<g id="edge56" class="edge">
<title>N1_8&#45;&#45;N1_7</title>
<path fill="none" stroke="black" stroke-width="5" d="M579.33,-92.5C568.5,-92.5 554.79,-92.5 543.91,-92.5"/>
</g>
<!-- N2_8 -->
<g id="node35" class="node">
<title>N2_8</title>
<polygon fill="none" stroke="black" points="615.5,-182.5 579.5,-182.5 579.5,-146.5 615.5,-146.5 615.5,-182.5"/>
</g>
<!-- N1_8&#45;&#45;N2_8 -->
<g id="edge57" class="edge">
<title>N1_8&#45;&#45;N2_8</title>
<path fill="none" stroke="black" stroke-width="5" d="M597.5,-110.67C597.5,-121.5 597.5,-135.21 597.5,-146.09"/>
</g>
<!-- N1_9 -->
<g id="node23" class="node">
<title>N1_9</title>
<polygon fill="none" stroke="black" points="687.5,-110.5 651.5,-110.5 651.5,-74.5 687.5,-74.5 687.5,-110.5"/>
</g>
<!-- N1_9&#45;&#45;N1_8 -->
<g id="edge8" class="edge">
<title>N1_9&#45;&#45;N1_8</title>
<path fill="none" stroke="black" stroke-width="5" d="M651.33,-92.5C640.5,-92.5 626.79,-92.5 615.91,-92.5"/>
</g>
<!-- N1_10 -->
<g id="node24" class="node">
<title>N1_10</title>
<polygon fill="none" stroke="black" points="759.5,-110.5 723.5,-110.5 723.5,-74.5 759.5,-74.5 759.5,-110.5"/>
</g>
<!-- N1_10&#45;&#45;N0_10 -->
<g id="edge37" class="edge">
<title>N1_10&#45;&#45;N0_10</title>
<path fill="none" stroke="black" stroke-width="5" d="M741.5,-74.33C741.5,-63.5 741.5,-49.79 741.5,-38.91"/>
</g>
<!-- N1_10&#45;&#45;N1_9 -->
<g id="edge9" class="edge">
<title>N1_10&#45;&#45;N1_9</title>
<path fill="none" stroke="black" stroke-width="5" d="M723.33,-92.5C712.5,-92.5 698.79,-92.5 687.91,-92.5"/>
</g>
<!-- N1_11 -->
<g id="node25" class="node">
<title>N1_11</title>
<polygon fill="none" stroke="black" points="831.5,-110.5 795.5,-110.5 795.5,-74.5 831.5,-74.5 831.5,-110.5"/>
</g>
<!-- N1_11&#45;&#45;N0_11 -->
<g id="edge89" class="edge">
<title>N1_11&#45;&#45;N0_11</title>
<path fill="none" stroke="black" stroke-width="5" d="M813.5,-74.33C813.5,-63.5 813.5,-49.79 813.5,-38.91"/>
</g>
<!-- N1_11&#45;&#45;N1_12 -->
<g id="edge88" class="edge">
<title>N1_11&#45;&#45;N1_12</title>
<path fill="none" stroke="black" stroke-width="5" d="M831.67,-92.5C842.5,-92.5 856.21,-92.5 867.09,-92.5"/>
</g>
<!-- N2_2 -->
<g id="node29" class="node">
<title>N2_2</title>
<polygon fill="none" stroke="black" points="183.5,-182.5 147.5,-182.5 147.5,-146.5 183.5,-146.5 183.5,-182.5"/>
</g>
<!-- N2_2&#45;&#45;N2_1 -->
<g id="edge42" class="edge">
<title>N2_2&#45;&#45;N2_1</title>
<path fill="none" stroke="black" stroke-width="5" d="M147.33,-164.5C136.5,-164.5 122.79,-164.5 111.91,-164.5"/>
</g>
<!-- N3_3 -->
<g id="node43" class="node">
<title>N3_3</title>
<polygon fill="none" stroke="black" points="255.5,-254.5 219.5,-254.5 219.5,-218.5 255.5,-218.5 255.5,-254.5"/>
</g>
<!-- N2_3&#45;&#45;N3_3 -->
<g id="edge21" class="edge">
<title>N2_3&#45;&#45;N3_3</title>
<path fill="none" stroke="black" stroke-width="5" d="M237.5,-182.67C237.5,-193.5 237.5,-207.21 237.5,-218.09"/>
</g>
<!-- N2_4 -->
<g id="node31" class="node">
<title>N2_4</title>
<polygon fill="none" stroke="black" points="327.5,-182.5 291.5,-182.5 291.5,-146.5 327.5,-146.5 327.5,-182.5"/>
</g>
<!-- N2_4&#45;&#45;N1_4 -->
<g id="edge91" class="edge">
<title>N2_4&#45;&#45;N1_4</title>
<path fill="none" stroke="black" stroke-width="5" d="M309.5,-146.33C309.5,-135.5 309.5,-121.79 309.5,-110.91"/>
</g>
<!-- N3_4 -->
<g id="node44" class="node">
<title>N3_4</title>
<polygon fill="none" stroke="black" points="327.5,-254.5 291.5,-254.5 291.5,-218.5 327.5,-218.5 327.5,-254.5"/>
</g>
<!-- N2_4&#45;&#45;N3_4 -->
<g id="edge100" class="edge">
<title>N2_4&#45;&#45;N3_4</title>
<path fill="none" stroke="black" stroke-width="5" d="M309.5,-182.67C309.5,-193.5 309.5,-207.21 309.5,-218.09"/>
</g>
<!-- N2_5 -->
<g id="node32" class="node">
<title>N2_5</title>
<polygon fill="none" stroke="black" points="399.5,-182.5 363.5,-182.5 363.5,-146.5 399.5,-146.5 399.5,-182.5"/>
</g>
<!-- N2_5&#45;&#45;N2_4 -->
<g id="edge92" class="edge">
<title>N2_5&#45;&#45;N2_4</title>
<path fill="none" stroke="black" stroke-width="5" d="M363.33,-164.5C352.5,-164.5 338.79,-164.5 327.91,-164.5"/>
</g>
<!-- N3_5 -->
<g id="node45" class="node">
<title>N3_5</title>
<polygon fill="none" stroke="black" points="399.5,-254.5 363.5,-254.5 363.5,-218.5 399.5,-218.5 399.5,-254.5"/>
</g>
<!-- N2_5&#45;&#45;N3_5 -->
<g id="edge93" class="edge">
<title>N2_5&#45;&#45;N3_5</title>
<path fill="none" stroke="black" stroke-width="5" d="M381.5,-182.67C381.5,-193.5 381.5,-207.21 381.5,-218.09"/>
</g>
<!-- N2_6 -->
<g id="node33" class="node">
<title>N2_6</title>
<polygon fill="none" stroke="black" points="471.5,-182.5 435.5,-182.5 435.5,-146.5 471.5,-146.5 471.5,-182.5"/>
</g>
<!-- N2_6&#45;&#45;N2_5 -->
<g id="edge34" class="edge">
<title>N2_6&#45;&#45;N2_5</title>
<path fill="none" stroke="black" stroke-width="5" d="M435.33,-164.5C424.5,-164.5 410.79,-164.5 399.91,-164.5"/>
</g>
<!-- N2_7 -->
<g id="node34" class="node">
<title>N2_7</title>
<polygon fill="none" stroke="black" points="543.5,-182.5 507.5,-182.5 507.5,-146.5 543.5,-146.5 543.5,-182.5"/>
</g>
<!-- N2_6&#45;&#45;N2_7 -->
<g id="edge35" class="edge">
<title>N2_6&#45;&#45;N2_7</title>
<path fill="none" stroke="black" stroke-width="5" d="M471.67,-164.5C482.5,-164.5 496.21,-164.5 507.09,-164.5"/>
</g>
<!-- N2_9 -->
<g id="node36" class="node">
<title>N2_9</title>
<polygon fill="none" stroke="black" points="687.5,-182.5 651.5,-182.5 651.5,-146.5 687.5,-146.5 687.5,-182.5"/>
</g>
<!-- N2_10 -->
<g id="node37" class="node">
<title>N2_10</title>
<polygon fill="none" stroke="black" points="759.5,-182.5 723.5,-182.5 723.5,-146.5 759.5,-146.5 759.5,-182.5"/>
</g>
<!-- N3_10 -->
<g id="node50" class="node">
<title>N3_10</title>
<polygon fill="none" stroke="black" points="759.5,-254.5 723.5,-254.5 723.5,-218.5 759.5,-218.5 759.5,-254.5"/>
</g>
<!-- N2_10&#45;&#45;N3_10 -->
<g id="edge27" class="edge">
<title>N2_10&#45;&#45;N3_10</title>
<path fill="none" stroke="black" stroke-width="5" d="M741.5,-182.67C741.5,-193.5 741.5,-207.21 741.5,-218.09"/>
</g>
<!-- N2_11 -->
<g id="node38" class="node">
<title>N2_11</title>
<polygon fill="none" stroke="black" points="831.5,-182.5 795.5,-182.5 795.5,-146.5 831.5,-146.5 831.5,-182.5"/>
</g>
<!-- N3_11 -->
<g id="node51" class="node">
<title>N3_11</title>
<polygon fill="none" stroke="black" points="831.5,-254.5 795.5,-254.5 795.5,-218.5 831.5,-218.5 831.5,-254.5"/>
</g>
<!-- N2_11&#45;&#45;N3_11 -->
<g id="edge62" class="edge">
<title>N2_11&#45;&#45;N3_11</title>
<path fill="none" stroke="black" stroke-width="5" d="M813.5,-182.67C813.5,-193.5 813.5,-207.21 813.5,-218.09"/>
</g>
<!-- N2_12 -->
<g id="node39" class="node">
<title>N2_12</title>
<polygon fill="none" stroke="black" points="903.5,-182.5 867.5,-182.5 867.5,-146.5 903.5,-146.5 903.5,-182.5"/>
</g>
<!-- N2_12&#45;&#45;N1_12 -->
<g id="edge87" class="edge">
<title>N2_12&#45;&#45;N1_12</title>
<path fill="none" stroke="black" stroke-width="5" d="M885.5,-146.33C885.5,-135.5 885.5,-121.79 885.5,-110.91"/>
</g>
<!-- N2_12&#45;&#45;N2_11 -->
<g id="edge63" class="edge">
<title>N2_12&#45;&#45;N2_11</title>
<path fill="none" stroke="black" stroke-width="5" d="M867.33,-164.5C856.5,-164.5 842.79,-164.5 831.91,-164.5"/>
</g>
<!-- N3_12 -->
<g id="node52" class="node">
<title>N3_12</title>
<polygon fill="none" stroke="black" points="903.5,-254.5 867.5,-254.5 867.5,-218.5 903.5,-218.5 903.5,-254.5"/>
</g>
<!-- N2_12&#45;&#45;N3_12 -->
<g id="edge64" class="edge">
<title>N2_12&#45;&#45;N3_12</title>
<path fill="none" stroke="black" stroke-width="5" d="M885.5,-182.67C885.5,-193.5 885.5,-207.21 885.5,-218.09"/>
</g>
<!-- N3_0 -->
<g id="node40" class="node">
<title>N3_0</title>
<polygon fill="none" stroke="black" points="39.5,-254.5 3.5,-254.5 3.5,-218.5 39.5,-218.5 39.5,-254.5"/>
</g>
<!-- N3_1 -->
<g id="node41" class="node">
<title>N3_1</title>
<polygon fill="none" stroke="black" points="111.5,-254.5 75.5,-254.5 75.5,-218.5 111.5,-218.5 111.5,-254.5"/>
</g>
<!-- N3_1&#45;&#45;N3_0 -->
<g id="edge36" class="edge">
<title>N3_1&#45;&#45;N3_0</title>
<path fill="none" stroke="black" stroke-width="5" d="M75.33,-236.5C64.5,-236.5 50.79,-236.5 39.91,-236.5"/>
</g>
<!-- N4_1 -->
<g id="node54" class="node">
<title>N4_1</title>
<polygon fill="none" stroke="black" points="111.5,-326.5 75.5,-326.5 75.5,-290.5 111.5,-290.5 111.5,-326.5"/>
</g>
<!-- N3_1&#45;&#45;N4_1 -->
<g id="edge11" class="edge">
<title>N3_1&#45;&#45;N4_1</title>
<path fill="none" stroke="black" stroke-width="5" d="M93.5,-254.67C93.5,-265.5 93.5,-279.21 93.5,-290.09"/>
</g>
<!-- N3_2 -->
<g id="node42" class="node">
<title>N3_2</title>
<polygon fill="none" stroke="black" points="183.5,-254.5 147.5,-254.5 147.5,-218.5 183.5,-218.5 183.5,-254.5"/>
</g>
<!-- N3_3&#45;&#45;N3_2 -->
<g id="edge20" class="edge">
<title>N3_3&#45;&#45;N3_2</title>
<path fill="none" stroke="black" stroke-width="5" d="M219.33,-236.5C208.5,-236.5 194.79,-236.5 183.91,-236.5"/>
</g>
<!-- N4_5 -->
<g id="node58" class="node">
<title>N4_5</title>
<polygon fill="none" stroke="black" points="399.5,-326.5 363.5,-326.5 363.5,-290.5 399.5,-290.5 399.5,-326.5"/>
</g>
<!-- N3_5&#45;&#45;N4_5 -->
<g id="edge94" class="edge">
<title>N3_5&#45;&#45;N4_5</title>
<path fill="none" stroke="black" stroke-width="5" d="M381.5,-254.67C381.5,-265.5 381.5,-279.21 381.5,-290.09"/>
</g>
<!-- N3_6 -->
<g id="node46" class="node">
<title>N3_6</title>
<polygon fill="none" stroke="black" points="471.5,-254.5 435.5,-254.5 435.5,-218.5 471.5,-218.5 471.5,-254.5"/>
</g>
<!-- N3_6&#45;&#45;N3_5 -->
<g id="edge4" class="edge">
<title>N3_6&#45;&#45;N3_5</title>
<path fill="none" stroke="black" stroke-width="5" d="M435.33,-236.5C424.5,-236.5 410.79,-236.5 399.91,-236.5"/>
</g>
<!-- N4_6 -->
<g id="node59" class="node">
<title>N4_6</title>
<polygon fill="none" stroke="black" points="471.5,-326.5 435.5,-326.5 435.5,-290.5 471.5,-290.5 471.5,-326.5"/>
</g>
<!-- N3_6&#45;&#45;N4_6 -->
<g id="edge5" class="edge">
<title>N3_6&#45;&#45;N4_6</title>
<path fill="none" stroke="black" stroke-width="5" d="M453.5,-254.67C453.5,-265.5 453.5,-279.21 453.5,-290.09"/>
</g>
<!-- N3_7 -->
<g id="node47" class="node">
<title>N3_7</title>
<polygon fill="none" stroke="black" points="543.5,-254.5 507.5,-254.5 507.5,-218.5 543.5,-218.5 543.5,-254.5"/>
</g>
<!-- N3_7&#45;&#45;N3_6 -->
<g id="edge45" class="edge">
<title>N3_7&#45;&#45;N3_6</title>
<path fill="none" stroke="black" stroke-width="5" d="M507.33,-236.5C496.5,-236.5 482.79,-236.5 471.91,-236.5"/>
</g>
<!-- N3_8 -->
<g id="node48" class="node">
<title>N3_8</title>
<polygon fill="none" stroke="black" points="615.5,-254.5 579.5,-254.5 579.5,-218.5 615.5,-218.5 615.5,-254.5"/>
</g>
<!-- N3_8&#45;&#45;N2_8 -->
<g id="edge58" class="edge">
<title>N3_8&#45;&#45;N2_8</title>
<path fill="none" stroke="black" stroke-width="5" d="M597.5,-218.33C597.5,-207.5 597.5,-193.79 597.5,-182.91"/>
</g>
<!-- N3_9 -->
<g id="node49" class="node">
<title>N3_9</title>
<polygon fill="none" stroke="black" points="687.5,-254.5 651.5,-254.5 651.5,-218.5 687.5,-218.5 687.5,-254.5"/>
</g>
<!-- N3_9&#45;&#45;N2_9 -->
<g id="edge50" class="edge">
<title>N3_9&#45;&#45;N2_9</title>
<path fill="none" stroke="black" stroke-width="5" d="M669.5,-218.33C669.5,-207.5 669.5,-193.79 669.5,-182.91"/>
</g>
<!-- N3_9&#45;&#45;N3_8 -->
<g id="edge59" class="edge">
<title>N3_9&#45;&#45;N3_8</title>
<path fill="none" stroke="black" stroke-width="5" d="M651.33,-236.5C640.5,-236.5 626.79,-236.5 615.91,-236.5"/>
</g>
<!-- N3_9&#45;&#45;N3_10 -->
<g id="edge60" class="edge">
<title>N3_9&#45;&#45;N3_10</title>
<path fill="none" stroke="black" stroke-width="5" d="M687.67,-236.5C698.5,-236.5 712.21,-236.5 723.09,-236.5"/>
</g>
<!-- N3_11&#45;&#45;N3_10 -->
<g id="edge61" class="edge">
<title>N3_11&#45;&#45;N3_10</title>
<path fill="none" stroke="black" stroke-width="5" d="M795.33,-236.5C784.5,-236.5 770.79,-236.5 759.91,-236.5"/>
</g>
<!-- N4_0 -->
<g id="node53" class="node">
<title>N4_0</title>
<polygon fill="none" stroke="black" points="39.5,-326.5 3.5,-326.5 3.5,-290.5 39.5,-290.5 39.5,-326.5"/>
</g>
<!-- N4_1&#45;&#45;N4_0 -->
<g id="edge46" class="edge">
<title>N4_1&#45;&#45;N4_0</title>
<path fill="none" stroke="black" stroke-width="5" d="M75.33,-308.5C64.5,-308.5 50.79,-308.5 39.91,-308.5"/>
</g>
<!-- N5_1 -->
<g id="node67" class="node">
<title>N5_1</title>
<polygon fill="none" stroke="black" points="111.5,-398.5 75.5,-398.5 75.5,-362.5 111.5,-362.5 111.5,-398.5"/>
</g>
<!-- N4_1&#45;&#45;N5_1 -->
<g id="edge10" class="edge">
<title>N4_1&#45;&#45;N5_1</title>
<path fill="none" stroke="black" stroke-width="5" d="M93.5,-326.67C93.5,-337.5 93.5,-351.21 93.5,-362.09"/>
</g>
<!-- N4_2 -->
<g id="node55" class="node">
<title>N4_2</title>
<polygon fill="none" stroke="black" points="183.5,-326.5 147.5,-326.5 147.5,-290.5 183.5,-290.5 183.5,-326.5"/>
</g>
<!-- N4_2&#45;&#45;N3_2 -->
<g id="edge17" class="edge">
<title>N4_2&#45;&#45;N3_2</title>
<path fill="none" stroke="black" stroke-width="5" d="M165.5,-290.33C165.5,-279.5 165.5,-265.79 165.5,-254.91"/>
</g>
<!-- N4_2&#45;&#45;N4_1 -->
<g id="edge16" class="edge">
<title>N4_2&#45;&#45;N4_1</title>
<path fill="none" stroke="black" stroke-width="5" d="M147.33,-308.5C136.5,-308.5 122.79,-308.5 111.91,-308.5"/>
</g>
<!-- N4_3 -->
<g id="node56" class="node">
<title>N4_3</title>
<polygon fill="none" stroke="black" points="255.5,-326.5 219.5,-326.5 219.5,-290.5 255.5,-290.5 255.5,-326.5"/>
</g>
<!-- N4_4 -->
<g id="node57" class="node">
<title>N4_4</title>
<polygon fill="none" stroke="black" points="327.5,-326.5 291.5,-326.5 291.5,-290.5 327.5,-290.5 327.5,-326.5"/>
</g>
<!-- N4_4&#45;&#45;N3_4 -->
<g id="edge18" class="edge">
<title>N4_4&#45;&#45;N3_4</title>
<path fill="none" stroke="black" stroke-width="5" d="M309.5,-290.33C309.5,-279.5 309.5,-265.79 309.5,-254.91"/>
</g>
<!-- N4_4&#45;&#45;N4_3 -->
<g id="edge19" class="edge">
<title>N4_4&#45;&#45;N4_3</title>
<path fill="none" stroke="black" stroke-width="5" d="M291.33,-308.5C280.5,-308.5 266.79,-308.5 255.91,-308.5"/>
</g>
<!-- N5_4 -->
<g id="node70" class="node">
<title>N5_4</title>
<polygon fill="none" stroke="black" points="327.5,-398.5 291.5,-398.5 291.5,-362.5 327.5,-362.5 327.5,-398.5"/>
</g>
<!-- N4_4&#45;&#45;N5_4 -->
<g id="edge39" class="edge">
<title>N4_4&#45;&#45;N5_4</title>
<path fill="none" stroke="black" stroke-width="5" d="M309.5,-326.67C309.5,-337.5 309.5,-351.21 309.5,-362.09"/>
</g>
<!-- N4_7 -->
<g id="node60" class="node">
<title>N4_7</title>
<polygon fill="none" stroke="black" points="543.5,-326.5 507.5,-326.5 507.5,-290.5 543.5,-290.5 543.5,-326.5"/>
</g>
<!-- N4_7&#45;&#45;N4_6 -->
<g id="edge6" class="edge">
<title>N4_7&#45;&#45;N4_6</title>
<path fill="none" stroke="black" stroke-width="5" d="M507.33,-308.5C496.5,-308.5 482.79,-308.5 471.91,-308.5"/>
</g>
<!-- N4_8 -->
<g id="node61" class="node">
<title>N4_8</title>
<polygon fill="none" stroke="black" points="615.5,-326.5 579.5,-326.5 579.5,-290.5 615.5,-290.5 615.5,-326.5"/>
</g>
<!-- N5_8 -->
<g id="node74" class="node">
<title>N5_8</title>
<polygon fill="none" stroke="black" points="615.5,-398.5 579.5,-398.5 579.5,-362.5 615.5,-362.5 615.5,-398.5"/>
</g>
<!-- N4_8&#45;&#45;N5_8 -->
<g id="edge1" class="edge">
<title>N4_8&#45;&#45;N5_8</title>
<path fill="none" stroke="black" stroke-width="5" d="M597.5,-326.67C597.5,-337.5 597.5,-351.21 597.5,-362.09"/>
</g>
<!-- N4_9 -->
<g id="node62" class="node">
<title>N4_9</title>
<polygon fill="none" stroke="black" points="687.5,-326.5 651.5,-326.5 651.5,-290.5 687.5,-290.5 687.5,-326.5"/>
</g>
<!-- N4_9&#45;&#45;N4_8 -->
<g id="edge2" class="edge">
<title>N4_9&#45;&#45;N4_8</title>
<path fill="none" stroke="black" stroke-width="5" d="M651.33,-308.5C640.5,-308.5 626.79,-308.5 615.91,-308.5"/>
</g>
<!-- N4_10 -->
<g id="node63" class="node">
<title>N4_10</title>
<polygon fill="none" stroke="black" points="759.5,-326.5 723.5,-326.5 723.5,-290.5 759.5,-290.5 759.5,-326.5"/>
</g>
<!-- N4_11 -->
<g id="node64" class="node">
<title>N4_11</title>
<polygon fill="none" stroke="black" points="831.5,-326.5 795.5,-326.5 795.5,-290.5 831.5,-290.5 831.5,-326.5"/>
</g>
<!-- N4_11&#45;&#45;N4_10 -->
<g id="edge15" class="edge">
<title>N4_11&#45;&#45;N4_10</title>
<path fill="none" stroke="black" stroke-width="5" d="M795.33,-308.5C784.5,-308.5 770.79,-308.5 759.91,-308.5"/>
</g>
<!-- N4_12 -->
<g id="node65" class="node">
<title>N4_12</title>
<polygon fill="none" stroke="black" points="903.5,-326.5 867.5,-326.5 867.5,-290.5 903.5,-290.5 903.5,-326.5"/>
</g>
<!-- N4_12&#45;&#45;N3_12 -->
<g id="edge65" class="edge">
<title>N4_12&#45;&#45;N3_12</title>
<path fill="none" stroke="black" stroke-width="5" d="M885.5,-290.33C885.5,-279.5 885.5,-265.79 885.5,-254.91"/>
</g>
<!-- N4_12&#45;&#45;N4_11 -->
<g id="edge14" class="edge">
<title>N4_12&#45;&#45;N4_11</title>
<path fill="none" stroke="black" stroke-width="5" d="M867.33,-308.5C856.5,-308.5 842.79,-308.5 831.91,-308.5"/>
</g>
<!-- N5_12 -->
<g id="node78" class="node">
<title>N5_12</title>
<polygon fill="none" stroke="black" points="903.5,-398.5 867.5,-398.5 867.5,-362.5 903.5,-362.5 903.5,-398.5"/>
</g>
<!-- N4_12&#45;&#45;N5_12 -->
<g id="edge66" class="edge">
<title>N4_12&#45;&#45;N5_12</title>
<path fill="none" stroke="black" stroke-width="5" d="M885.5,-326.67C885.5,-337.5 885.5,-351.21 885.5,-362.09"/>
</g>
<!-- N5_0 -->
<g id="node66" class="node">
<title>N5_0</title>
<polygon fill="none" stroke="black" points="39.5,-398.5 3.5,-398.5 3.5,-362.5 39.5,-362.5 39.5,-398.5"/>
</g>
<!-- N5_1&#45;&#45;N5_0 -->
<g id="edge84" class="edge">
<title>N5_1&#45;&#45;N5_0</title>
<path fill="none" stroke="black" stroke-width="5" d="M75.33,-380.5C64.5,-380.5 50.79,-380.5 39.91,-380.5"/>
</g>
<!-- N5_2 -->
<g id="node68" class="node">
<title>N5_2</title>
<polygon fill="none" stroke="black" points="183.5,-398.5 147.5,-398.5 147.5,-362.5 183.5,-362.5 183.5,-398.5"/>
</g>
<!-- N5_3 -->
<g id="node69" class="node">
<title>N5_3</title>
<polygon fill="none" stroke="black" points="255.5,-398.5 219.5,-398.5 219.5,-362.5 255.5,-362.5 255.5,-398.5"/>
</g>
<!-- N5_4&#45;&#45;N5_3 -->
<g id="edge40" class="edge">
<title>N5_4&#45;&#45;N5_3</title>
<path fill="none" stroke="black" stroke-width="5" d="M291.33,-380.5C280.5,-380.5 266.79,-380.5 255.91,-380.5"/>
</g>
<!-- N5_5 -->
<g id="node71" class="node">
<title>N5_5</title>
<polygon fill="none" stroke="black" points="399.5,-398.5 363.5,-398.5 363.5,-362.5 399.5,-362.5 399.5,-398.5"/>
</g>
<!-- N5_5&#45;&#45;N4_5 -->
<g id="edge95" class="edge">
<title>N5_5&#45;&#45;N4_5</title>
<path fill="none" stroke="black" stroke-width="5" d="M381.5,-362.33C381.5,-351.5 381.5,-337.79 381.5,-326.91"/>
</g>
<!-- N5_6 -->
<g id="node72" class="node">
<title>N5_6</title>
<polygon fill="none" stroke="black" points="471.5,-398.5 435.5,-398.5 435.5,-362.5 471.5,-362.5 471.5,-398.5"/>
</g>
<!-- N5_6&#45;&#45;N5_5 -->
<g id="edge96" class="edge">
<title>N5_6&#45;&#45;N5_5</title>
<path fill="none" stroke="black" stroke-width="5" d="M435.33,-380.5C424.5,-380.5 410.79,-380.5 399.91,-380.5"/>
</g>
<!-- N5_7 -->
<g id="node73" class="node">
<title>N5_7</title>
<polygon fill="none" stroke="black" points="543.5,-398.5 507.5,-398.5 507.5,-362.5 543.5,-362.5 543.5,-398.5"/>
</g>
<!-- N5_7&#45;&#45;N4_7 -->
<g id="edge7" class="edge">
<title>N5_7&#45;&#45;N4_7</title>
<path fill="none" stroke="black" stroke-width="5" d="M525.5,-362.33C525.5,-351.5 525.5,-337.79 525.5,-326.91"/>
</g>
<!-- N5_9 -->
<g id="node75" class="node">
<title>N5_9</title>
<polygon fill="none" stroke="black" points="687.5,-398.5 651.5,-398.5 651.5,-362.5 687.5,-362.5 687.5,-398.5"/>
</g>
<!-- N5_9&#45;&#45;N5_8 -->
<g id="edge103" class="edge">
<title>N5_9&#45;&#45;N5_8</title>
<path fill="none" stroke="black" stroke-width="5" d="M651.33,-380.5C640.5,-380.5 626.79,-380.5 615.91,-380.5"/>
</g>
<!-- N5_10 -->
<g id="node76" class="node">
<title>N5_10</title>
<polygon fill="none" stroke="black" points="759.5,-398.5 723.5,-398.5 723.5,-362.5 759.5,-362.5 759.5,-398.5"/>
</g>
<!-- N5_11 -->
<g id="node77" class="node">
<title>N5_11</title>
<polygon fill="none" stroke="black" points="831.5,-398.5 795.5,-398.5 795.5,-362.5 831.5,-362.5 831.5,-398.5"/>
</g>
<!-- N5_11&#45;&#45;N5_10 -->
<g id="edge30" class="edge">
<title>N5_11&#45;&#45;N5_10</title>
<path fill="none" stroke="black" stroke-width="5" d="M795.33,-380.5C784.5,-380.5 770.79,-380.5 759.91,-380.5"/>
</g>
<!-- N6_11 -->
<g id="node90" class="node">
<title>N6_11</title>
<polygon fill="none" stroke="black" points="831.5,-470.5 795.5,-470.5 795.5,-434.5 831.5,-434.5 831.5,-470.5"/>
</g>
<!-- N5_11&#45;&#45;N6_11 -->
<g id="edge98" class="edge">
<title>N5_11&#45;&#45;N6_11</title>
<path fill="none" stroke="black" stroke-width="5" d="M813.5,-398.67C813.5,-409.5 813.5,-423.21 813.5,-434.09"/>
</g>
<!-- N5_12&#45;&#45;N5_11 -->
<g id="edge97" class="edge">
<title>N5_12&#45;&#45;N5_11</title>
<path fill="none" stroke="black" stroke-width="5" d="M867.33,-380.5C856.5,-380.5 842.79,-380.5 831.91,-380.5"/>
</g>
<!-- N6_12 -->
<g id="node91" class="node">
<title>N6_12</title>
<polygon fill="none" stroke="black" points="903.5,-470.5 867.5,-470.5 867.5,-434.5 903.5,-434.5 903.5,-470.5"/>
</g>
<!-- N5_12&#45;&#45;N6_12 -->
<g id="edge67" class="edge">
<title>N5_12&#45;&#45;N6_12</title>
<path fill="none" stroke="black" stroke-width="5" d="M885.5,-398.67C885.5,-409.5 885.5,-423.21 885.5,-434.09"/>
</g>
<!-- N6_0 -->
<g id="node79" class="node">
<title>N6_0</title>
<polygon fill="none" stroke="black" points="39.5,-470.5 3.5,-470.5 3.5,-434.5 39.5,-434.5 39.5,-470.5"/>
</g>
<!-- N6_0&#45;&#45;N5_0 -->
<g id="edge85" class="edge">
<title>N6_0&#45;&#45;N5_0</title>
<path fill="none" stroke="black" stroke-width="5" d="M21.5,-434.33C21.5,-423.5 21.5,-409.79 21.5,-398.91"/>
</g>
<!-- N6_1 -->
<g id="node80" class="node">
<title>N6_1</title>
<polygon fill="none" stroke="black" points="111.5,-470.5 75.5,-470.5 75.5,-434.5 111.5,-434.5 111.5,-470.5"/>
</g>
<!-- N6_1&#45;&#45;N5_1 -->
<g id="edge83" class="edge">
<title>N6_1&#45;&#45;N5_1</title>
<path fill="none" stroke="black" stroke-width="5" d="M93.5,-434.33C93.5,-423.5 93.5,-409.79 93.5,-398.91"/>
</g>
<!-- N6_2 -->
<g id="node81" class="node">
<title>N6_2</title>
<polygon fill="none" stroke="black" points="183.5,-470.5 147.5,-470.5 147.5,-434.5 183.5,-434.5 183.5,-470.5"/>
</g>
<!-- N6_2&#45;&#45;N5_2 -->
<g id="edge51" class="edge">
<title>N6_2&#45;&#45;N5_2</title>
<path fill="none" stroke="black" stroke-width="5" d="M165.5,-434.33C165.5,-423.5 165.5,-409.79 165.5,-398.91"/>
</g>
<!-- N6_2&#45;&#45;N6_1 -->
<g id="edge82" class="edge">
<title>N6_2&#45;&#45;N6_1</title>
<path fill="none" stroke="black" stroke-width="5" d="M147.33,-452.5C136.5,-452.5 122.79,-452.5 111.91,-452.5"/>
</g>
<!-- N7_2 -->
<g id="node94" class="node">
<title>N7_2</title>
<polygon fill="none" stroke="black" points="183.5,-542.5 147.5,-542.5 147.5,-506.5 183.5,-506.5 183.5,-542.5"/>
</g>
<!-- N6_2&#45;&#45;N7_2 -->
<g id="edge81" class="edge">
<title>N6_2&#45;&#45;N7_2</title>
<path fill="none" stroke="black" stroke-width="5" d="M165.5,-470.67C165.5,-481.5 165.5,-495.21 165.5,-506.09"/>
</g>
<!-- N6_3 -->
<g id="node82" class="node">
<title>N6_3</title>
<polygon fill="none" stroke="black" points="255.5,-470.5 219.5,-470.5 219.5,-434.5 255.5,-434.5 255.5,-470.5"/>
</g>
<!-- N6_4 -->
<g id="node83" class="node">
<title>N6_4</title>
<polygon fill="none" stroke="black" points="327.5,-470.5 291.5,-470.5 291.5,-434.5 327.5,-434.5 327.5,-470.5"/>
</g>
<!-- N6_4&#45;&#45;N6_3 -->
<g id="edge78" class="edge">
<title>N6_4&#45;&#45;N6_3</title>
<path fill="none" stroke="black" stroke-width="5" d="M291.33,-452.5C280.5,-452.5 266.79,-452.5 255.91,-452.5"/>
</g>
<!-- N6_5 -->
<g id="node84" class="node">
<title>N6_5</title>
<polygon fill="none" stroke="black" points="399.5,-470.5 363.5,-470.5 363.5,-434.5 399.5,-434.5 399.5,-470.5"/>
</g>
<!-- N6_5&#45;&#45;N6_4 -->
<g id="edge77" class="edge">
<title>N6_5&#45;&#45;N6_4</title>
<path fill="none" stroke="black" stroke-width="5" d="M363.33,-452.5C352.5,-452.5 338.79,-452.5 327.91,-452.5"/>
</g>
<!-- N6_6 -->
<g id="node85" class="node">
<title>N6_6</title>
<polygon fill="none" stroke="black" points="471.5,-470.5 435.5,-470.5 435.5,-434.5 471.5,-434.5 471.5,-470.5"/>
</g>
<!-- N6_7 -->
<g id="node86" class="node">
<title>N6_7</title>
<polygon fill="none" stroke="black" points="543.5,-470.5 507.5,-470.5 507.5,-434.5 543.5,-434.5 543.5,-470.5"/>
</g>
<!-- N6_7&#45;&#45;N6_6 -->
<g id="edge44" class="edge">
<title>N6_7&#45;&#45;N6_6</title>
<path fill="none" stroke="black" stroke-width="5" d="M507.33,-452.5C496.5,-452.5 482.79,-452.5 471.91,-452.5"/>
</g>
<!-- N6_8 -->
<g id="node87" class="node">
<title>N6_8</title>
<polygon fill="none" stroke="black" points="615.5,-470.5 579.5,-470.5 579.5,-434.5 615.5,-434.5 615.5,-470.5"/>
</g>
<!-- N6_8&#45;&#45;N6_7 -->
<g id="edge13" class="edge">
<title>N6_8&#45;&#45;N6_7</title>
<path fill="none" stroke="black" stroke-width="5" d="M579.33,-452.5C568.5,-452.5 554.79,-452.5 543.91,-452.5"/>
</g>
<!-- N6_9 -->
<g id="node88" class="node">
<title>N6_9</title>
<polygon fill="none" stroke="black" points="687.5,-470.5 651.5,-470.5 651.5,-434.5 687.5,-434.5 687.5,-470.5"/>
</g>
<!-- N6_9&#45;&#45;N5_9 -->
<g id="edge102" class="edge">
<title>N6_9&#45;&#45;N5_9</title>
<path fill="none" stroke="black" stroke-width="5" d="M669.5,-434.33C669.5,-423.5 669.5,-409.79 669.5,-398.91"/>
</g>
<!-- N6_9&#45;&#45;N6_8 -->
<g id="edge12" class="edge">
<title>N6_9&#45;&#45;N6_8</title>
<path fill="none" stroke="black" stroke-width="5" d="M651.33,-452.5C640.5,-452.5 626.79,-452.5 615.91,-452.5"/>
</g>
<!-- N6_10 -->
<g id="node89" class="node">
<title>N6_10</title>
<polygon fill="none" stroke="black" points="759.5,-470.5 723.5,-470.5 723.5,-434.5 759.5,-434.5 759.5,-470.5"/>
</g>
<!-- N6_10&#45;&#45;N6_9 -->
<g id="edge101" class="edge">
<title>N6_10&#45;&#45;N6_9</title>
<path fill="none" stroke="black" stroke-width="5" d="M723.33,-452.5C712.5,-452.5 698.79,-452.5 687.91,-452.5"/>
</g>
<!-- N6_10&#45;&#45;N6_11 -->
<g id="edge99" class="edge">
<title>N6_10&#45;&#45;N6_11</title>
<path fill="none" stroke="black" stroke-width="5" d="M759.67,-452.5C770.5,-452.5 784.21,-452.5 795.09,-452.5"/>
</g>
<!-- N7_0 -->
<g id="node92" class="node">
<title>N7_0</title>
<polygon fill="none" stroke="black" points="43,-546 0,-546 0,-503 43,-503 43,-546"/>
<text text-anchor="middle" x="21.5" y="-520.8" font-family="Times,serif" font-size="14.00">NW</text>
</g>
<!-- N7_1 -->
<g id="node93" class="node">
<title>N7_1</title>
<polygon fill="none" stroke="black" points="111.5,-542.5 75.5,-542.5 75.5,-506.5 111.5,-506.5 111.5,-542.5"/>
</g>
<!-- N7_1&#45;&#45;N7_0 -->
<g id="edge49" class="edge">
<title>N7_1&#45;&#45;N7_0</title>
<path fill="none" stroke="black" stroke-width="5" d="M75.33,-524.5C65.58,-524.5 53.5,-524.5 43.25,-524.5"/>
</g>
<!-- N7_2&#45;&#45;N7_1 -->
<g id="edge48" class="edge">
<title>N7_2&#45;&#45;N7_1</title>
<path fill="none" stroke="black" stroke-width="5" d="M147.33,-524.5C136.5,-524.5 122.79,-524.5 111.91,-524.5"/>
</g>
<!-- N7_3 -->
<g id="node95" class="node">
<title>N7_3</title>
<polygon fill="none" stroke="black" points="255.5,-542.5 219.5,-542.5 219.5,-506.5 255.5,-506.5 255.5,-542.5"/>
</g>
<!-- N7_3&#45;&#45;N6_3 -->
<g id="edge79" class="edge">
<title>N7_3&#45;&#45;N6_3</title>
<path fill="none" stroke="black" stroke-width="5" d="M237.5,-506.33C237.5,-495.5 237.5,-481.79 237.5,-470.91"/>
</g>
<!-- N7_3&#45;&#45;N7_2 -->
<g id="edge80" class="edge">
<title>N7_3&#45;&#45;N7_2</title>
<path fill="none" stroke="black" stroke-width="5" d="M219.33,-524.5C208.5,-524.5 194.79,-524.5 183.91,-524.5"/>
</g>
<!-- N7_4 -->
<g id="node96" class="node">
<title>N7_4</title>
<polygon fill="none" stroke="black" points="327.5,-542.5 291.5,-542.5 291.5,-506.5 327.5,-506.5 327.5,-542.5"/>
</g>
<!-- N7_4&#45;&#45;N7_3 -->
<g id="edge3" class="edge">
<title>N7_4&#45;&#45;N7_3</title>
<path fill="none" stroke="black" stroke-width="5" d="M291.33,-524.5C280.5,-524.5 266.79,-524.5 255.91,-524.5"/>
</g>
<!-- N7_5 -->
<g id="node97" class="node">
<title>N7_5</title>
<polygon fill="none" stroke="black" points="399.5,-542.5 363.5,-542.5 363.5,-506.5 399.5,-506.5 399.5,-542.5"/>
</g>
<!-- N7_5&#45;&#45;N6_5 -->
<g id="edge76" class="edge">
<title>N7_5&#45;&#45;N6_5</title>
<path fill="none" stroke="black" stroke-width="5" d="M381.5,-506.33C381.5,-495.5 381.5,-481.79 381.5,-470.91"/>
</g>
<!-- N7_6 -->
<g id="node98" class="node">
<title>N7_6</title>
<polygon fill="none" stroke="black" points="471.5,-542.5 435.5,-542.5 435.5,-506.5 471.5,-506.5 471.5,-542.5"/>
</g>
<!-- N7_5&#45;&#45;N7_6 -->
<g id="edge75" class="edge">
<title>N7_5&#45;&#45;N7_6</title>
<path fill="none" stroke="black" stroke-width="5" d="M399.67,-524.5C410.5,-524.5 424.21,-524.5 435.09,-524.5"/>
</g>
<!-- N7_7 -->
<g id="node99" class="node">
<title>N7_7</title>
<polygon fill="none" stroke="black" points="543.5,-542.5 507.5,-542.5 507.5,-506.5 543.5,-506.5 543.5,-542.5"/>
</g>
<!-- N7_7&#45;&#45;N7_6 -->
<g id="edge74" class="edge">
<title>N7_7&#45;&#45;N7_6</title>
<path fill="none" stroke="black" stroke-width="5" d="M507.33,-524.5C496.5,-524.5 482.79,-524.5 471.91,-524.5"/>
</g>
<!-- N7_8 -->
<g id="node100" class="node">
<title>N7_8</title>
<polygon fill="none" stroke="black" points="615.5,-542.5 579.5,-542.5 579.5,-506.5 615.5,-506.5 615.5,-542.5"/>
</g>
<!-- N7_8&#45;&#45;N7_7 -->
<g id="edge73" class="edge">
<title>N7_8&#45;&#45;N7_7</title>
<path fill="none" stroke="black" stroke-width="5" d="M579.33,-524.5C568.5,-524.5 554.79,-524.5 543.91,-524.5"/>
</g>
<!-- N7_9 -->
<g id="node101" class="node">
<title>N7_9</title>
<polygon fill="none" stroke="black" points="687.5,-542.5 651.5,-542.5 651.5,-506.5 687.5,-506.5 687.5,-542.5"/>
</g>
<!-- N7_9&#45;&#45;N7_8 -->
<g id="edge72" class="edge">
<title>N7_9&#45;&#45;N7_8</title>
<path fill="none" stroke="black" stroke-width="5" d="M651.33,-524.5C640.5,-524.5 626.79,-524.5 615.91,-524.5"/>
</g>
<!-- N7_10 -->
<g id="node102" class="node">
<title>N7_10</title>
<polygon fill="none" stroke="black" points="759.5,-542.5 723.5,-542.5 723.5,-506.5 759.5,-506.5 759.5,-542.5"/>
</g>
<!-- N7_10&#45;&#45;N7_9 -->
<g id="edge71" class="edge">
<title>N7_10&#45;&#45;N7_9</title>
<path fill="none" stroke="black" stroke-width="5" d="M723.33,-524.5C712.5,-524.5 698.79,-524.5 687.91,-524.5"/>
</g>
<!-- N7_11 -->
<g id="node103" class="node">
<title>N7_11</title>
<polygon fill="none" stroke="black" points="831.5,-542.5 795.5,-542.5 795.5,-506.5 831.5,-506.5 831.5,-542.5"/>
</g>
<!-- N7_11&#45;&#45;N7_10 -->
<g id="edge70" class="edge">
<title>N7_11&#45;&#45;N7_10</title>
<path fill="none" stroke="black" stroke-width="5" d="M795.33,-524.5C784.5,-524.5 770.79,-524.5 759.91,-524.5"/>
</g>
<!-- N7_12 -->
<g id="node104" class="node">
<title>N7_12</title>
<polygon fill="none" stroke="black" points="905,-544 866,-544 866,-505 905,-505 905,-544"/>
<text text-anchor="middle" x="885.5" y="-520.8" font-family="Times,serif" font-size="14.00">NE</text>
</g>
<!-- N7_12&#45;&#45;N6_12 -->
<g id="edge68" class="edge">
<title>N7_12&#45;&#45;N6_12</title>
<path fill="none" stroke="black" stroke-width="5" d="M885.5,-504.83C885.5,-494.17 885.5,-481.09 885.5,-470.67"/>
</g>
<!-- N7_12&#45;&#45;N7_11 -->
<g id="edge69" class="edge">
<title>N7_12&#45;&#45;N7_11</title>
<path fill="none" stroke="black" stroke-width="5" d="M865.83,-524.5C855.17,-524.5 842.09,-524.5 831.67,-524.5"/>
</g>
</g>
</svg>
