<?xml version="1.0" encoding="UTF-8" standalone="no"?>
<!DOCTYPE svg PUBLIC "-//W3C//DTD SVG 1.1//EN"
 "http://www.w3.org/Graphics/SVG/1.1/DTD/svg11.dtd">
<!-- Generated by graphviz version 2.43.0 (0)
 -->
<!-- Title: %3 Pages: 1 -->
<svg width="404pt" height="404pt"
 viewBox="0.00 0.00 404.00 404.00" xmlns="http://www.w3.org/2000/svg" xmlns:xlink="http://www.w3.org/1999/xlink">
<g id="graph0" class="graph" transform="scale(1 1) rotate(0) translate(4 400)">
<title>%3</title>
<polygon fill="white" stroke="transparent" points="-4,4 -4,-400 400,-400 400,4 -4,4"/>
<!-- N0_0 -->
<g id="node1" class="node">
<title>N0_0</title>
<polygon fill="none" stroke="black" points="110.5,-110.5 69.5,-110.5 69.5,-69.5 110.5,-69.5 110.5,-110.5"/>
<text text-anchor="middle" x="90" y="-86.3" font-family="Times,serif" font-size="14.00">SW</text>
</g>
<!-- N0_1 -->
<g id="node2" class="node">
<title>N0_1</title>
<polygon fill="none" stroke="black" points="180,-108 144,-108 144,-72 180,-72 180,-108"/>
<text text-anchor="middle" x="162" y="-86.3" font-family="Times,serif" font-size="14.00">E</text>
</g>
<!-- N0_0&#45;&#45;N0_1 -->
<g id="edge14" class="edge">
<title>N0_0&#45;&#45;N0_1</title>
<path fill="none" stroke="black" stroke-width="5" d="M110.83,-90C121.29,-90 133.85,-90 143.91,-90"/>
</g>
<!-- A7 -->
<g id="node29" class="node">
<title>A7</title>
<ellipse fill="none" stroke="black" cx="18" cy="-90" rx="18" ry="18"/>
<text text-anchor="middle" x="18" y="-86.3" font-family="Times,serif" font-size="14.00">7</text>
</g>
<!-- N0_0&#45;&#45;A7 -->
<g id="edge19" class="edge">
<title>N0_0&#45;&#45;A7</title>
<path fill="none" stroke="black" stroke-width="2" d="M69.17,-90C58.71,-90 46.15,-90 36.09,-90"/>
</g>
<!-- A6 -->
<g id="node27" class="node">
<title>A6</title>
<ellipse fill="none" stroke="black" cx="162" cy="-18" rx="18" ry="18"/>
<text text-anchor="middle" x="162" y="-14.3" font-family="Times,serif" font-size="14.00">6</text>
</g>
<!-- N0_1&#45;&#45;A6 -->
<g id="edge17" class="edge">
<title>N0_1&#45;&#45;A6</title>
<path fill="none" stroke="black" stroke-width="2" d="M162,-71.83C162,-61 162,-47.29 162,-36.41"/>
</g>
<!-- N0_2 -->
<g id="node3" class="node">
<title>N0_2</title>
<polygon fill="none" stroke="black" points="252,-108 216,-108 216,-72 252,-72 252,-108"/>
<text text-anchor="middle" x="234" y="-86.3" font-family="Times,serif" font-size="14.00">w</text>
</g>
<!-- A4 -->
<g id="node23" class="node">
<title>A4</title>
<ellipse fill="none" stroke="black" cx="234" cy="-18" rx="18" ry="18"/>
<text text-anchor="middle" x="234" y="-14.3" font-family="Times,serif" font-size="14.00">4</text>
</g>
<!-- N0_2&#45;&#45;A4 -->
<g id="edge12" class="edge">
<title>N0_2&#45;&#45;A4</title>
<path fill="none" stroke="black" stroke-width="2" d="M234,-71.83C234,-61 234,-47.29 234,-36.41"/>
</g>
<!-- N0_3 -->
<g id="node4" class="node">
<title>N0_3</title>
<polygon fill="none" stroke="black" points="324.5,-108.5 287.5,-108.5 287.5,-71.5 324.5,-71.5 324.5,-108.5"/>
<text text-anchor="middle" x="306" y="-86.3" font-family="Times,serif" font-size="14.00">SE</text>
</g>
<!-- N0_3&#45;&#45;N0_2 -->
<g id="edge3" class="edge">
<title>N0_3&#45;&#45;N0_2</title>
<path fill="none" stroke="black" stroke-width="5" d="M287.46,-90C276.63,-90 263.01,-90 252.23,-90"/>
</g>
<!-- N1_3 -->
<g id="node8" class="node">
<title>N1_3</title>
<polygon fill="none" stroke="black" points="324,-180 288,-180 288,-144 324,-144 324,-180"/>
<text text-anchor="middle" x="306" y="-158.3" font-family="Times,serif" font-size="14.00">n</text>
</g>
<!-- N0_3&#45;&#45;N1_3 -->
<g id="edge11" class="edge">
<title>N0_3&#45;&#45;N1_3</title>
<path fill="none" stroke="black" stroke-width="5" d="M306,-108.54C306,-119.38 306,-132.99 306,-143.77"/>
</g>
<!-- A1 -->
<g id="node17" class="node">
<title>A1</title>
<ellipse fill="none" stroke="black" cx="306" cy="-18" rx="18" ry="18"/>
<text text-anchor="middle" x="306" y="-14.3" font-family="Times,serif" font-size="14.00">1</text>
</g>
<!-- N0_3&#45;&#45;A1 -->
<g id="edge4" class="edge">
<title>N0_3&#45;&#45;A1</title>
<path fill="none" stroke="black" stroke-width="2" d="M306,-71.46C306,-60.63 306,-47.01 306,-36.23"/>
</g>
<!-- A5 -->
<g id="node25" class="node">
<title>A5</title>
<ellipse fill="none" stroke="black" cx="378" cy="-90" rx="18" ry="18"/>
<text text-anchor="middle" x="378" y="-86.3" font-family="Times,serif" font-size="14.00">5</text>
</g>
<!-- N0_3&#45;&#45;A5 -->
<g id="edge15" class="edge">
<title>N0_3&#45;&#45;A5</title>
<path fill="none" stroke="black" stroke-width="2" d="M324.54,-90C335.37,-90 348.99,-90 359.77,-90"/>
</g>
<!-- N1_0 -->
<g id="node5" class="node">
<title>N1_0</title>
<polygon fill="none" stroke="black" points="108,-180 72,-180 72,-144 108,-144 108,-180"/>
<text text-anchor="middle" x="90" y="-158.3" font-family="Times,serif" font-size="14.00">N</text>
</g>
<!-- N1_0&#45;&#45;N0_0 -->
<g id="edge6" class="edge">
<title>N1_0&#45;&#45;N0_0</title>
<path fill="none" stroke="black" stroke-width="5" d="M90,-143.83C90,-133.75 90,-121.17 90,-110.71"/>
</g>
<!-- A2 -->
<g id="node19" class="node">
<title>A2</title>
<ellipse fill="none" stroke="black" cx="18" cy="-162" rx="18" ry="18"/>
<text text-anchor="middle" x="18" y="-158.3" font-family="Times,serif" font-size="14.00">2</text>
</g>
<!-- N1_0&#45;&#45;A2 -->
<g id="edge7" class="edge">
<title>N1_0&#45;&#45;A2</title>
<path fill="none" stroke="black" stroke-width="2" d="M71.83,-162C61,-162 47.29,-162 36.41,-162"/>
</g>
<!-- N1_1 -->
<g id="node6" class="node">
<title>N1_1</title>
<polygon fill="none" stroke="black" points="180,-180 144,-180 144,-144 180,-144 180,-180"/>
</g>
<!-- N1_2 -->
<g id="node7" class="node">
<title>N1_2</title>
<polygon fill="none" stroke="black" points="252,-180 216,-180 216,-144 252,-144 252,-180"/>
</g>
<!-- N2_0 -->
<g id="node9" class="node">
<title>N2_0</title>
<polygon fill="none" stroke="black" points="108,-252 72,-252 72,-216 108,-216 108,-252"/>
<text text-anchor="middle" x="90" y="-230.3" font-family="Times,serif" font-size="14.00">s</text>
</g>
<!-- A3 -->
<g id="node21" class="node">
<title>A3</title>
<ellipse fill="none" stroke="black" cx="18" cy="-234" rx="18" ry="18"/>
<text text-anchor="middle" x="18" y="-230.3" font-family="Times,serif" font-size="14.00">3</text>
</g>
<!-- N2_0&#45;&#45;A3 -->
<g id="edge9" class="edge">
<title>N2_0&#45;&#45;A3</title>
<path fill="none" stroke="black" stroke-width="2" d="M71.83,-234C61,-234 47.29,-234 36.41,-234"/>
</g>
<!-- N2_1 -->
<g id="node10" class="node">
<title>N2_1</title>
<polygon fill="none" stroke="black" points="180,-252 144,-252 144,-216 180,-216 180,-252"/>
</g>
<!-- N2_2 -->
<g id="node11" class="node">
<title>N2_2</title>
<polygon fill="none" stroke="black" points="252,-252 216,-252 216,-216 252,-216 252,-252"/>
</g>
<!-- N2_3 -->
<g id="node12" class="node">
<title>N2_3</title>
<polygon fill="none" stroke="black" points="324,-252 288,-252 288,-216 324,-216 324,-252"/>
<text text-anchor="middle" x="306" y="-230.3" font-family="Times,serif" font-size="14.00">S</text>
</g>
<!-- A0 -->
<g id="node15" class="node">
<title>A0</title>
<ellipse fill="none" stroke="black" cx="306" cy="-306" rx="18" ry="18"/>
<text text-anchor="middle" x="306" y="-302.3" font-family="Times,serif" font-size="14.00">0</text>
</g>
<!-- N2_3&#45;&#45;A0 -->
<g id="edge1" class="edge">
<title>N2_3&#45;&#45;A0</title>
<path fill="none" stroke="black" stroke-width="2" d="M306,-252.17C306,-263 306,-276.71 306,-287.59"/>
</g>
<!-- N3_1 -->
<g id="node13" class="node">
<title>N3_1</title>
<polygon fill="none" stroke="black" points="180,-324 144,-324 144,-288 180,-288 180,-324"/>
<text text-anchor="middle" x="162" y="-302.3" font-family="Times,serif" font-size="14.00">e</text>
</g>
<!-- N3_2 -->
<g id="node14" class="node">
<title>N3_2</title>
<polygon fill="none" stroke="black" points="252,-324 216,-324 216,-288 252,-288 252,-324"/>
<text text-anchor="middle" x="234" y="-302.3" font-family="Times,serif" font-size="14.00">W</text>
</g>
<!-- B0 -->
<g id="node16" class="node">
<title>B0</title>
<ellipse fill="none" stroke="black" cx="90" cy="-18" rx="18" ry="18"/>
<text text-anchor="middle" x="90" y="-14.3" font-family="Times,serif" font-size="14.00">0</text>
</g>
<!-- B0&#45;&#45;N0_0 -->
<g id="edge2" class="edge">
<title>B0&#45;&#45;N0_0</title>
<path fill="none" stroke="black" stroke-width="2" d="M90,-36.17C90,-46.25 90,-58.83 90,-69.29"/>
</g>
<!-- B1 -->
<g id="node18" class="node">
<title>B1</title>
<ellipse fill="none" stroke="black" cx="90" cy="-306" rx="18" ry="18"/>
<text text-anchor="middle" x="90" y="-302.3" font-family="Times,serif" font-size="14.00">1</text>
</g>
<!-- B1&#45;&#45;N2_0 -->
<g id="edge5" class="edge">
<title>B1&#45;&#45;N2_0</title>
<path fill="none" stroke="black" stroke-width="2" d="M90,-287.83C90,-277 90,-263.29 90,-252.41"/>
</g>
<!-- B2 -->
<g id="node20" class="node">
<title>B2</title>
<ellipse fill="none" stroke="black" cx="378" cy="-234" rx="18" ry="18"/>
<text text-anchor="middle" x="378" y="-230.3" font-family="Times,serif" font-size="14.00">2</text>
</g>
<!-- B2&#45;&#45;N2_3 -->
<g id="edge8" class="edge">
<title>B2&#45;&#45;N2_3</title>
<path fill="none" stroke="black" stroke-width="2" d="M359.83,-234C349,-234 335.29,-234 324.41,-234"/>
</g>
<!-- B3 -->
<g id="node22" class="node">
<title>B3</title>
<ellipse fill="none" stroke="black" cx="378" cy="-162" rx="18" ry="18"/>
<text text-anchor="middle" x="378" y="-158.3" font-family="Times,serif" font-size="14.00">3</text>
</g>
<!-- B3&#45;&#45;N1_3 -->
<g id="edge10" class="edge">
<title>B3&#45;&#45;N1_3</title>
<path fill="none" stroke="black" stroke-width="2" d="M359.83,-162C349,-162 335.29,-162 324.41,-162"/>
</g>
<!-- B4 -->
<g id="node24" class="node">
<title>B4</title>
<ellipse fill="none" stroke="black" cx="162" cy="-378" rx="18" ry="18"/>
<text text-anchor="middle" x="162" y="-374.3" font-family="Times,serif" font-size="14.00">4</text>
</g>
<!-- B4&#45;&#45;N3_1 -->
<g id="edge13" class="edge">
<title>B4&#45;&#45;N3_1</title>
<path fill="none" stroke="black" stroke-width="2" d="M162,-359.83C162,-349 162,-335.29 162,-324.41"/>
</g>
<!-- B5 -->
<g id="node26" class="node">
<title>B5</title>
<ellipse fill="none" stroke="black" cx="90" cy="-378" rx="18" ry="18"/>
<text text-anchor="middle" x="90" y="-374.3" font-family="Times,serif" font-size="14.00">5</text>
</g>
<!-- B5&#45;&#45;N3_1 -->
<g id="edge16" class="edge">
<title>B5&#45;&#45;N3_1</title>
<path fill="none" stroke="black" stroke-width="2" d="M102.87,-365.13C114.28,-353.72 131.06,-336.94 143.83,-324.17"/>
</g>
<!-- B6 -->
<g id="node28" class="node">
<title>B6</title>
<ellipse fill="none" stroke="black" cx="234" cy="-378" rx="18" ry="18"/>
<text text-anchor="middle" x="234" y="-374.3" font-family="Times,serif" font-size="14.00">6</text>
</g>
<!-- B6&#45;&#45;N3_2 -->
<g id="edge18" class="edge">
<title>B6&#45;&#45;N3_2</title>
<path fill="none" stroke="black" stroke-width="2" d="M234,-359.83C234,-349 234,-335.29 234,-324.41"/>
</g>
<!-- B7 -->
<g id="node30" class="node">
<title>B7</title>
<ellipse fill="none" stroke="black" cx="306" cy="-378" rx="18" ry="18"/>
<text text-anchor="middle" x="306" y="-374.3" font-family="Times,serif" font-size="14.00">7</text>
</g>
<!-- B7&#45;&#45;N3_2 -->
<g id="edge20" class="edge">
<title>B7&#45;&#45;N3_2</title>
<path fill="none" stroke="black" stroke-width="2" d="M293.13,-365.13C281.72,-353.72 264.94,-336.94 252.17,-324.17"/>
</g>
</g>
</svg>
